<svg width="9" height="5" viewBox="0 0 9 5" fill="none" xmlns="http://www.w3.org/2000/svg">
<path d="M0.178101 0.990783L4.16755 4.87327C4.21504 4.91935 4.26649 4.95192 4.3219 4.97097C4.37731 4.99032 4.43668 5 4.5 5C4.56332 5 4.62269 4.99032 4.6781 4.97097C4.73351 4.95192 4.78496 4.91935 4.83245 4.87327L8.83377 0.990783C8.94459 0.883256 9 0.748847 9 0.587557C9 0.426267 8.94063 0.288018 8.8219 0.172811C8.70317 0.0576034 8.56464 -5.19157e-09 8.40633 -7.07941e-09C8.24802 -8.96726e-09 8.1095 0.0576033 7.99077 0.172811L4.5 3.55991L1.00923 0.172811C0.898417 0.0652842 0.761952 0.0115203 0.599842 0.0115203C0.437414 0.0115203 0.296834 0.0691241 0.178101 0.184331C0.0593672 0.299539 5.44496e-08 0.433947 5.26179e-08 0.587557C5.07861e-08 0.741167 0.0593672 0.875576 0.178101 0.990783Z" fill="#07170D"/>
</svg>
