<svg width="30" height="30" viewBox="0 0 30 30" fill="none" xmlns="http://www.w3.org/2000/svg">
<path d="M17.3438 20.1553L4.6875 20.1553" stroke="#282828" stroke-width="1.5" stroke-linecap="round" stroke-linejoin="round"/>
<path d="M25.3125 20.1553L22.0312 20.1553" stroke="#282828" stroke-width="1.5" stroke-linecap="round" stroke-linejoin="round"/>
<path d="M19.6875 22.499C20.9819 22.499 22.0312 21.4497 22.0312 20.1553C22.0312 18.8609 20.9819 17.8115 19.6875 17.8115C18.3931 17.8115 17.3438 18.8609 17.3438 20.1553C17.3438 21.4497 18.3931 22.499 19.6875 22.499Z" stroke="#282828" stroke-width="1.5" stroke-linecap="round" stroke-linejoin="round"/>
<path d="M9.84375 9.84285L4.6875 9.84277" stroke="#282828" stroke-width="1.5" stroke-linecap="round" stroke-linejoin="round"/>
<path d="M25.3125 9.84277L14.5312 9.84285" stroke="#282828" stroke-width="1.5" stroke-linecap="round" stroke-linejoin="round"/>
<path d="M12.1875 12.1865C13.4819 12.1865 14.5312 11.1372 14.5312 9.84277C14.5312 8.54836 13.4819 7.49902 12.1875 7.49902C10.8931 7.49902 9.84375 8.54836 9.84375 9.84277C9.84375 11.1372 10.8931 12.1865 12.1875 12.1865Z" stroke="#282828" stroke-width="1.5" stroke-linecap="round" stroke-linejoin="round"/>
</svg>
