<svg width="60" height="60" viewBox="0 0 60 60" fill="none" xmlns="http://www.w3.org/2000/svg">
<g clip-path="url(#clip0_1_13585)">
<path d="M29.959 26.3923C30.2249 26.3923 30.48 26.2866 30.6681 26.0986C30.8561 25.9105 30.9618 25.6554 30.9618 25.3895V20.0963C30.9618 19.8303 30.8561 19.5753 30.6681 19.3872C30.48 19.1991 30.2249 19.0935 29.959 19.0935H26.1337C25.8677 19.0935 25.6126 19.1991 25.4246 19.3872C25.2365 19.5753 25.1309 19.8303 25.1309 20.0963C25.1309 20.3623 25.2365 20.6173 25.4246 20.8054C25.6126 20.9935 25.8677 21.0991 26.1337 21.0991H28.9561V25.3895C28.9561 25.6554 29.0618 25.9105 29.2499 26.0986C29.4379 26.2866 29.693 26.3923 29.959 26.3923ZM44.2493 24.7102C44.5152 24.7102 44.7703 24.6045 44.9584 24.4165C45.1464 24.2284 45.2521 23.9733 45.2521 23.7073V12.5751C45.2521 12.3091 45.1464 12.0541 44.9584 11.866C44.7703 11.6779 44.5152 11.5723 44.2493 11.5723H35.7252C35.4593 11.5723 35.2042 11.6779 35.0161 11.866C34.828 12.0541 34.7224 12.3091 34.7224 12.5751V27.4679C34.7224 27.7339 34.828 27.989 35.0161 28.1771C35.2042 28.3651 35.4593 28.4708 35.7252 28.4708C35.9912 28.4708 36.2463 28.3651 36.4343 28.1771C36.6224 27.989 36.728 27.7339 36.728 27.4679V13.578H43.2464V23.7075C43.2465 23.9734 43.3521 24.2285 43.5402 24.4165C43.7283 24.6045 43.9833 24.7102 44.2493 24.7102Z" fill="url(#paint0_linear_1_13585)"/>
<path d="M58.9985 35.4967L51.9974 29.2325C51.7989 29.0575 51.5392 28.9681 51.275 28.9838C51.0108 28.9994 50.7635 29.1189 50.587 29.3161C50.4105 29.5133 50.3192 29.7723 50.3328 30.0366C50.3465 30.3009 50.4641 30.5491 50.66 30.7271L57.6611 36.9912C58.0881 37.3732 58.1114 38.0378 57.7016 38.4477L56.2202 39.9291C55.8084 40.3407 55.144 40.3139 54.7637 39.8887L45.5814 29.626C48.9816 26.7502 50.9832 22.4842 50.9832 18.0042C50.9832 9.61933 44.1617 2.79785 35.7768 2.79785C27.3919 2.79785 20.5703 9.61946 20.5703 18.0043C20.5703 27.4473 29.0834 34.5866 38.37 32.9903C38.6321 32.9453 38.8656 32.7979 39.0191 32.5807C39.1726 32.3635 39.2335 32.0942 39.1884 31.8321C39.1434 31.5699 38.996 31.3365 38.7788 31.183C38.5616 31.0295 38.2923 30.9686 38.0302 31.0136C29.9609 32.4008 22.576 26.1971 22.576 18.0043C22.576 10.7254 28.4978 4.80363 35.7768 4.80363C43.0557 4.80363 48.9775 10.7254 48.9775 18.0043C48.9775 22.2141 46.9428 26.2078 43.5339 28.6873C43.0628 29.0299 42.9792 29.7052 43.3614 30.1512C43.4121 30.2102 53.0753 41.0097 53.269 41.2262C54.4161 42.5082 56.4146 42.5712 57.6383 41.3474L59.1197 39.866C60.3395 38.6462 60.2843 36.6471 58.9985 35.4967Z" fill="url(#paint1_linear_1_13585)"/>
<path d="M48.3864 49.9311H45.2526V35.5478C45.2526 35.2818 45.1469 35.0267 44.9588 34.8387C44.7708 34.6506 44.5157 34.545 44.2497 34.545C43.9838 34.545 43.7287 34.6506 43.5406 34.8387C43.3526 35.0267 43.2469 35.2818 43.2469 35.5478V49.9311H36.7285V35.9844C36.7285 35.7184 36.6229 35.4634 36.4348 35.2753C36.2467 35.0872 35.9917 34.9816 35.7257 34.9816C35.4597 34.9816 35.2047 35.0872 35.0166 35.2753C34.8285 35.4634 34.7229 35.7184 34.7229 35.9844V49.931H30.9623V35.1596C30.9623 34.8936 30.8566 34.6385 30.6686 34.4505C30.4805 34.2624 30.2254 34.1567 29.9595 34.1567C29.6935 34.1567 29.4384 34.2624 29.2503 34.4505C29.0623 34.6385 28.9566 34.8936 28.9566 35.1596V49.9311H22.4383V29.7249C22.4383 29.4589 22.3326 29.2038 22.1445 29.0158C21.9565 28.8277 21.7014 28.722 21.4354 28.722C21.1695 28.722 20.9144 28.8277 20.7263 29.0158C20.5383 29.2038 20.4326 29.4589 20.4326 29.7249V49.931H8.14798V28.6209H14.6663V45.7943C14.6663 46.0603 14.772 46.3153 14.9601 46.5034C15.1481 46.6915 15.4032 46.7971 15.6692 46.7971C15.9351 46.7971 16.1902 46.6915 16.3783 46.5034C16.5663 46.3153 16.672 46.0603 16.672 45.7943V27.6181C16.672 27.3521 16.5663 27.097 16.3783 26.909C16.1902 26.7209 15.9351 26.6152 15.6692 26.6152H7.14515C6.87918 26.6152 6.62411 26.7209 6.43604 26.909C6.24798 27.097 6.14232 27.3521 6.14232 27.6181V50.9338C6.14232 51.1997 6.24798 51.4548 6.43604 51.6429C6.62411 51.831 6.87918 51.9366 7.14515 51.9366H48.3864C48.9393 51.9366 49.3892 52.3865 49.3892 52.9394V54.193C49.3892 54.7459 48.9393 55.1958 48.3864 55.1958H3.00849C2.45555 55.1958 2.00566 54.7459 2.00566 54.193V52.9394C2.00566 52.7262 2.07147 52.5229 2.19595 52.3515C2.35107 52.1363 2.41456 51.8683 2.37252 51.6063C2.33048 51.3444 2.18634 51.1097 1.97165 50.9538C1.75697 50.7979 1.48925 50.7334 1.22712 50.7745C0.964994 50.8156 0.729827 50.9588 0.573124 51.173C0.199258 51.686 -0.0014832 52.3048 8.25094e-06 52.9396V54.1931C8.25094e-06 55.852 1.34956 57.2016 3.00849 57.2016H48.3864C50.0453 57.2016 51.3949 55.852 51.3949 54.1931V52.9396C51.3949 51.2806 50.0453 49.9311 48.3864 49.9311Z" fill="#07170D"/>
</g>
<defs>
<linearGradient id="paint0_linear_1_13585" x1="29.4848" y1="-0.34722" x2="46.7996" y2="6.15956" gradientUnits="userSpaceOnUse">
<stop stop-color="#0DBA48"/>
<stop offset="1" stop-color="#009B51"/>
</linearGradient>
<linearGradient id="paint1_linear_1_13585" x1="29.1023" y1="-25.0143" x2="64.3166" y2="-13.9006" gradientUnits="userSpaceOnUse">
<stop stop-color="#0DBA48"/>
<stop offset="1" stop-color="#009B51"/>
</linearGradient>
<clipPath id="clip0_1_13585">
<rect width="60" height="60" fill="white"/>
</clipPath>
</defs>
</svg>
