<svg width="60" height="60" viewBox="0 0 60 60" fill="none" xmlns="http://www.w3.org/2000/svg">
<path d="M53.4 22.2H49.5217L49.4523 21.8187C49.2409 20.5958 49.4677 19.3375 50.0928 18.2653C50.3827 18.3315 50.686 18.3063 50.961 18.1932C51.2359 18.0801 51.4692 17.8846 51.6285 17.6335L53.2353 15.5925L54.3048 14.2345C54.657 13.7874 54.9176 13.2754 55.0719 12.7276C55.2261 12.1798 55.271 11.607 55.2039 11.0419C55.1368 10.4768 54.959 9.93041 54.6807 9.434C54.4024 8.93759 54.0291 8.50086 53.582 8.14873L49.5 4.92907C49.0529 4.57696 48.5408 4.31637 47.993 4.16217C47.4452 4.00798 46.8724 3.9632 46.3072 4.0304C45.7421 4.0976 45.1958 4.27546 44.6994 4.55382C44.203 4.83218 43.7663 5.20559 43.4143 5.65273L40.7345 9.057C40.5513 9.28657 40.4304 9.55964 40.3838 9.84968C40.3372 10.1397 40.3664 10.4369 40.4685 10.7123C39.5737 11.5626 38.408 12.0704 37.176 12.1467L32.1961 12.4413C30.4323 12.5584 28.7781 13.3383 27.5655 14.6245C26.8353 13.5844 25.8848 12.718 24.7818 12.0869C24.5229 11.9357 24.3082 11.7191 24.1593 11.4589C24.0104 11.1986 23.9325 10.9038 23.9333 10.604V9.824C24.1957 9.67323 24.4139 9.45616 24.566 9.19455C24.7181 8.93293 24.7988 8.63595 24.8 8.33333V6.6C24.8 5.91044 24.5261 5.24912 24.0385 4.76152C23.5509 4.27393 22.8896 4 22.2 4H18.7333C18.0438 4 17.3825 4.27393 16.8949 4.76152C16.4073 5.24912 16.1333 5.91044 16.1333 6.6V8.33333C16.1342 8.63624 16.2148 8.93359 16.3669 9.19553C16.519 9.45748 16.7374 9.67481 17 9.82573V10.6387C17.003 10.9319 16.9298 11.2208 16.7876 11.4773C16.6454 11.7337 16.4391 11.9489 16.1888 12.1016C14.8462 12.9041 13.7355 14.0423 12.9661 15.4041C12.1966 16.7659 11.7947 18.3045 11.8 19.8687V22.2H6.6C5.91044 22.2 5.24912 22.4739 4.76152 22.9615C4.27393 23.4491 4 24.1104 4 24.8V27.4C4 28.0896 4.27393 28.7509 4.76152 29.2385C5.24912 29.7261 5.91044 30 6.6 30H6.7326L10.3414 51.6545C10.5406 52.8702 11.1661 53.9751 12.106 54.7714C13.0458 55.5677 14.2385 56.0032 15.4703 56H44.5297C45.7615 56.0032 46.9542 55.5677 47.894 54.7714C48.8339 53.9751 49.4594 52.8702 49.6586 51.6545L53.2674 30H53.4C54.0896 30 54.7509 29.7261 55.2385 29.2385C55.7261 28.7509 56 28.0896 56 27.4V24.8C56 24.1104 55.7261 23.4491 55.2385 22.9615C54.7509 22.4739 54.0896 22.2 53.4 22.2ZM43.1733 8.76667L44.5349 9.83873C44.7166 9.95926 44.9371 10.0068 45.1524 9.97198C45.3677 9.93712 45.5619 9.82239 45.6963 9.65067C45.8307 9.47895 45.8955 9.26287 45.8776 9.04553C45.8598 8.82818 45.7606 8.62556 45.6 8.47807L44.2419 7.406L44.7784 6.7248C45.2051 6.18341 45.8294 5.83364 46.5139 5.75238C47.1984 5.67112 47.8872 5.86503 48.4288 6.29147L52.5143 9.50853C53.0559 9.93527 53.4059 10.5597 53.4871 11.2444C53.5684 11.9292 53.3743 12.6181 52.9476 13.1598L52.412 13.841L48.3265 10.6231C48.2371 10.5526 48.1347 10.5005 48.0252 10.4696C47.9156 10.4387 47.8011 10.4297 47.688 10.4431C47.575 10.4565 47.4657 10.4921 47.3664 10.5477C47.2671 10.6033 47.1798 10.678 47.1093 10.7674C47.0389 10.8568 46.9867 10.9592 46.9558 11.0687C46.9249 11.1783 46.916 11.2928 46.9294 11.4059C46.9428 11.5189 46.9783 11.6282 47.0339 11.7275C47.0896 11.8268 47.1642 11.9142 47.2536 11.9846L51.3399 15.2025L50.2679 16.5667C50.2635 16.5667 50.2609 16.558 50.2566 16.5545L50.2445 16.5485L42.0978 10.1351L43.1733 8.76667ZM32.3045 14.1729L37.28 13.88C38.9122 13.7775 40.4568 13.1062 41.6454 11.9829L48.5735 17.4429C47.7616 18.8591 47.4686 20.514 47.745 22.1229L47.7589 22.2017H28.3187L31.3997 18.2879C31.5418 18.1072 31.6064 17.8775 31.5792 17.6492C31.552 17.4209 31.4352 17.2128 31.2545 17.0706C31.0738 16.9285 30.8441 16.8639 30.6158 16.8911C30.3875 16.9183 30.1794 17.0351 30.0373 17.2158L26.1121 22.2H23.7721L28.5267 16.1507C28.9832 15.5754 29.5553 15.1021 30.206 14.7615C30.8567 14.4209 31.5715 14.2204 32.3045 14.1729ZM17.8667 6.6C17.8667 6.37015 17.958 6.14971 18.1205 5.98717C18.283 5.82464 18.5035 5.73333 18.7333 5.73333H22.2C22.4299 5.73333 22.6503 5.82464 22.8128 5.98717C22.9754 6.14971 23.0667 6.37015 23.0667 6.6V8.33333H17.8667V6.6ZM13.5333 19.8687C13.5271 18.6062 13.8497 17.3639 14.4694 16.264C15.0891 15.1641 15.9846 14.2445 17.0676 13.5957C17.5776 13.2894 17.9993 12.8558 18.2914 12.3374C18.5834 11.819 18.7357 11.2336 18.7333 10.6387V10.0667H22.2V10.604C22.1996 11.2091 22.3582 11.8037 22.66 12.3282C22.9617 12.8526 23.3961 13.2886 23.9195 13.5923C24.9434 14.1849 25.7985 15.0299 26.4033 16.0467L21.5621 22.2H13.5333V19.8687ZM54.2667 27.4C54.2667 27.6299 54.1754 27.8503 54.0128 28.0128C53.8503 28.1754 53.6299 28.2667 53.4 28.2667H23.0667C22.8368 28.2667 22.6164 28.358 22.4538 28.5205C22.2913 28.683 22.2 28.9035 22.2 29.1333C22.2 29.3632 22.2913 29.5836 22.4538 29.7462C22.6164 29.9087 22.8368 30 23.0667 30H51.5107L47.9487 51.3703C47.816 52.1806 47.399 52.9172 46.7725 53.448C46.1459 53.9788 45.3508 54.269 44.5297 54.2667H15.4703C14.6491 54.269 13.8538 53.9786 13.2273 53.4477C12.6007 52.9167 12.1838 52.1799 12.0513 51.3694L8.48933 30H17C17.2299 30 17.4503 29.9087 17.6128 29.7462C17.7754 29.5836 17.8667 29.3632 17.8667 29.1333C17.8667 28.9035 17.7754 28.683 17.6128 28.5205C17.4503 28.358 17.2299 28.2667 17 28.2667H6.6C6.37015 28.2667 6.14971 28.1754 5.98717 28.0128C5.82464 27.8503 5.73333 27.6299 5.73333 27.4V24.8C5.73333 24.5701 5.82464 24.3497 5.98717 24.1872C6.14971 24.0246 6.37015 23.9333 6.6 23.9333H53.4C53.6299 23.9333 53.8503 24.0246 54.0128 24.1872C54.1754 24.3497 54.2667 24.5701 54.2667 24.8V27.4Z" fill="black"/>
<path d="M26.5689 40.0064C26.768 40.1213 27.0045 40.1524 27.2265 40.0929C27.4486 40.0335 27.6378 39.8882 27.7528 39.6892L29.2504 37.0892C29.3264 36.9574 29.4359 36.848 29.5676 36.772C29.6993 36.6959 29.8488 36.6559 30.0009 36.6559C30.153 36.6559 30.3025 36.6959 30.4342 36.772C30.566 36.848 30.6754 36.9574 30.7514 37.0892L32.249 39.6892C32.3648 39.8866 32.5539 40.0302 32.7752 40.0887C32.9964 40.1472 33.2319 40.1158 33.43 40.0014C33.6282 39.887 33.7731 39.6988 33.8331 39.4779C33.8931 39.2571 33.8632 39.0215 33.7501 38.8225L32.2534 36.2225C32.0254 35.8265 31.6971 35.4975 31.3015 35.2688C30.9059 35.04 30.457 34.9196 30 34.9196C29.5431 34.9196 29.0942 35.04 28.6986 35.2688C28.303 35.4975 27.9747 35.8265 27.7467 36.2225L26.25 38.8225C26.1931 38.9212 26.1563 39.0301 26.1416 39.143C26.1269 39.2559 26.1345 39.3706 26.1641 39.4805C26.1938 39.5905 26.2448 39.6935 26.3142 39.7837C26.3837 39.8739 26.4702 39.9496 26.5689 40.0064ZM36.4142 46.8998C36.4903 47.0315 36.5303 47.1809 36.5304 47.3329C36.5304 47.485 36.4904 47.6344 36.4145 47.7661C36.3385 47.8978 36.2292 48.0073 36.0976 48.0834C35.966 48.1595 35.8166 48.1997 35.6646 48.1998H32.9996C32.7697 48.1998 32.5493 48.2911 32.3868 48.4537C32.2242 48.6162 32.1329 48.8366 32.1329 49.0665C32.1329 49.2964 32.2242 49.5168 32.3868 49.6793C32.5493 49.8419 32.7697 49.9332 32.9996 49.9332H35.6646C36.1211 49.9335 36.5697 49.8135 36.9652 49.5855C37.3606 49.3574 37.6891 49.0292 37.9175 48.6339C38.1459 48.2386 38.2662 47.7901 38.2662 47.3336C38.2663 46.877 38.1462 46.4285 37.9179 46.0332L36.5876 43.7278C36.4727 43.5287 36.2833 43.3833 36.0612 43.3237C35.8391 43.2642 35.6024 43.2953 35.4033 43.4102C35.2041 43.5251 35.0588 43.7145 34.9992 43.9366C34.9396 44.1587 34.9707 44.3953 35.0856 44.5945L36.4142 46.8998ZM22.0856 48.6332C22.3119 49.0305 22.6399 49.3604 23.0359 49.5889C23.432 49.8174 23.8818 49.9362 24.339 49.9332H27.0022C27.2321 49.9332 27.4525 49.8419 27.6151 49.6793C27.7776 49.5168 27.8689 49.2964 27.8689 49.0665C27.8689 48.8366 27.7776 48.6162 27.6151 48.4537C27.4525 48.2911 27.2321 48.1998 27.0022 48.1998H24.3372C24.1852 48.1997 24.0358 48.1595 23.9042 48.0834C23.7726 48.0073 23.6633 47.8978 23.5874 47.7661C23.5114 47.6344 23.4714 47.485 23.4715 47.3329C23.4715 47.1809 23.5115 47.0315 23.5876 46.8998L24.9188 44.5945C25.0337 44.3953 25.0648 44.1587 25.0052 43.9366C24.9457 43.7145 24.8003 43.5251 24.6011 43.4102C24.402 43.2953 24.1653 43.2642 23.9432 43.3237C23.7211 43.3833 23.5318 43.5287 23.4168 43.7278L22.0856 46.0332C21.8549 46.4275 21.7332 46.8762 21.7332 47.3332C21.7332 47.7901 21.8549 48.2388 22.0856 48.6332ZM19.1329 15.3948C19.0753 15.2966 18.9989 15.2107 18.9081 15.1421C18.8172 15.0734 18.7138 15.0233 18.6036 14.9947C18.4934 14.966 18.3787 14.9594 18.2659 14.9751C18.1532 14.9908 18.0446 15.0286 17.9464 15.0862C17.1287 15.5876 16.4531 16.2902 15.9841 17.127C15.5151 17.9637 15.2685 18.9067 15.2676 19.8659C15.2676 20.0958 15.3589 20.3162 15.5214 20.4787C15.684 20.6413 15.9044 20.7326 16.1342 20.7326C16.3641 20.7326 16.5845 20.6413 16.7471 20.4787C16.9096 20.3162 17.0009 20.0958 17.0009 19.8659C16.9984 19.2085 17.1644 18.5615 17.483 17.9865C17.8016 17.4115 18.2622 16.9277 18.8209 16.5812C18.9194 16.5239 19.0056 16.4477 19.0746 16.357C19.1436 16.2663 19.194 16.1629 19.223 16.0527C19.2519 15.9425 19.2589 15.8277 19.2435 15.7148C19.228 15.6019 19.1904 15.4931 19.1329 15.3948Z" fill="url(#paint0_linear_1_13594)"/>
<defs>
<linearGradient id="paint0_linear_1_13594" x1="20.2442" y1="-9.69703" x2="41.8969" y2="-5.20226" gradientUnits="userSpaceOnUse">
<stop stop-color="#0DBA48"/>
<stop offset="1" stop-color="#009B51"/>
</linearGradient>
</defs>
</svg>
