<svg width="60" height="60" viewBox="0 0 60 60" fill="none" xmlns="http://www.w3.org/2000/svg">
<path d="M46.5269 22.9986V20.5277C46.5269 16.1443 44.7856 11.9404 41.6861 8.84084C38.5866 5.7413 34.3827 4 29.9993 4C25.6159 4 21.412 5.7413 18.3124 8.84084C15.2129 11.9404 13.4716 16.1443 13.4716 20.5277V22.9986C12.8095 23.1239 12.2118 23.476 11.7813 23.9945C11.3509 24.5129 11.1146 25.1652 11.1133 25.839V53.1031C11.1144 53.8707 11.4199 54.6066 11.9627 55.1494C12.5054 55.6922 13.2413 55.9976 14.0089 55.9987H45.9896C46.7572 55.9976 47.4931 55.6922 48.0359 55.1494C48.5787 54.6066 48.8841 53.8707 48.8852 53.1031V25.839C48.8839 25.1652 48.6476 24.5129 48.2172 23.9945C47.7868 23.476 47.189 23.1239 46.5269 22.9986ZM15.0965 20.5277C15.0965 16.5752 16.6666 12.7846 19.4614 9.98984C22.2562 7.19503 26.0468 5.62493 29.9993 5.62493C33.9517 5.62493 37.7423 7.19503 40.5371 9.98984C43.3319 12.7846 44.902 16.5752 44.902 20.5277V22.9445H43.2619V20.5277C43.2624 18.1906 42.6442 15.895 41.4702 13.8741C41.3617 13.6874 41.1835 13.5514 40.9748 13.496C40.766 13.4407 40.5438 13.4705 40.3571 13.5789C40.1703 13.6874 40.0343 13.8656 39.979 14.0743C39.9236 14.2831 39.9534 14.5053 40.0619 14.692C41.0918 16.4644 41.6341 18.4778 41.6337 20.5277V22.9445H18.3431L18.3605 20.5277C18.3585 18.1707 19.0726 15.8687 20.4081 13.9266C21.7437 11.9845 23.6377 10.494 25.8394 9.65241C28.041 8.81082 30.4463 8.65791 32.7368 9.21392C35.0273 9.76992 37.0948 11.0086 38.6655 12.7659C38.7355 12.8494 38.8216 12.9178 38.9186 12.9673C39.0155 13.0168 39.1215 13.0464 39.2301 13.0541C39.3387 13.0619 39.4478 13.0477 39.5508 13.0125C39.6538 12.9772 39.7487 12.9217 39.8298 12.849C39.911 12.7764 39.9767 12.6882 40.023 12.5897C40.0694 12.4912 40.0955 12.3843 40.0998 12.2755C40.104 12.1667 40.0864 12.0582 40.0479 11.9563C40.0094 11.8545 39.9508 11.7614 39.8756 11.6827C38.0853 9.68194 35.7299 8.2719 33.1208 7.63911C30.5117 7.00631 27.7719 7.18058 25.264 8.13886C22.7561 9.09714 20.5983 10.7943 19.076 13.0057C17.5537 15.2171 16.7387 17.8386 16.7388 20.5233L16.7214 22.9456H15.0965V20.5277ZM47.2603 53.1031C47.2597 53.44 47.1257 53.7628 46.8875 54.001C46.6493 54.2392 46.3265 54.3732 45.9896 54.3738H14.0089C13.6721 54.3732 13.3492 54.2392 13.111 54.001C12.8728 53.7628 12.7388 53.44 12.7382 53.1031V25.839C12.7388 25.5023 12.8729 25.1795 13.1111 24.9415C13.3493 24.7035 13.6722 24.5697 14.0089 24.5694H45.9896C46.3264 24.5697 46.6492 24.7035 46.8874 24.9415C47.1257 25.1795 47.2597 25.5023 47.2603 25.839V53.1031Z" fill="#07170D"/>
<path d="M43.4541 26.3701H16.5431C16.0118 26.3707 15.5024 26.582 15.1267 26.9577C14.751 27.3334 14.5396 27.8429 14.5391 28.3742V50.5696C14.5396 51.101 14.751 51.6104 15.1267 51.9861C15.5024 52.3618 16.0118 52.5731 16.5431 52.5737C16.7586 52.5737 16.9653 52.4881 17.1176 52.3357C17.27 52.1834 17.3556 51.9767 17.3556 51.7612C17.3556 51.5457 17.27 51.3391 17.1176 51.1867C16.9653 51.0344 16.7586 50.9488 16.5431 50.9488C16.4426 50.9488 16.3461 50.9088 16.275 50.8377C16.2039 50.7666 16.164 50.6702 16.164 50.5696V28.3753C16.164 28.2747 16.2039 28.1783 16.275 28.1072C16.3461 28.0361 16.4426 27.9961 16.5431 27.9961H43.4541C43.5547 27.9961 43.6511 28.0361 43.7222 28.1072C43.7933 28.1783 43.8332 28.2747 43.8332 28.3753V50.5696C43.8332 50.6702 43.7933 50.7666 43.7222 50.8377C43.6511 50.9088 43.5547 50.9488 43.4541 50.9488H18.9567C18.7412 50.9488 18.5346 51.0344 18.3822 51.1867C18.2298 51.3391 18.1442 51.5457 18.1442 51.7612C18.1442 51.9767 18.2298 52.1834 18.3822 52.3357C18.5346 52.4881 18.7412 52.5737 18.9567 52.5737H43.4541C43.9854 52.5731 44.4948 52.3618 44.8706 51.9861C45.2463 51.6104 45.4576 51.101 45.4582 50.5696V28.3753C45.4579 27.8438 45.2467 27.3341 44.8709 26.9581C44.4952 26.5822 43.9856 26.3707 43.4541 26.3701Z" fill="#07170D"/>
<path d="M31.2432 39.6688C31.0399 39.7407 30.8735 39.8903 30.7806 40.0848C30.6876 40.2793 30.6758 40.5028 30.7476 40.7061C30.8194 40.9094 30.9691 41.0758 31.1636 41.1687C31.3581 41.2617 31.5816 41.2735 31.7849 41.2017C32.9611 40.7888 33.9578 39.9807 34.6049 38.9152C35.252 37.8497 35.5096 36.5927 35.3337 35.3586C35.1579 34.1244 34.5594 32.9895 33.6404 32.1471C32.7214 31.3048 31.5386 30.8073 30.2939 30.7394C29.0491 30.6715 27.8193 31.0375 26.8141 31.7748C25.8089 32.5122 25.0906 33.5753 24.7815 34.783C24.4724 35.9907 24.5917 37.2682 25.1192 38.3978C25.6466 39.5274 26.5494 40.439 27.6738 40.9775V46.8467C27.6738 47.4644 27.9192 48.0568 28.356 48.4936C28.7927 48.9304 29.3851 49.1758 30.0028 49.1758C30.6206 49.1758 31.213 48.9304 31.6497 48.4936C32.0865 48.0568 32.3319 47.4644 32.3319 46.8467V42.9263C32.3319 42.7108 32.2463 42.5042 32.0939 42.3518C31.9416 42.1994 31.7349 42.1138 31.5194 42.1138C31.304 42.1138 31.0973 42.1994 30.9449 42.3518C30.7926 42.5042 30.707 42.7108 30.707 42.9263V46.8467C30.707 47.0334 30.6328 47.2125 30.5007 47.3446C30.3687 47.4766 30.1896 47.5508 30.0028 47.5508C29.8161 47.5508 29.637 47.4766 29.5049 47.3446C29.3729 47.2125 29.2987 47.0334 29.2987 46.8467V40.4347C29.2985 40.2668 29.2464 40.103 29.1494 39.9659C29.0524 39.8287 28.9154 39.725 28.7571 39.6688C27.9866 39.4002 27.3247 38.8879 26.8715 38.2095C26.4183 37.531 26.1985 36.7233 26.2454 35.9088C26.2923 35.0942 26.6033 34.3171 27.1314 33.6951C27.6594 33.0731 28.3758 32.6402 29.172 32.4618C29.7272 32.3408 30.3024 32.3456 30.8555 32.4757C31.4086 32.6057 31.9256 32.8579 32.3687 33.2136C32.8892 33.6332 33.2879 34.1845 33.5234 34.8102C33.759 35.436 33.8227 36.1133 33.7081 36.772C33.5935 37.4307 33.3046 38.0467 32.8716 38.5561C32.4385 39.0655 31.877 39.4497 31.2454 39.6688H31.2432Z" fill="url(#paint0_linear_1_13576)"/>
<defs>
<linearGradient id="paint0_linear_1_13576" x1="26.9447" y1="17.7216" x2="37.1778" y2="19.6082" gradientUnits="userSpaceOnUse">
<stop stop-color="#0DBA48"/>
<stop offset="1" stop-color="#009B51"/>
</linearGradient>
</defs>
</svg>
