<svg width="425" height="417" viewBox="0 0 425 417" fill="none" xmlns="http://www.w3.org/2000/svg">
<path d="M139.622 137.668L137.808 137.158L136.701 141.102L138.515 141.611L139.622 137.668Z" fill="#6D6D6D"/>
<path d="M140.616 140.353L138.131 139.653L135.646 138.955C135.646 138.955 123.991 143.637 123.875 143.604L136.068 147.027L148.259 150.448C148.131 150.417 140.616 140.353 140.616 140.353Z" fill="#B8C2C4"/>
<path d="M147.766 151.669L123.516 144.861L110.252 192.11L134.503 198.917L147.766 151.669Z" fill="#D66E18"/>
<path d="M147.763 151.667L141.601 149.938L128.338 197.186L134.5 198.916L147.763 151.667Z" fill="#C16017"/>
<path d="M147.816 151.981L123.111 145.041C123.01 145.013 122.916 144.965 122.834 144.901C122.752 144.836 122.683 144.756 122.632 144.665C122.581 144.574 122.548 144.473 122.536 144.369C122.523 144.266 122.532 144.16 122.56 144.06C122.588 143.959 122.636 143.865 122.701 143.783C122.765 143.701 122.846 143.632 122.937 143.581C123.028 143.53 123.128 143.498 123.232 143.486C123.336 143.474 123.441 143.482 123.542 143.511L148.257 150.448C148.46 150.506 148.632 150.641 148.735 150.825C148.838 151.009 148.865 151.227 148.808 151.43C148.779 151.531 148.731 151.626 148.666 151.709C148.6 151.792 148.519 151.861 148.427 151.913C148.335 151.964 148.233 151.996 148.128 152.008C148.023 152.02 147.917 152.01 147.816 151.981Z" fill="#999999"/>
<path opacity="0.53" d="M137.238 147.644L123.746 143.856C123.617 143.82 123.483 143.895 123.447 144.024L123.441 144.046C123.405 144.175 123.48 144.309 123.609 144.345L137.101 148.132C137.229 148.168 137.363 148.093 137.399 147.964L137.405 147.943C137.442 147.814 137.366 147.68 137.238 147.644Z" fill="white"/>
<path d="M134.293 200.521L109.58 193.589C109.377 193.533 109.205 193.397 109.102 193.214C108.999 193.03 108.973 192.813 109.029 192.61C109.058 192.509 109.105 192.415 109.17 192.333C109.235 192.251 109.315 192.182 109.406 192.131C109.497 192.08 109.597 192.047 109.701 192.035C109.805 192.023 109.91 192.031 110.011 192.059L134.726 198.996C134.929 199.054 135.101 199.189 135.204 199.373C135.308 199.557 135.334 199.775 135.277 199.978C135.218 200.18 135.082 200.351 134.897 200.453C134.713 200.554 134.496 200.579 134.293 200.521Z" fill="#999999"/>
<path opacity="0.53" d="M123.717 196.187L110.225 192.399C110.097 192.363 109.963 192.438 109.927 192.567L109.921 192.589C109.884 192.718 109.96 192.852 110.088 192.888L123.58 196.675C123.709 196.711 123.843 196.636 123.879 196.507L123.885 196.486C123.921 196.357 123.846 196.223 123.717 196.187Z" fill="white"/>
<path d="M123.434 145.133L123.229 145.864L147.249 153.489L147.816 151.979L123.434 145.133Z" fill="#C16017"/>
<path opacity="0.53" d="M136.517 139.203L127.714 144.685L132.152 145.877L137.354 139.437L136.517 139.203Z" fill="white"/>
<path d="M140.616 140.352L139.86 140.141L139.611 140.07L142.461 148.824L148.247 150.447L140.616 140.352Z" fill="#ADADAD"/>
<path d="M142.801 131.903L137.837 130.51L135.836 137.637L140.801 139.031L142.801 131.903Z" fill="#ADADAD"/>
<path d="M139.007 134.491C138.688 135.632 138.021 136.442 137.518 136.301C137.014 136.161 136.87 135.121 137.188 133.982C137.507 132.843 138.176 132.031 138.677 132.172C139.178 132.313 139.328 133.352 139.007 134.491Z" fill="#999999"/>
<path d="M138.953 134.688C138.727 135.487 138.259 136.056 137.918 135.957C137.576 135.858 137.46 135.129 137.686 134.327C137.911 133.526 138.379 132.958 138.732 133.056C139.084 133.153 139.177 133.886 138.953 134.688Z" fill="#6D6D6D"/>
<path d="M142.159 131.727L141.053 131.416L139.052 138.544L140.158 138.854L142.159 131.727Z" fill="#999999"/>
<path d="M132.768 167.591C134.13 162.739 132.593 158.065 129.336 157.151C126.079 156.237 122.335 159.428 120.973 164.28C119.611 169.131 121.147 173.806 124.404 174.72C127.661 175.634 131.406 172.443 132.768 167.591Z" fill="#5BA93A"/>
<path d="M131.583 167.264C130.376 171.565 127.213 174.44 124.519 173.684C121.825 172.928 120.622 168.828 121.827 164.527C123.032 160.225 126.197 157.351 128.891 158.107C131.585 158.863 132.79 162.963 131.583 167.264Z" fill="#93D850"/>
<path opacity="0.19" d="M131.198 147.021L127.659 146.027L114.396 193.276L117.935 194.269L131.198 147.021Z" fill="white"/>
<path d="M108.483 111.387L82.4318 94.3088C82.2197 94.1689 82.0717 93.9507 82.02 93.7019C81.9684 93.4532 82.0174 93.1941 82.1563 92.9814C82.2959 92.7689 82.5141 92.6205 82.763 92.5688C83.0119 92.5172 83.2712 92.5665 83.4837 92.706L109.533 109.782C109.638 109.851 109.729 109.94 109.8 110.044C109.871 110.148 109.921 110.265 109.946 110.388C109.972 110.511 109.973 110.639 109.95 110.762C109.927 110.886 109.879 111.004 109.81 111.109C109.741 111.215 109.652 111.306 109.548 111.377C109.444 111.448 109.327 111.497 109.204 111.523C109.081 111.549 108.954 111.55 108.83 111.527C108.706 111.503 108.588 111.456 108.483 111.387Z" fill="#B8C2C4"/>
<path d="M130.366 77.3348L104.924 60.6543L83.0204 94.0626L108.462 110.743L130.366 77.3348Z" fill="#B8C2C4"/>
<path d="M140.766 72.8973C147.801 68.7654 151.674 62.3029 149.419 58.4629C147.163 54.6228 139.632 54.8594 132.598 58.9913C125.564 63.1231 121.69 69.5856 123.946 73.4257C126.201 77.2657 133.732 77.0291 140.766 72.8973Z" fill="#B8C2C4"/>
<path d="M124.749 69.0969C124.347 67.9124 123.971 66.7189 123.62 65.5165C123.979 65.0526 124.675 66.3179 125.126 65.943C125.2 65.8704 125.253 65.7787 125.279 65.678C125.649 64.6232 126.021 63.5692 126.395 62.5158C126.882 62.9172 127.468 63.1785 128.091 63.2717C128.49 61.9979 128.974 60.7526 129.541 59.5442L131.338 60.2565C132.197 59.1936 132.89 58.0067 133.393 56.7361L135.464 58.4839C136.445 57.3367 137.428 56.1908 138.412 55.0463C138.34 55.6161 138.444 56.1943 138.711 56.703L142.608 54.5059L142.863 56.2516C143.993 55.7748 145.163 55.4005 146.36 55.1333C146.084 55.7145 145.804 56.2957 145.519 56.877C146.823 56.6678 148.136 56.5295 149.454 56.4628L148.004 57.8337C149.362 58.179 150.638 58.7861 151.763 59.6208C150.855 59.8454 149.984 60.1974 149.174 60.6666C149.955 61.4995 150.577 62.468 151.009 63.5243L149.707 63.4622C149.65 63.4516 149.592 63.4524 149.536 63.4645C149.48 63.4766 149.427 63.4997 149.379 63.5326C149.307 63.616 149.269 63.7243 149.274 63.8349L148.945 67.6121C148.409 67.0474 147.768 66.5924 147.058 66.2723C147.15 66.9824 147.08 67.704 146.854 68.3834C146.628 69.0628 146.252 69.6825 145.753 70.1965C145.293 69.909 144.931 69.4869 144.718 68.9872C144.777 70.3496 144.314 71.6831 143.422 72.7147C142.835 72.1769 142.203 71.6919 141.531 71.2651C141.473 72.531 141.041 73.7512 140.289 74.771C139.683 73.7701 138.75 73.0092 137.648 72.6173C137.66 73.6858 137.527 74.7509 137.253 75.7836C136.416 75.217 135.527 74.7316 134.598 74.334C134.64 75.169 134.587 76.006 134.443 76.8294L131.796 75.3798C131.796 76.0176 131.796 76.6575 131.813 77.2953C131.049 76.2309 129.51 76.2433 128.23 75.9617C125.497 75.3612 124.737 73.2365 122.96 71.4763C122.691 71.2112 121.49 70.4409 121.599 69.977C121.751 69.3309 124.198 69.2067 124.749 69.0969Z" fill="#B8C2C4"/>
<path d="M131.028 73.4899C129.1 73.4899 127.605 72.8956 126.886 71.6862C126.103 70.3547 126.424 68.5033 127.785 66.476C129.104 64.5108 131.258 62.5911 133.848 61.0691C139.35 57.8365 144.913 57.4368 146.511 60.1558C147.294 61.4874 146.975 63.3387 145.613 65.366C144.293 67.3313 142.14 69.2509 139.549 70.773C136.503 72.5663 133.43 73.4878 131.028 73.4899ZM142.401 58.9485C140.106 58.9485 137.097 59.8514 134.148 61.5826C131.632 63.0612 129.547 64.9167 128.276 66.8094C127.048 68.638 126.735 70.2656 127.395 71.3901C128.804 73.784 134.119 73.2807 139.249 70.2677C141.765 68.7891 143.85 66.9337 145.122 65.0409C146.35 63.2124 146.662 61.5847 146.002 60.4602C145.41 59.4393 144.103 58.9485 142.401 58.9485Z" fill="#9DA2A3"/>
<path d="M131.885 72.2027C130.228 72.2027 129.017 71.6829 128.446 70.7076C127.108 68.4297 129.665 64.5324 134.267 61.8299C136.431 60.5585 138.711 59.7591 140.686 59.6038C142.722 59.434 144.207 59.9538 144.857 61.0679C146.195 63.3458 143.637 67.241 139.036 69.9435C136.87 71.217 134.592 72.0143 132.616 72.1717C132.364 72.1903 132.121 72.2027 131.885 72.2027ZM141.411 60.0656C141.189 60.0656 140.957 60.076 140.717 60.0967C138.818 60.254 136.613 61.0223 134.505 62.2565C130.216 64.7767 127.683 68.4545 128.86 70.457C129.411 71.3972 130.723 71.83 132.562 71.6788C134.461 71.5194 136.667 70.7531 138.775 69.5169C143.063 66.9987 145.596 63.3209 144.42 61.3185C143.948 60.4984 142.892 60.0635 141.417 60.0635L141.411 60.0656Z" fill="#9DA2A3"/>
<path d="M90.6406 99.073L108.462 110.757L130.15 77.673L110.477 64.9064C108.967 63.9248 107.452 62.9412 105.853 62.1087C105.606 61.9803 104.836 61.4522 104.403 61.4336L104.144 61.8291C104.246 62.1894 104.656 62.6575 104.801 62.8107C105.981 64.0718 107.65 65.0265 108.943 66.2069C110.319 67.467 111.617 68.8093 112.832 70.2263C114.074 71.6759 115.232 73.2083 115.919 74.9768C117.048 77.876 116.791 81.2079 115.609 84.0885C114.426 86.969 112.376 89.4312 110.017 91.473C104.691 96.1179 97.7353 98.6402 90.6406 99.073Z" fill="#9DA2A3"/>
<path d="M129.926 78.6734L103.884 61.5973C103.778 61.5284 103.687 61.4394 103.616 61.3353C103.545 61.2312 103.496 61.1142 103.47 60.9908C103.445 60.8675 103.444 60.7403 103.467 60.6166C103.491 60.4929 103.539 60.3751 103.608 60.2699C103.677 60.1645 103.766 60.0738 103.87 60.0028C103.974 59.9318 104.091 59.882 104.214 59.8562C104.338 59.8305 104.465 59.8292 104.588 59.8526C104.712 59.876 104.83 59.9235 104.936 59.9924L130.984 77.0706C131.09 77.1395 131.181 77.2285 131.252 77.3326C131.323 77.4367 131.372 77.5537 131.398 77.6771C131.423 77.8004 131.424 77.9276 131.401 78.0513C131.377 78.175 131.329 78.2928 131.26 78.398C131.191 78.5043 131.102 78.5958 130.997 78.6673C130.892 78.7388 130.775 78.7888 130.651 78.8144C130.527 78.84 130.399 78.8408 130.274 78.8165C130.15 78.7923 130.032 78.7437 129.926 78.6734Z" fill="#B8C2C4"/>
<path d="M127.839 81.1902L102.397 64.5098L85.5478 90.2098L110.99 106.89L127.839 81.1902Z" fill="#F98715"/>
<path d="M115.78 74.8795C116.909 77.7787 116.652 81.1106 115.468 83.9912C114.283 86.8717 112.237 89.3318 109.876 91.3737C106.263 94.5151 101.914 96.6833 97.2837 97.8926L110.854 106.785L127.698 81.0817L114.445 72.3945C114.98 73.1709 115.428 74.0043 115.78 74.8795Z" fill="#D66E18"/>
<path d="M77.6729 216.163C77.5052 217.077 77.4658 218.126 78.0871 218.816C78.351 219.083 78.6621 219.299 79.0045 219.454C80.2936 220.107 81.6842 220.538 83.1171 220.727C83.1761 222.327 83.5571 223.898 84.2374 225.347C86.0726 225.477 87.9163 225.411 89.7376 225.151C89.9971 225.954 90.2553 226.758 90.512 227.563L83.581 227.491C83.3845 227.472 83.1865 227.504 83.0053 227.582C82.6222 227.789 82.5911 228.317 82.6388 228.748C82.8208 230.313 83.4386 231.795 84.4218 233.026L82.3219 234.567C82.1408 234.67 81.9961 234.827 81.9078 235.016C81.8654 235.193 81.8784 235.379 81.945 235.548C82.4379 237.168 84.0159 238.267 85.6725 238.669C87.3292 239.071 89.0418 238.893 90.7274 238.713L101.16 237.598C101.482 237.592 101.798 237.503 102.076 237.34C102.33 237.161 105.279 235.967 105.418 235.683C108.095 230.299 108.025 225.658 108.458 219.665C108.551 218.389 108.518 217.035 107.87 215.938C107.454 215.304 106.935 214.744 106.335 214.281C102.815 211.272 96.0246 202.724 91.7297 200.976C90.4064 200.439 91.7628 206.031 90.8496 204.935C90.6281 204.619 90.3749 204.326 90.0938 204.061C89.6777 203.768 89.1843 203.603 88.6752 203.587C85.4592 203.314 83.6141 205.782 81.7856 208.033C79.8577 210.4 78.2279 213.111 77.6729 216.163Z" fill="#CED5D0"/>
<path d="M107.878 215.936C107.462 215.302 106.944 214.742 106.343 214.279C102.823 211.27 96.0327 202.722 91.7378 200.974C91.2822 200.789 91.1435 201.33 91.1166 202.073C91.2176 202.166 91.3241 202.252 91.4355 202.332C94.1276 204.275 93.2992 207.553 91.8227 210.015C90.1302 212.835 87.7976 215.216 85.0139 216.967C88.8423 215.129 91.9937 212.13 94.0199 208.398C94.0864 208.229 94.2123 208.089 94.374 208.006C94.5811 207.93 94.8192 208.071 95.0077 208.213C96.9356 209.591 98.9236 211.03 100.106 213.084C100.783 214.26 101.251 215.691 102.44 216.346C103.308 216.822 104.66 217.097 104.598 218.085C104.57 218.295 104.505 218.497 104.405 218.684C102.841 221.975 100.487 224.827 97.5527 226.988L103.713 222.341C103.603 225.435 103.148 228.507 102.357 231.5C102.202 232.086 102.019 232.693 101.593 233.123C100.972 233.745 100.019 233.836 99.1452 233.827C95.3514 233.788 91.539 232.513 87.8198 233.262C89.9587 233.81 92.0561 234.508 94.0965 235.352C94.4465 235.497 94.8648 235.778 94.7633 236.143C94.696 236.313 94.5675 236.452 94.403 236.532C92.6055 237.644 90.309 237.325 88.2278 236.969C87.0371 236.762 85.7946 236.54 84.8275 235.813C84.1586 235.308 83.6678 234.592 82.9907 234.093L82.3239 234.583C82.1427 234.687 81.9981 234.844 81.9097 235.033C81.8673 235.21 81.8803 235.396 81.9469 235.565C82.4398 237.184 84.0178 238.284 85.6744 238.686C87.3311 239.087 89.0437 238.909 90.7293 238.729L101.162 237.615C101.484 237.608 101.8 237.519 102.077 237.356C102.332 237.178 105.281 235.983 105.42 235.7C108.097 230.315 108.027 225.675 108.46 219.682C108.559 218.394 108.526 217.039 107.878 215.936Z" fill="#BFC4C0"/>
<path d="M80.1454 219.015C81.7606 218.464 83.0943 217.313 84.3181 216.116C87.6045 212.925 90.454 209.222 92.2887 205.025C92.734 204.006 93.1171 202.803 92.5911 201.823C92.0651 200.844 90.8371 200.475 89.7333 200.512C86.975 200.608 84.6557 202.583 82.8188 204.633C80.3877 207.361 78.3272 210.5 77.3436 214.02C76.7265 216.23 76.5712 220.237 80.1454 219.015Z" fill="#A8ADAA"/>
<g clip-path="url(#clip0_130_17135)">
<path d="M157.643 265.566C156.442 260.65 153.633 256.279 149.664 253.154C145.695 250.028 140.796 248.329 135.751 248.328H58.2072C53.1619 248.329 48.2628 250.028 44.2938 253.154C40.3248 256.279 37.5153 260.65 36.3149 265.566L24.8838 312.235H169.074L157.643 265.566Z" fill="#F7CB14"/>
<path d="M21.2071 312.236H170.246C172.676 312.236 175.007 313.205 176.726 314.929C178.444 316.653 179.409 318.992 179.409 321.43V339.886H12.0439V321.43C12.0439 318.992 13.0093 316.653 14.7278 314.929C16.4462 313.205 18.7769 312.236 21.2071 312.236Z" fill="#F7CB14"/>
<path d="M97.4485 339.871H24.8838L46.9098 508.483C47.1332 510.192 47.9687 511.762 49.2607 512.899C50.5526 514.036 52.2126 514.662 53.9311 514.662H140.027C141.745 514.662 143.405 514.036 144.697 512.899C145.989 511.762 146.825 510.192 147.048 508.483L169.074 339.871H97.4485Z" fill="#F7CB14"/>
<path d="M139.065 292.278L133.162 263.812C132.649 261.339 131.304 259.119 129.351 257.526C127.398 255.932 124.958 255.062 122.441 255.063H68.9892C66.4724 255.063 64.0325 255.933 62.08 257.527C60.1275 259.12 58.7815 261.34 58.2683 263.812L52.3695 292.278C52.0375 293.876 52.0649 295.529 52.4497 297.116C52.8344 298.703 53.5669 300.183 54.5938 301.45C55.6207 302.717 56.9161 303.738 58.3859 304.44C59.8557 305.141 61.4629 305.505 63.0904 305.505H128.321C129.95 305.507 131.559 305.145 133.031 304.445C134.503 303.744 135.801 302.723 136.83 301.456C137.859 300.189 138.593 298.708 138.98 297.12C139.367 295.532 139.396 293.878 139.065 292.278Z" fill="#C18E0E"/>
<path d="M97.4485 339.871H24.8838L25.5061 344.625C58.7226 350.371 93.7145 345.816 125.579 356.803C133.796 359.634 142.268 364.054 145.937 371.953C147.815 376.006 148.228 380.564 148.537 385.023C150.532 413.721 149.47 442.551 145.368 471.022C144.261 478.714 142.802 486.69 138.19 492.934C129.634 504.518 113.396 506.502 99.0406 507.138C87.5637 507.651 76.0372 507.931 64.6138 506.701C58.9785 506.096 53.2286 505.069 48.395 502.105C47.4974 501.554 46.6423 500.937 45.8369 500.258L46.9098 508.483C47.1332 510.192 47.9687 511.762 49.2607 512.899C50.5526 514.036 52.2126 514.662 53.9311 514.662H140.027C141.745 514.662 143.405 514.036 144.697 512.899C145.989 511.762 146.825 510.192 147.048 508.483L169.074 339.871H97.4485Z" fill="#F4B80F"/>
<path opacity="0.44" d="M33.9901 356.494C32.6843 359.321 33.2685 362.624 33.8641 365.688C39.8711 396.538 44.4794 427.618 47.689 458.927C48.0708 462.539 49.8118 467.316 53.3817 466.707C56.6804 466.14 57.1157 461.597 56.6995 458.28C53.1182 429.584 47.9487 400.819 49.8271 371.951C50.0791 368.144 50.438 364.244 49.3919 360.574C47.7043 354.61 37.7508 348.339 33.9901 356.494Z" fill="white"/>
<path opacity="0.44" d="M16.6485 318.824C16.7478 320.564 18.3284 321.924 20.0122 322.356C21.6959 322.789 23.4484 322.51 25.1817 322.253C42.6185 319.663 60.3301 319.955 77.9578 319.817C78.6873 319.866 79.4176 319.734 80.0844 319.434C80.722 319.081 81.1764 318.284 80.89 317.606C80.6037 316.928 79.7102 316.71 78.9543 316.622C75.4226 316.216 71.8566 316.239 68.2983 316.239L39.3503 316.277C35.9561 316.281 16.366 313.948 16.6485 318.824Z" fill="white"/>
<path d="M133.162 263.812C132.649 261.339 131.304 259.119 129.351 257.526C127.398 255.932 124.958 255.062 122.441 255.063H68.9892C66.4724 255.063 64.0325 255.933 62.08 257.527C60.1275 259.12 58.7815 261.34 58.2683 263.812L52.3695 292.278C52.0375 293.876 52.0649 295.529 52.4497 297.116C52.8344 298.703 53.5669 300.183 54.5938 301.45C55.6207 302.717 56.9161 303.738 58.3859 304.44C59.8557 305.141 61.4629 305.505 63.0904 305.505H77.3124C75.3174 302.158 74.4549 298.253 74.8536 294.373C75.8769 285.685 82.6423 278.472 90.5647 274.814C98.487 271.155 107.444 270.508 116.168 270.531C122.552 270.531 129.531 271.24 135.224 273.841L133.162 263.812Z" fill="#966C0C"/>
<path d="M125.614 415.121C125.366 414.592 124.087 414.09 122.35 413.665C122.54 410.865 122.128 406.513 120.101 399.848C118.192 393.615 107.234 383.793 104.481 381.399C104.498 381.108 104.455 380.816 104.355 380.541C103.405 378.243 93.035 376.224 91.9851 377.737C91.6529 378.22 91.8629 379.595 92.3669 381.323C89.8279 382.364 85.9985 384.858 80.6648 390.593C75.5868 396.055 72.395 414.205 72.395 414.205C72.395 414.205 72.5019 414.01 72.7004 413.661C71.6123 416.128 74.8538 425.395 76.6139 425.536C77.198 425.586 78.2785 424.713 79.5194 423.41C81.688 425.096 85.7541 427.176 93.371 428.942C100.625 430.623 117.886 424.322 117.886 424.322H117.86C120.757 423.265 126.316 416.626 125.614 415.121ZM96.8377 422.177C91.1642 420.491 87.4264 418.101 85.1471 416.193C86.0443 414.81 86.6475 413.692 86.6743 413.24C86.8117 411.554 74.6285 411.079 72.8493 413.408C74.3765 410.727 79.5576 401.989 84.7997 396.998C89.0911 392.91 93.0198 390.869 95.8069 389.834C96.5705 391.305 97.2158 392.386 97.5861 392.646C98.8002 393.489 103.943 385.647 104.458 381.87C106.131 384.766 110.88 393.362 112.526 400.258C113.759 405.414 113.736 409.509 113.354 412.416C111.674 412.324 110.38 412.359 109.964 412.554C108.513 413.244 113.591 423.081 116.584 424.356C113.095 424.333 103.485 424.134 96.8377 422.177Z" fill="white"/>
</g>
<path d="M313.202 113.372L323.407 119.341L305.119 67.0935L295.871 63.8613L313.202 113.372Z" fill="#70BBF2"/>
<path d="M326.076 58.6973L305.119 67.0914L323.407 119.339L344.094 110.18L326.076 58.6973Z" fill="#5D98A8"/>
<path d="M295.871 63.861L305.119 67.0932L300.722 59.334L295.871 63.861Z" fill="#5D98A8"/>
<path d="M316.141 47.1738L298.745 53.6805L300.722 59.3331L318.578 53.0829L316.141 47.1738Z" fill="#5D98A8"/>
<path d="M318.297 52.4297L300.722 59.3323L305.119 67.0915L326.076 58.6973L318.297 52.4297Z" fill="#70BBF2"/>
<path d="M352.404 8.7291C350.919 8.17205 349.32 7.98368 347.746 8.18015C346.172 8.37662 344.668 8.95206 343.365 9.85712L345.278 10.8532C343.004 12.4194 342.04 15.6417 343.084 18.199C340.79 17.203 338.298 16.7871 335.833 16.3762C335.113 18.7316 334.675 21.164 334.528 23.6225C334.464 24.0515 334.528 24.4897 334.712 24.8825C334.952 25.2107 335.275 25.4687 335.648 25.6295L340.629 28.3462C340.84 28.4608 341.074 28.5952 341.127 28.8443C341.132 28.9537 341.116 29.0631 341.079 29.1661C341.042 29.2692 340.984 29.3638 340.91 29.4444L337.1 34.8753C336.872 35.1521 336.711 35.4776 336.629 35.8265C336.598 36.1901 336.661 36.5558 336.814 36.8873C337.568 38.8659 338.913 40.5646 340.666 41.753C342.439 42.9483 344.531 43.5583 346.582 44.1485L355.38 46.6859C356.159 46.91 357.048 47.1217 357.733 46.6859C358.194 46.3971 358.448 45.8791 358.704 45.3985C359.651 43.6162 360.894 42.0078 362.38 40.6424C362.586 40.4795 362.756 40.2751 362.878 40.0423C363.154 39.4123 362.661 38.73 362.203 38.217C360.938 36.8126 359.675 35.4074 358.413 34.0013C358.194 33.7523 357.955 33.4236 358.092 33.1223C358.196 32.8733 358.483 32.7936 358.737 32.7313C359.939 32.43 361.204 32.1287 362.402 32.445C363 32.6018 363.548 32.9056 364.125 33.1173C365.527 33.6244 367.067 33.5915 368.446 33.0252C371.648 31.688 373.005 27.9727 374.019 24.6534C374.136 24.2674 374.228 23.7794 373.924 23.5154C373.78 23.4074 373.606 23.3465 373.426 23.3411C372.43 23.2315 371.449 23.7445 370.438 23.8067C369.427 23.869 368.197 23.0448 368.535 22.091C368.675 21.7832 368.89 21.5153 369.16 21.3117L373.154 17.7757C373.722 17.2777 374.302 16.7498 374.649 16.0774C375.679 14.0853 374.317 11.6525 372.589 10.2281C371.897 9.65542 371.055 8.98309 371.155 8.09163C371.216 7.76116 371.344 7.44671 371.531 7.1678L373.672 3.45255C371.643 2.24733 368.956 3.10642 367.116 4.59053C365.276 6.07464 363.951 8.10159 362.181 9.66787C361.433 8.58218 360.649 7.46412 360.315 6.18171C359.982 4.8993 360.176 3.39279 361.14 2.48389C362.171 1.51026 363.779 1.44053 364.927 0.613816C364.429 0.964922 361.13 0.145674 360.35 0.115793C359.304 0.0809313 356.832 -0.275154 355.985 0.4669C355.256 1.10686 355.026 3.25334 354.675 4.13733C354.046 5.72771 353.286 7.26351 352.404 8.7291Z" fill="#FFE9CC"/>
<path d="M372.592 10.2705C371.9 9.70031 371.058 9.02549 371.158 8.13652C371.217 7.80521 371.344 7.48978 371.531 7.21019L373.675 3.49743C371.643 2.28972 368.944 3.14881 367.119 4.63292C365.293 6.11703 363.941 8.14648 362.183 9.72521C361.424 8.63703 360.649 7.52146 360.316 6.23905C359.982 4.95664 360.176 3.45012 361.142 2.53874C361.937 1.79171 363.075 1.57507 364.081 1.13681C361.88 0.99487 358.73 1.34099 357.562 2.7504C357.24 3.13885 357.161 3.66676 357.096 4.16479C356.665 7.41439 356.384 11.0549 358.416 13.6272L350.039 13.189C351.228 14.4071 352.518 15.5217 353.896 16.5207C354.362 16.8594 354.865 17.1956 355.438 17.2678C356.01 17.34 356.543 17.1258 357.064 16.9241C358.857 16.2236 360.628 15.4691 362.378 14.6606C362.848 16.5431 361.324 18.3086 359.813 19.5263C359.256 20.0271 358.604 20.41 357.895 20.6518C355.878 21.2146 353.934 19.6558 351.884 19.2125C351.69 20.3746 351.495 21.5425 351.299 22.7161C351.199 23.3013 351.107 23.9238 351.336 24.4592C351.648 25.2063 352.489 25.5947 353.286 25.6047C354.083 25.6146 354.85 25.3083 355.575 24.9747C357.86 23.9263 360.037 22.5593 362.49 22.0015C362.756 21.9392 363.09 21.9143 363.237 22.1384C363.282 22.2395 363.303 22.3495 363.298 22.4601C363.294 22.5706 363.264 22.6786 363.212 22.7759C362.076 25.7756 360.305 28.4939 358.02 30.7443C356.937 31.8075 355.657 32.7961 354.15 32.9704C353.732 33.044 353.301 32.9766 352.925 32.7787C352.614 32.5567 352.359 32.2662 352.178 31.9296C350.739 29.666 349.364 27.3253 347.477 25.4179C345.589 23.5105 343.077 22.0538 340.395 22.0612C340.029 22.0612 339.553 22.1957 339.548 22.5593C339.548 22.8083 339.762 22.9751 339.957 23.1121C341.568 24.2501 343.236 25.5374 343.888 27.3976L339.202 25.6271C338.983 26.3567 339.782 26.9518 340.447 27.2955L345.587 29.8827C342.286 32.0039 339.664 35.0291 338.034 38.5981C341.853 36.5147 346.279 35.8279 350.55 36.6558C349.098 38.5065 347.396 40.1472 345.495 41.5314C346.7 41.7979 347.92 41.2824 349.12 40.9986C351.537 40.4314 354.079 40.7689 356.264 41.9473C356.528 42.0566 356.74 42.2636 356.854 42.525C356.899 42.7325 356.877 42.9489 356.79 43.1426C356.521 43.8896 356.005 44.5246 355.687 45.2542C355.47 45.7248 355.396 46.2484 355.472 46.7607C356.219 46.9748 357.066 47.1492 357.714 46.7358C358.174 46.4445 358.431 45.929 358.685 45.4484C359.632 43.6666 360.875 42.0584 362.36 40.6923C362.566 40.5288 362.735 40.3245 362.858 40.0922C363.135 39.4597 362.641 38.7774 362.183 38.2669L358.396 34.0487C358.174 33.7996 357.938 33.4734 358.072 33.1697C358.177 32.9206 358.463 32.8434 358.717 32.7787C359.92 32.4799 361.185 32.1786 362.385 32.4948C362.98 32.6517 363.528 32.9555 364.106 33.1672C365.507 33.6756 367.048 33.6419 368.426 33.0725C371.307 31.8698 372.694 28.7422 373.683 25.7118C372.856 25.6196 372.072 26.0429 371.277 26.2969C368.954 27.044 366.088 26.0479 365.034 23.8566C363.981 21.6653 365.301 18.5577 367.699 18.1144C368.463 17.975 369.253 18.0845 370.027 18.0024C371.272 17.8729 372.395 17.2553 373.486 16.6726L374.669 16.0302C375.645 14.0505 374.288 11.6725 372.592 10.2705Z" fill="#EDD9C0"/>
<path d="M361.555 13.0717C363.28 12.1147 365.086 11.3138 366.954 10.6787C365.645 14.1764 364.556 17.7525 363.694 21.3862C364.802 18.1491 367.474 15.6266 368.729 12.4218C368.828 12.207 368.879 11.9734 368.878 11.737C368.851 11.5232 368.784 11.3164 368.682 11.1269C368.275 10.2637 367.87 9.3988 367.467 8.53224C366.501 9.36515 365.442 10.0837 364.312 10.6737C363.565 11.0722 362.671 11.4208 361.856 11.1469C361.41 10.9683 361.009 10.6937 360.681 10.3426C359.611 9.32233 358.666 8.1779 357.867 6.93359C358.515 7.92964 358.729 9.1996 359.384 10.2181C360.037 11.2208 360.763 12.1745 361.555 13.0717Z" fill="#DBC8B9"/>
<path d="M352.464 35.8712L362.945 26.3789L355.853 34.1829C355.485 34.5888 355.106 35.0345 355.034 35.5774C354.892 36.7702 356.334 37.7239 356.182 38.9166C354.846 37.6841 353.197 36.8425 351.416 36.4838C350.985 36.3991 350.519 36.3294 350.193 36.0331C349.997 35.8228 349.835 35.5824 349.715 35.3209C348.964 33.9848 347.733 32.9843 346.271 32.522C344.355 34.4732 342.1 36.061 339.618 37.2084C341.523 35.4155 343.44 33.7596 345.479 32.1361C346 31.7227 346.523 31.1002 347.15 31.2023C347.606 31.2745 348.55 32.4473 348.918 32.7735L352.464 35.8712Z" fill="#DBC8B9"/>
<path d="M347.205 15.5376C348.353 17.5982 349.297 19.7668 350.021 22.0119C350.33 20.9162 350.638 19.8214 350.945 18.7274C349.583 17.7314 348.704 16.2149 347.847 14.7433C347.197 13.6202 346.577 12.4598 345.875 11.3691C345.295 12.7611 346.565 14.3897 347.205 15.5376Z" fill="#FFFAE3"/>
<path d="M353.403 28.7961C352.873 28.3287 352.268 27.9556 351.612 27.6929C352.62 28.9457 353.506 30.2924 354.257 31.7145C356.58 29.1696 359.613 26.6072 361.478 23.7461C360.37 23.9777 354.172 29.5879 353.403 28.7961Z" fill="#FFFAE3"/>
<path d="M338.044 24.1679C338.365 22.7735 338.946 21.4522 339.757 20.2734C339.12 20.4278 338.564 19.8501 338.166 19.3321C337.322 18.239 336.137 16.5556 336.381 19.0308C336.465 19.8725 336.834 20.744 337.098 21.5433C337.272 22.1086 338.156 23.645 338.044 24.1679Z" fill="#FFFAE3"/>
<path d="M313.486 180.27C313.486 180.27 331.288 206.951 331.288 207.068C331.288 207.185 380 172.565 380 172.565L362.198 146.73L313.486 180.27Z" fill="#F2D4AE"/>
<path d="M313.486 180.268L300.082 172.068L313.486 192.699L331.288 207.067L313.486 180.268Z" fill="#D8BC9E"/>
<path d="M300.082 172.069L344.072 143.564L362.198 146.729L313.486 180.269L300.082 172.069Z" fill="#C6AB93"/>
<path d="M344.072 143.565L347.845 131.889H365.326L362.198 147.549L344.072 143.565Z" fill="#F2D4AE"/>
<path d="M300.082 172.066L292.562 186.215C292.562 186.215 306.626 198.26 306.626 197.906C306.626 197.553 313.486 180.266 313.486 180.266L300.082 172.066Z" fill="#F2D4AE"/>
<g clip-path="url(#clip1_130_17135)">
<path d="M390.464 236.566C389.261 231.649 386.438 227.276 382.448 224.151C378.459 221.025 373.534 219.327 368.462 219.328H290.515C285.443 219.329 280.518 221.028 276.529 224.154C272.539 227.279 269.715 231.65 268.508 236.566L257.037 283.235H401.955L390.464 236.566Z" fill="#516BBF"/>
<path d="M253.322 283.236H403.137C405.58 283.236 407.923 284.205 409.65 285.929C411.377 287.653 412.348 289.992 412.348 292.43V310.886H244.107V292.43C244.107 291.222 244.345 290.026 244.808 288.911C245.272 287.795 245.95 286.781 246.806 285.928C247.662 285.074 248.678 284.397 249.796 283.935C250.914 283.473 252.112 283.236 253.322 283.236Z" fill="#516BBF"/>
<path d="M329.956 310.871H257.037L279.177 479.483C279.402 481.192 280.241 482.761 281.539 483.897C282.837 485.034 284.505 485.661 286.231 485.662H372.779C374.507 485.662 376.175 485.036 377.474 483.899C378.773 482.762 379.613 481.192 379.837 479.483L401.974 310.871H329.956Z" fill="#516BBF"/>
<path d="M371.789 263.278L365.856 234.812C365.34 232.34 363.987 230.12 362.024 228.527C360.062 226.933 357.609 226.063 355.079 226.062H301.372C298.842 226.063 296.389 226.933 294.427 228.527C292.464 230.12 291.111 232.34 290.595 234.812L284.669 263.278C284.337 264.876 284.366 266.529 284.753 268.115C285.141 269.702 285.878 271.182 286.91 272.449C287.942 273.715 289.244 274.737 290.722 275.438C292.199 276.14 293.814 276.504 295.45 276.505H361.02C362.655 276.503 364.269 276.137 365.745 275.435C367.221 274.732 368.521 273.711 369.552 272.444C370.583 271.178 371.319 269.698 371.706 268.113C372.093 266.527 372.121 264.876 371.789 263.278Z" fill="#2F436B"/>
<path d="M329.956 310.871H257.037L257.662 315.625C291.052 321.371 326.226 316.816 358.257 327.803C366.516 330.634 375.028 335.054 378.72 342.953C380.609 347.006 381.023 351.564 381.334 356.023C383.338 384.721 382.27 413.551 378.148 442.022C377.035 449.714 375.569 457.69 370.933 463.934C362.333 475.518 346.01 477.502 331.58 478.138C320.043 478.651 308.453 478.931 296.974 477.701C291.309 477.096 285.529 476.069 280.67 473.105C279.768 472.554 278.908 471.937 278.099 471.258L279.177 479.483C279.402 481.192 280.241 482.761 281.539 483.897C282.837 485.034 284.505 485.661 286.231 485.662H372.779C374.507 485.662 376.175 485.036 377.474 483.899C378.773 482.762 379.613 481.192 379.837 479.483L401.974 310.871H329.956Z" fill="#435C9B"/>
<path opacity="0.12" d="M266.171 327.494C264.858 330.321 265.446 333.624 266.044 336.688C272.08 367.538 276.712 398.618 279.941 429.927C280.325 433.539 282.075 438.316 285.664 437.707C288.979 437.14 289.417 432.597 288.999 429.28C285.399 400.584 280.202 371.819 282.09 342.951C282.34 339.144 282.704 335.244 281.653 331.574C279.957 325.61 269.951 319.339 266.171 327.494Z" fill="white"/>
<path opacity="0.12" d="M248.739 289.824C248.839 291.564 250.428 292.924 252.121 293.356C253.813 293.789 255.575 293.51 257.317 293.253C274.845 290.663 292.649 290.955 310.364 290.817C311.099 290.866 311.834 290.735 312.506 290.434C313.147 290.081 313.603 289.284 313.315 288.606C313.028 287.928 312.13 287.71 311.37 287.622C307.82 287.216 304.235 287.239 300.658 287.239L271.559 287.277C268.167 287.281 248.455 284.948 248.739 289.824Z" fill="white"/>
<path d="M365.86 234.812C365.344 232.34 363.991 230.12 362.028 228.527C360.065 226.933 357.613 226.063 355.083 226.062H301.372C298.842 226.063 296.389 226.933 294.427 228.527C292.464 230.12 291.111 232.34 290.595 234.812L284.669 263.278C284.337 264.876 284.366 266.529 284.753 268.115C285.141 269.702 285.878 271.182 286.91 272.449C287.942 273.715 289.244 274.737 290.722 275.438C292.199 276.14 293.814 276.504 295.45 276.505H309.746C307.741 273.158 306.874 269.253 307.274 265.373C308.303 256.685 315.104 249.472 323.067 245.814C331.031 242.155 340.035 241.508 348.804 241.531C355.221 241.531 362.237 242.24 367.959 244.841L365.86 234.812Z" fill="#1F2D44"/>
<path d="M358.272 386.121C358.023 385.592 356.737 385.09 354.991 384.665C355.183 381.865 354.768 377.513 352.73 370.848C350.811 364.615 339.797 354.793 337.029 352.399C337.046 352.108 337.003 351.816 336.903 351.541C335.947 349.243 325.523 347.224 324.468 348.737C324.13 349.22 324.345 350.595 324.852 352.323C322.3 353.364 318.45 355.858 313.089 361.593C307.984 367.055 304.776 385.205 304.776 385.205C304.776 385.205 304.883 385.01 305.083 384.661C303.989 387.128 307.247 396.395 309.017 396.536C309.604 396.586 310.69 395.713 311.937 394.41C314.117 396.096 318.205 398.176 325.861 399.942C333.153 401.623 350.504 395.322 350.504 395.322H350.47C353.39 394.265 358.978 387.626 358.272 386.121ZM329.346 393.177C323.643 391.491 319.886 389.101 317.594 387.193C318.496 385.81 319.103 384.692 319.13 384.24C319.268 382.554 307.021 382.079 305.233 384.408C306.768 381.727 311.976 372.989 317.241 367.998C321.555 363.91 325.508 361.869 328.31 360.834C329.058 362.305 329.726 363.386 330.098 363.646C331.319 364.489 336.488 356.647 337.006 352.87C338.687 355.766 343.462 364.362 345.112 371.258C346.355 376.414 346.332 380.509 345.949 383.416C344.26 383.324 342.959 383.359 342.541 383.554C341.082 384.244 346.187 394.081 349.195 395.356C345.691 395.333 336.028 395.134 329.346 393.177Z" fill="white"/>
<path d="M311.477 411.877H314.966C315.696 411.853 316.427 411.928 317.138 412.1C317.574 412.201 317.973 412.423 318.289 412.739C318.55 413.025 318.729 413.376 318.807 413.755C318.917 414.362 318.964 414.98 318.946 415.597V416.746C318.98 417.376 318.89 418.006 318.681 418.6C318.484 419.011 318.138 419.331 317.714 419.497C317.128 419.724 316.503 419.83 315.875 419.807H314.946V425.17H311.492L311.477 411.877ZM314.931 414.153V417.535H315.188C315.309 417.548 315.431 417.534 315.545 417.493C315.659 417.453 315.763 417.388 315.848 417.302C316.003 417.002 316.067 416.664 316.033 416.329V415.237C316.073 414.925 315.998 414.609 315.821 414.348C315.558 414.186 315.247 414.117 314.939 414.153H314.931Z" fill="white"/>
<path d="M325.497 411.877L327.477 425.169H323.938L323.754 422.779H322.515L322.307 425.169H318.727L320.492 411.877H325.497ZM323.662 420.423C323.486 418.919 323.31 417.059 323.136 414.842C322.783 417.396 322.561 419.256 322.468 420.423H323.662Z" fill="white"/>
<path d="M328.064 411.878H331.553C332.285 411.853 333.017 411.928 333.729 412.1C334.165 412.203 334.563 412.424 334.88 412.739C335.138 413.027 335.317 413.377 335.398 413.755C335.505 414.363 335.55 414.98 335.533 415.597V416.746C335.568 417.376 335.478 418.006 335.268 418.6C335.074 419.011 334.729 419.332 334.305 419.497C333.72 419.724 333.094 419.83 332.466 419.807H331.538V425.17H328.084L328.064 411.878ZM331.518 414.153V417.535H331.772C331.892 417.549 332.014 417.535 332.129 417.494C332.243 417.454 332.347 417.388 332.432 417.302C332.59 417.003 332.656 416.665 332.62 416.329V415.237C332.66 414.925 332.583 414.608 332.405 414.348C332.144 414.186 331.835 414.117 331.53 414.153H331.518Z" fill="white"/>
<path d="M336.519 411.877H342.295V414.535H339.992V417.056H342.157V419.584H339.992V422.507H342.537V425.189H336.519V411.877Z" fill="white"/>
<path d="M343.519 411.878H345.972C347.08 411.844 348.19 411.907 349.288 412.066C349.867 412.193 350.374 412.539 350.704 413.031C351.088 413.548 351.249 414.376 351.249 415.506C351.249 416.54 351.121 417.236 350.865 417.593C350.604 417.946 350.098 418.16 349.33 418.233C349.85 418.313 350.332 418.551 350.712 418.915C350.914 419.134 351.065 419.396 351.153 419.681C351.233 420.333 351.261 420.99 351.237 421.646V425.155H348.021V420.757C348.065 420.31 348.007 419.858 347.852 419.436C347.741 419.264 347.446 419.179 346.97 419.179V425.174H343.516L343.519 411.878ZM346.974 414.153V417.107C347.256 417.131 347.539 417.076 347.791 416.946C347.948 416.843 348.025 416.494 348.025 415.908V415.18C348.045 415.034 348.035 414.885 347.997 414.742C347.959 414.599 347.893 414.466 347.803 414.349C347.558 414.195 347.269 414.126 346.981 414.153H346.974Z" fill="white"/>
</g>
<defs>
<clipPath id="clip0_130_17135">
<rect width="192" height="176" fill="white" transform="translate(0 240.51)"/>
</clipPath>
<clipPath id="clip1_130_17135">
<rect width="193" height="205" fill="white" transform="translate(232 211.51)"/>
</clipPath>
</defs>
</svg>
