<svg width="425" height="409" viewBox="0 0 425 409" fill="none" xmlns="http://www.w3.org/2000/svg">
<path d="M298.581 58.38C300.142 59.2505 301.606 59.8292 302.322 61.0165C303.804 63.461 305.38 70.9491 305.38 70.9491L313.634 69.2828C313.634 69.2828 312.162 61.7748 312.571 58.9462C312.769 57.5718 313.891 56.4668 314.989 55.055C317.54 52.3661 320.526 48.4749 318.585 42.6455C316.645 36.8162 311.524 26.3922 311.404 22.1394C311.309 18.8069 311.464 11.0295 311.464 11.0295L310.042 4.04525C310.042 4.04525 309.062 -0.778848 305.35 0.111639C302.093 0.892375 303.467 4.22983 301.699 4.49424C299.93 4.75864 300.227 3.33435 298.85 2.43139C297.241 1.37378 293.861 2.05973 292.791 3.66361C291.878 5.03302 292.706 6.23031 290.975 6.6768C289.244 7.1233 289.204 3.51395 285.902 4.0677C282.138 4.69628 283.121 9.52287 283.121 9.52287L284.66 16.4772C285.575 18.525 287.81 23.5811 289.025 26.6866C290.576 30.6501 289.933 42.2339 290.422 48.3601C290.91 54.4863 295.181 56.9033 298.581 58.38Z" fill="#AADBFB"/>
<path d="M298.568 58.363C300.127 59.2336 301.594 59.8123 302.31 60.9996C303.791 63.4416 305.37 70.9321 305.37 70.9321L308.149 70.3659C308.149 70.3659 306.573 62.8828 305.091 60.4334C304.37 59.2461 302.906 58.6674 301.349 57.7968C297.95 56.3202 293.682 53.9031 293.19 47.7795C292.699 41.6558 293.345 30.0695 291.794 26.1035C290.586 23.0005 288.341 17.9444 287.436 15.904L285.897 8.94721C285.897 8.94721 285.201 5.53244 287.224 4.07323C286.786 3.98601 286.335 3.98601 285.897 4.07323C282.135 4.70181 283.116 9.52591 283.116 9.52591L284.657 16.4827C285.57 18.5306 287.805 23.5866 289.02 26.6896C290.574 30.6532 289.928 42.2395 290.419 48.3631C290.911 54.4868 295.176 56.8864 298.568 58.363Z" fill="#85C2F9"/>
<path d="M286.358 6.31067C289.661 5.75942 289.701 9.36627 291.432 8.91978C293.163 8.47329 292.335 7.27599 293.248 5.90658C294.328 4.3052 297.698 3.61676 299.317 4.67936C300.693 5.58232 300.397 7.0091 302.165 6.7422C303.934 6.47531 302.559 3.13784 305.802 2.35461C309.514 1.46413 310.494 6.28823 310.494 6.28823L310.037 4.0433C310.037 4.0433 309.057 -0.780801 305.345 0.109686C302.088 0.890422 303.462 4.22788 301.694 4.49228C299.925 4.75669 300.222 3.3324 298.845 2.42944C297.236 1.37183 293.856 2.05778 292.786 3.66166C291.873 5.03106 292.701 6.22836 290.97 6.67485C289.239 7.12134 289.199 3.51199 285.897 4.06574C282.133 4.69432 283.116 9.52091 283.116 9.52091L283.57 11.7658C283.57 11.7658 282.604 6.94174 286.358 6.31067Z" fill="#85C2F9"/>
<path d="M305.482 72.0287L313.961 70.3036C314.674 70.1586 315.134 69.4632 314.989 68.7504L314.125 64.5023C313.98 63.7895 313.285 63.3292 312.572 63.4742L304.093 65.1994C303.38 65.3444 302.92 66.0397 303.065 66.7525L303.929 71.0007C304.074 71.7135 304.769 72.1737 305.482 72.0287Z" fill="#304298"/>
<path d="M303.29 64.8814L312.762 62.9483C313.013 62.897 313.175 62.6519 313.124 62.4008L313.103 62.2981C313.052 62.047 312.807 61.885 312.556 61.9362L303.083 63.8694C302.832 63.9206 302.67 64.1657 302.721 64.4168L302.742 64.5195C302.794 64.7706 303.039 64.9326 303.29 64.8814Z" fill="#304298"/>
<path d="M313.328 69.4056L314.083 69.252L312.894 63.4077L312.139 63.5613L313.328 69.4056Z" fill="#223466"/>
<path d="M311.694 69.7377L312.45 69.584L311.261 63.7397L310.505 63.8934L311.694 69.7377Z" fill="#223466"/>
<path d="M309.822 70.1205L310.577 69.9668L309.388 64.1225L308.633 64.2762L309.822 70.1205Z" fill="#223466"/>
<path d="M308.008 70.4857L308.764 70.332L307.575 64.4877L306.819 64.6414L308.008 70.4857Z" fill="#223466"/>
<path d="M306.347 70.8255L307.102 70.6719L305.913 64.8276L305.158 64.9812L306.347 70.8255Z" fill="#223466"/>
<path d="M305.016 71.0951L305.771 70.9414L304.582 65.0971L303.827 65.2508L305.016 71.0951Z" fill="#223466"/>
<path d="M305.083 71.4265L314.163 69.5806C314.221 69.5689 314.282 69.5806 314.331 69.6133C314.381 69.6461 314.415 69.6971 314.427 69.7552C314.439 69.8138 314.427 69.8746 314.395 69.9245C314.362 69.9745 314.311 70.0096 314.253 70.0221L305.173 71.868C305.115 71.8791 305.055 71.867 305.006 71.8344C304.956 71.8018 304.921 71.7512 304.909 71.6934C304.897 71.6348 304.909 71.574 304.941 71.5241C304.974 71.4741 305.025 71.4391 305.083 71.4265Z" fill="#405CC6"/>
<path opacity="0.58" d="M316.174 49.1455C316.358 48.3972 316.398 47.4767 315.777 47.0352C315.278 46.6885 314.622 46.8157 314.031 46.9554L309.045 48.1702C308.546 48.2899 308.01 48.4421 307.738 48.8711C307.59 49.1452 307.514 49.4526 307.518 49.7641C307.453 50.9989 307.609 52.2355 307.977 53.4158C308.122 53.8798 308.332 54.3712 308.758 54.6031C309.025 54.7288 309.319 54.7887 309.614 54.7777C311.025 54.8226 313.178 54.7503 314.054 53.4981C314.987 52.1537 315.78 50.7493 316.174 49.1455Z" fill="white"/>
<path opacity="0.58" d="M311.2 59.4084C311.17 59.0765 311.17 58.7426 311.2 58.4107C311.225 58.0041 311.26 57.5601 311.023 57.2283C310.901 57.0725 310.735 56.9582 310.546 56.9015C310.357 56.8447 310.154 56.8482 309.967 56.9116C309.782 56.9794 309.615 57.0911 309.482 57.2369C309.349 57.3828 309.253 57.5587 309.202 57.7497C309.148 57.98 309.126 58.2167 309.137 58.4531C309.142 58.9439 309.179 59.4339 309.249 59.9198C309.346 60.5982 309.765 61.9402 310.726 61.6982C311.686 61.4563 311.289 60.0719 311.2 59.4084Z" fill="white"/>
<path opacity="0.58" d="M309.715 10.2801C309.443 8.7195 309.089 7.17421 308.655 5.6506C308.572 5.28756 308.431 4.94046 308.236 4.62292C308.138 4.46414 308.006 4.32928 307.85 4.22827C307.693 4.12726 307.515 4.06266 307.331 4.03923C307.134 4.03589 306.94 4.08185 306.765 4.17292C306.591 4.26398 306.442 4.39726 306.333 4.56056C306.116 4.88958 305.988 5.26966 305.964 5.66307C305.846 6.76308 306.156 7.86559 306.542 8.90574C306.889 9.83364 307.398 11.7343 308.288 12.2856C309.585 13.0788 309.857 11.0983 309.715 10.2801Z" fill="white"/>
<path d="M298.943 25.0488L290.921 26.6802L291.412 29.0997L298.943 25.0488Z" fill="#85C2F9"/>
<path d="M331.684 132.123L337.009 124.697C337.543 123.968 337.808 123.076 337.757 122.173L337.585 119.584C337.554 119.049 337.39 118.531 337.108 118.075C336.826 117.62 336.436 117.242 335.971 116.975L321.956 108.801C321.455 108.526 320.902 108.361 320.333 108.318C319.763 108.275 319.192 108.355 318.656 108.551L315.969 109.464C315.067 109.773 314.283 110.353 313.724 111.126L308.399 118.549C307.824 119.321 307.557 120.28 307.651 121.238L307.713 121.799C307.806 122.739 307.553 123.68 306.999 124.446L293.393 143.917C293.101 144.332 292.742 144.696 292.33 144.994L287.977 148.14C287.595 148.418 287.258 148.755 286.98 149.137L278.803 160.237C278.452 160.691 278.208 161.219 278.091 161.78C277.973 162.342 277.983 162.923 278.122 163.48L278.399 164.478C278.622 165.297 279.16 165.996 279.896 166.421L295.017 175.238C295.801 175.679 296.715 175.833 297.601 175.675L298.721 175.49C299.321 175.388 299.894 175.167 300.408 174.841C300.922 174.514 301.366 174.089 301.714 173.589L309.549 162.278C309.806 161.908 310.002 161.498 310.127 161.065L311.527 156.186C311.664 155.713 311.884 155.268 312.178 154.872L326.281 135.69C326.875 134.89 327.711 134.303 328.666 134.016L329.259 133.839C330.235 133.551 331.087 132.947 331.684 132.123Z" fill="#29AAE3"/>
<path d="M328.666 134.013L329.259 133.836C330.231 133.546 331.08 132.943 331.674 132.12L336.999 124.694C337.533 123.965 337.798 123.073 337.747 122.17L337.575 119.581C337.549 119.145 337.435 118.719 337.24 118.329C337.045 117.939 336.773 117.591 336.44 117.309L336.558 119.077C336.607 119.98 336.343 120.873 335.809 121.604L330.484 129.025C329.889 129.845 329.04 130.448 328.069 130.738L327.476 130.915C326.521 131.201 325.685 131.789 325.091 132.589L310.98 151.778C310.686 152.175 310.465 152.621 310.327 153.095L308.93 157.972C308.804 158.406 308.607 158.816 308.349 159.186L300.514 170.498C300.166 170.997 299.722 171.422 299.208 171.749C298.694 172.075 298.121 172.296 297.521 172.399L296.401 172.584C295.515 172.743 294.602 172.587 293.819 172.145L278.696 163.33C278.441 163.18 278.207 162.997 278 162.786C278.013 163.018 278.05 163.248 278.11 163.472L278.387 164.47C278.61 165.289 279.148 165.988 279.883 166.413L295.017 175.238C295.801 175.678 296.715 175.833 297.601 175.674L298.721 175.49C299.321 175.387 299.894 175.166 300.408 174.84C300.922 174.514 301.366 174.088 301.714 173.589L309.549 162.277C309.806 161.907 310.002 161.498 310.127 161.065L311.527 156.186C311.664 155.712 311.884 155.267 312.178 154.871L326.281 135.69C326.874 134.888 327.711 134.3 328.666 134.013Z" fill="#2495BC"/>
<path opacity="0.53" d="M316.912 110.73C316.413 110.873 315.832 111.09 315.6 111.551C315.51 111.759 315.489 111.991 315.543 112.212C315.597 112.433 315.721 112.63 315.897 112.773C316.261 113.05 316.674 113.255 317.114 113.377C319.945 114.405 322.353 116.121 324.887 117.652C325.095 117.799 325.335 117.896 325.588 117.934C326.164 117.979 326.685 117.495 327.084 117.044C327.309 116.825 327.471 116.55 327.553 116.248C327.656 115.674 327.139 115.25 326.673 114.946C324.83 113.719 322.988 112.491 321.145 111.264C319.634 110.259 318.885 110.229 316.912 110.73Z" fill="white"/>
<path opacity="0.53" d="M290.651 147.795C290.591 147.841 290.545 147.902 290.517 147.972C290.477 148.095 290.564 148.204 290.649 148.292C291.37 149.012 292.3 149.514 293.221 150.008L297.688 152.402C298.046 152.64 298.468 152.763 298.898 152.757C299.214 152.704 299.507 152.557 299.737 152.334C299.967 152.111 300.124 151.824 300.187 151.509C300.229 151.217 300.201 150.919 300.107 150.64C300.014 150.36 299.856 150.106 299.646 149.898C299.222 149.488 298.738 149.145 298.209 148.883C296.134 147.703 293.251 145.466 290.651 147.795Z" fill="white"/>
<path d="M337.593 119.305L318.888 108.442L320.98 107L337.945 116.853L337.593 119.305Z" fill="#EF4538"/>
<path d="M334.777 115.057L334.432 117.469L337.655 119.342L338.007 116.888L321.043 107.035L321.008 107.06L334.777 115.057Z" fill="#CE3932"/>
<path d="M318.888 108.441L337.655 119.342L337.61 119.93L318.396 108.633L318.888 108.441Z" fill="#1B7289"/>
<path d="M330.903 129.566C329.617 130.048 328.216 130.135 326.88 129.815C325.588 129.536 324.405 128.992 323.235 128.451L316.673 125.423C316.02 125.071 315.306 124.846 314.57 124.757C314.296 124.719 314.018 124.784 313.789 124.939C313.661 125.05 313.573 125.201 313.538 125.368C313.504 125.535 313.526 125.708 313.6 125.862C313.764 126.141 313.998 126.374 314.278 126.538C316.81 128.299 319.564 129.78 322.188 131.414C322.819 131.766 323.387 132.223 323.866 132.764C324.103 133.041 324.272 133.37 324.359 133.724C324.445 134.079 324.448 134.449 324.365 134.804C324.275 135.113 324.126 135.402 323.926 135.655C323.874 135.722 323.814 135.812 323.857 135.877C323.899 135.941 324.044 135.822 323.964 135.802L330.903 129.566Z" fill="#2495BC"/>
<path d="M328.333 210.296C326.881 209.977 325.377 209.613 323.931 209.942C322.484 210.271 321.124 211.543 321.257 213.022C321.371 214.307 322.489 215.225 323.252 216.265C324.015 217.305 324.295 219.066 323.147 219.657C321.541 219.131 319.598 220.156 319.116 221.765C318.635 223.374 319.7 225.3 321.334 225.739C322.187 225.968 323.477 226.31 323.19 227.148C323.087 227.445 322.796 227.622 322.546 227.814C320.8 229.156 321.084 232.331 323.045 233.342C323.903 233.788 324.906 233.84 325.874 233.865L330.363 234.03C333.05 234.127 336.013 234.132 338.054 232.386C340.503 230.291 340.598 226.619 341.703 223.594C342.309 221.937 343.416 220.286 345.115 219.815C345.933 219.588 346.804 219.657 347.634 219.483C348.954 219.206 350.061 218.338 351.094 217.467C354.185 214.857 357.05 211.989 359.657 208.894C362.022 206.091 364.274 202.788 364.13 199.124C363.94 194.342 359.732 190.446 359.488 185.667C359.221 180.429 363.646 176.303 365.724 171.494C366.377 169.967 366.749 168.064 365.724 166.754C365.115 165.974 364.142 165.59 363.229 165.238L358.378 163.397C356.791 162.796 355.15 162.185 353.456 162.27C350.463 162.419 348.039 164.667 346.018 166.879C344.699 168.326 343.428 169.815 342.204 171.347C341.631 172.067 341.052 172.826 340.825 173.719C340.641 174.612 340.698 175.538 340.989 176.403C342.287 180.873 346.332 183.886 349.006 187.707C349.407 188.237 349.724 188.826 349.944 189.453C350.194 190.286 350.176 191.174 350.144 192.045C350.071 194.013 349.989 196.036 349.238 197.852C348.488 199.668 346.916 201.286 344.96 201.516C344.527 201.532 344.094 201.582 343.668 201.666C342.441 202.012 341.81 203.367 341.551 204.614C341.291 205.861 341.219 207.211 340.476 208.246C338.325 211.227 331.513 211.002 328.333 210.296Z" fill="#AADBFB"/>
<path d="M345.484 161.592C348.228 159.724 351.91 159.684 354.574 157.721C356.121 160.314 357.47 163.021 358.61 165.817C358.68 165.951 358.705 166.103 358.682 166.251C358.648 166.334 358.598 166.408 358.535 166.471C358.472 166.534 358.398 166.584 358.315 166.618C356.328 167.719 354.051 168.185 351.79 167.955C350.141 167.79 348.869 167.174 347.939 165.847C347.632 165.411 345.689 161.445 345.484 161.592Z" fill="#AADBFB"/>
<path d="M353.77 153.402L344.699 156.046C343.936 156.269 343.498 157.068 343.72 157.831L345.045 162.376C345.267 163.139 346.066 163.578 346.829 163.355L355.901 160.711C356.664 160.489 357.102 159.69 356.88 158.927L355.555 154.381C355.332 153.618 354.533 153.18 353.77 153.402Z" fill="#304298"/>
<path d="M356.662 161.132L346.525 164.087C346.256 164.165 346.102 164.446 346.18 164.715L346.212 164.825C346.291 165.093 346.572 165.247 346.84 165.169L356.977 162.215C357.245 162.136 357.4 161.855 357.321 161.587L357.289 161.477C357.211 161.208 356.93 161.054 356.662 161.132Z" fill="#304298"/>
<path d="M345.468 156.973L344.658 157.209L346.481 163.464L347.291 163.228L345.468 156.973Z" fill="#223466"/>
<path d="M347.216 156.455L346.406 156.691L348.229 162.946L349.039 162.71L347.216 156.455Z" fill="#223466"/>
<path d="M349.218 155.883L348.408 156.119L350.231 162.374L351.041 162.138L349.218 155.883Z" fill="#223466"/>
<path d="M351.161 155.307L350.352 155.543L352.175 161.798L352.985 161.562L351.161 155.307Z" fill="#223466"/>
<path d="M352.938 154.789L352.129 155.025L353.952 161.28L354.761 161.044L352.938 154.789Z" fill="#223466"/>
<path d="M354.359 154.385L353.55 154.621L355.373 160.876L356.182 160.64L354.359 154.385Z" fill="#223466"/>
<path d="M354.267 153.998L344.539 156.831C344.476 156.849 344.41 156.841 344.353 156.81C344.296 156.778 344.254 156.726 344.234 156.664C344.217 156.602 344.225 156.535 344.256 156.478C344.288 156.422 344.34 156.379 344.402 156.36L354.117 153.526C354.18 153.509 354.246 153.517 354.303 153.548C354.36 153.58 354.402 153.632 354.421 153.694C354.439 153.754 354.433 153.82 354.404 153.876C354.376 153.933 354.326 153.976 354.267 153.998Z" fill="#405CC6"/>
<path d="M358.969 163.635C358.852 164.134 358.737 164.633 358.62 165.131C358.49 165.69 358.388 166.356 358.784 166.768C359.236 167.239 360.009 167.062 360.652 167.179C361.974 167.429 362.673 169.048 362.344 170.352C362.014 171.657 360.957 172.642 359.849 173.41C357.62 174.926 355.048 175.862 352.365 176.132C349.683 176.402 346.976 175.998 344.489 174.957C344.01 175.782 344.988 176.69 345.848 177.089C349.614 178.803 353.884 179.047 357.821 177.775C357.751 178.84 357.468 179.88 356.99 180.834C356.512 181.788 355.848 182.636 355.038 183.33C354.274 183.974 353.292 184.642 353.309 185.64C353.309 186.186 353.628 186.673 353.918 187.137C355.791 190.13 357.043 193.941 355.596 197.166C354.474 199.661 351.965 201.277 350.59 203.652C350.109 204.482 349.842 205.69 350.59 206.291C351.468 206.994 352.715 206.161 353.514 205.37L357.602 201.317C358.071 200.851 358.754 200.349 359.33 200.676C360.006 201.065 359.73 202.093 359.35 202.774C357.439 206.204 355.019 209.326 352.174 212.033C350.677 213.44 348.61 214.812 346.746 213.971C344.407 212.916 344.574 209.456 342.913 207.501L338.009 220.252C337.687 221.087 336.741 222.083 336.115 221.444C335.923 221.191 335.827 220.876 335.846 220.559C335.809 219.863 335.786 219.132 335.434 218.531C335.083 217.93 334.277 217.533 333.671 217.872C334.236 220.418 334.804 222.963 335.375 225.507C335.547 226.281 335.714 227.101 335.444 227.845C335.195 228.501 334.656 228.995 334.068 229.369C331.468 231.022 327.739 230.598 325.587 228.403C327.006 227.226 326.774 224.622 325.173 223.711C323.781 222.921 322.045 223.407 320.451 223.265C319.942 223.211 319.452 223.04 319.019 222.766C319.096 224.101 320.039 225.398 321.346 225.759C322.199 225.989 323.489 226.331 323.202 227.166C323.102 227.463 322.808 227.64 322.559 227.832C320.812 229.177 321.097 232.349 323.057 233.362C323.918 233.806 324.921 233.861 325.886 233.886L330.376 234.051C333.06 234.148 336.023 234.153 338.066 232.407C340.513 230.312 340.608 226.64 341.713 223.612C342.319 221.955 343.426 220.307 345.128 219.835C345.943 219.608 346.816 219.678 347.644 219.504C348.964 219.227 350.074 218.359 351.104 217.488C354.196 214.877 357.063 212.009 359.672 208.915C362.037 206.111 367.904 200.332 367.759 196.668C367.569 191.886 359.745 190.464 359.5 185.692C359.236 180.467 363.661 176.329 365.736 171.519C366.389 169.993 366.764 168.087 365.736 166.78C365.127 166.002 364.157 165.618 363.242 165.266L358.969 163.635Z" fill="#85C2F9"/>
<path opacity="0.58" d="M354.551 173.402C355.165 173.17 355.836 172.689 355.756 172.038C355.676 171.387 354.916 171.092 354.282 171.142C353.648 171.192 353.035 171.474 352.411 171.491C350.269 171.546 349.495 168.748 347.607 168.865C346.707 168.917 344.028 170.406 344.033 171.477C344.045 174.415 352.808 174.063 354.551 173.402Z" fill="white"/>
<path opacity="0.58" d="M323.599 213.187C324.265 214.474 326.113 214.337 327.45 214.893C329.239 215.642 330.082 217.695 330.414 219.603C330.745 221.511 330.77 223.534 331.691 225.24C332.212 224.584 332.282 223.669 332.155 222.84C332.027 222.012 331.731 221.214 331.601 220.386C331.494 219.481 331.486 218.567 331.578 217.66C331.641 216.709 331.878 215.532 332.801 215.295C333.609 215.085 334.347 215.774 334.898 216.4C335.472 215.901 336.106 215.273 335.959 214.534C335.826 213.886 335.113 213.507 334.462 213.474C333.811 213.442 333.157 213.661 332.504 213.763C331.281 213.954 330.03 213.738 328.942 213.15C328.194 212.746 327.555 212.18 326.799 211.808C325.869 211.354 322.616 211.287 323.599 213.187Z" fill="white"/>
<g clip-path="url(#clip0_130_17134)">
<path d="M390.659 258.056C389.458 253.14 386.649 248.769 382.68 245.644C378.711 242.519 373.812 240.82 368.766 240.818H291.211C286.166 240.82 281.267 242.519 277.298 245.644C273.329 248.769 270.52 253.14 269.319 258.056L257.888 304.726H402.074L390.659 258.056Z" fill="#F98715"/>
<path d="M254.207 304.727H403.258C405.688 304.727 408.019 305.695 409.737 307.419C411.456 309.143 412.421 311.482 412.421 313.92V332.376H245.044V313.92C245.044 311.482 246.01 309.143 247.728 307.419C249.447 305.695 251.777 304.727 254.207 304.727Z" fill="#F98715"/>
<path d="M330.449 332.361H257.907L279.933 500.973C280.156 502.682 280.99 504.252 282.282 505.389C283.573 506.526 285.233 507.152 286.951 507.152H373.05C374.768 507.152 376.428 506.526 377.719 505.389C379.01 504.252 379.845 502.682 380.068 500.973L402.093 332.361H330.449Z" fill="#F98715"/>
<path d="M372.065 284.768L366.166 256.302C365.653 253.829 364.306 251.609 362.353 250.016C360.4 248.422 357.959 247.552 355.441 247.553H302.013C299.496 247.553 297.055 248.423 295.103 250.016C293.15 251.61 291.804 253.83 291.292 256.302L285.389 284.768C285.058 286.367 285.086 288.02 285.471 289.606C285.856 291.193 286.589 292.674 287.616 293.94C288.643 295.207 289.939 296.229 291.409 296.93C292.879 297.631 294.486 297.995 296.114 297.995H361.344C362.972 297.995 364.579 297.632 366.049 296.93C367.518 296.229 368.814 295.207 369.841 293.94C370.868 292.673 371.6 291.193 371.985 289.606C372.37 288.019 372.397 286.367 372.065 284.768Z" fill="#B25400"/>
<path d="M330.449 332.361H257.907L258.529 337.115C291.746 342.861 326.734 338.307 358.603 349.293C366.819 352.124 375.287 356.544 378.956 364.443C380.839 368.496 381.247 373.055 381.56 377.514C383.552 406.212 382.49 435.041 378.391 463.513C377.284 471.205 375.826 479.18 371.214 485.424C362.654 497.008 346.42 498.992 332.06 499.628C320.583 500.142 309.057 500.421 297.633 499.192C292.002 498.586 286.252 497.56 281.414 494.595C280.517 494.044 279.662 493.426 278.856 492.748L279.933 500.973C280.156 502.682 280.99 504.252 282.282 505.389C283.573 506.526 285.233 507.152 286.951 507.152H373.05C374.768 507.152 376.428 506.526 377.719 505.389C379.01 504.252 379.845 502.682 380.068 500.973L402.093 332.361H330.449Z" fill="#F76C0D"/>
<path opacity="0.12" d="M266.994 348.985C265.688 351.812 266.272 355.114 266.868 358.178C272.87 389.028 277.478 420.108 280.693 451.417C281.075 455.03 282.816 459.806 286.382 459.197C289.684 458.63 290.12 454.087 289.703 450.77C286.118 422.074 280.953 393.31 282.831 364.441C283.079 360.634 283.442 356.734 282.396 353.064C280.701 347.1 270.774 340.829 266.994 348.985Z" fill="white"/>
<path opacity="0.12" d="M249.653 311.315C249.752 313.054 251.333 314.414 253.013 314.847C254.692 315.28 256.449 315 258.186 314.743C275.623 312.154 293.334 312.445 310.958 312.307C311.689 312.356 312.42 312.225 313.089 311.924C313.726 311.571 314.181 310.775 313.894 310.097C313.608 309.419 312.714 309.2 311.958 309.112C308.423 308.706 304.857 308.729 301.302 308.729L272.354 308.767C268.956 308.771 249.37 306.438 249.653 311.315Z" fill="white"/>
<path d="M366.166 256.302C365.653 253.829 364.306 251.609 362.353 250.016C360.4 248.422 357.959 247.552 355.441 247.553H302.013C299.496 247.553 297.055 248.423 295.103 250.016C293.15 251.61 291.804 253.83 291.292 256.302L285.389 284.768C285.058 286.367 285.086 288.02 285.471 289.606C285.856 291.193 286.589 292.674 287.616 293.94C288.643 295.207 289.939 296.229 291.409 296.93C292.879 297.631 294.486 297.995 296.114 297.995H310.336C308.339 294.649 307.476 290.743 307.877 286.863C308.9 278.175 315.662 270.962 323.588 267.304C331.514 263.645 340.467 262.998 349.191 263.021C355.575 263.021 362.554 263.73 368.243 266.331L366.166 256.302Z" fill="#7F3900"/>
<path d="M358.618 407.611C358.37 407.082 357.091 406.58 355.35 406.155C355.544 403.355 355.132 399.003 353.101 392.338C351.192 386.105 340.238 376.284 337.485 373.889C337.503 373.597 337.458 373.305 337.356 373.031C336.409 370.733 326.039 368.714 324.989 370.227C324.653 370.71 324.867 372.085 325.371 373.813C322.832 374.855 319.006 377.348 313.669 383.083C308.595 388.546 305.403 406.695 305.403 406.695C305.403 406.695 305.51 406.5 305.708 406.151C304.62 408.618 307.862 417.885 309.622 418.027C310.206 418.076 311.286 417.203 312.527 415.901C314.696 417.586 318.762 419.666 326.379 421.432C333.633 423.114 350.89 416.812 350.89 416.812H350.86C353.761 415.755 359.32 409.116 358.618 407.611ZM329.838 414.667C324.164 412.982 320.43 410.591 318.151 408.683C319.048 407.301 319.648 406.182 319.678 405.73C319.816 404.045 307.629 403.57 305.853 405.899C307.381 403.217 312.562 394.479 317.8 389.488C322.091 385.401 326.024 383.359 328.807 382.325C329.571 383.796 330.216 384.876 330.59 385.136C331.804 385.979 336.943 378.138 337.462 374.361C339.131 377.257 343.881 385.853 345.526 392.748C346.763 397.904 346.736 401.999 346.358 404.906C344.678 404.815 343.384 404.849 342.968 405.044C341.517 405.734 346.595 415.571 349.588 416.847C346.095 416.824 336.489 416.625 329.838 414.667Z" fill="white"/>
</g>
<g clip-path="url(#clip1_130_17134)">
<path d="M158.464 229.244C157.258 224.327 154.434 219.957 150.444 216.831C146.454 213.706 141.53 212.007 136.458 212.006H58.5109C53.4391 212.005 48.5137 213.703 44.5241 216.828C40.5345 219.954 37.7118 224.326 36.5083 229.244L25.01 275.913H169.955L158.464 229.244Z" fill="#EA381B"/>
<path d="M21.318 275.914H171.133C173.576 275.914 175.919 276.883 177.646 278.607C179.374 280.331 180.344 282.669 180.344 285.108V303.564H12.1071V285.108C12.1071 282.669 13.0775 280.331 14.8049 278.607C16.5322 276.883 18.8751 275.914 21.318 275.914Z" fill="#EA381B"/>
<path d="M97.9565 303.549H25.01L47.1545 472.16C47.3791 473.87 48.219 475.44 49.5177 476.576C50.8163 477.713 52.485 478.34 54.2124 478.339H140.76C142.488 478.341 144.158 477.715 145.457 476.578C146.757 475.441 147.597 473.871 147.822 472.16L169.963 303.549H97.9565Z" fill="#EA381B"/>
<path d="M139.789 255.955L133.856 227.49C133.341 225.017 131.988 222.797 130.025 221.204C128.062 219.61 125.609 218.74 123.079 218.74H69.3682C66.8383 218.741 64.3857 219.611 62.4231 221.205C60.4604 222.798 59.1073 225.017 58.5915 227.49L52.6619 255.955C52.3282 257.554 52.3558 259.207 52.7425 260.794C53.1293 262.38 53.8656 263.861 54.8978 265.128C55.93 266.395 57.2322 267.416 58.7097 268.118C60.1871 268.819 61.8027 269.183 63.4387 269.183H129.016C130.652 269.182 132.267 268.817 133.743 268.115C135.22 267.413 136.521 266.392 137.553 265.125C138.585 263.858 139.321 262.378 139.707 260.792C140.094 259.206 140.122 257.554 139.789 255.955Z" fill="#A0190B"/>
<path d="M97.9565 303.549H25.01L25.6317 308.303C59.0021 314.049 94.1954 309.494 126.226 320.48C134.485 323.311 143.002 327.732 146.69 335.631C148.582 339.684 148.993 344.242 149.303 348.701C151.308 377.399 150.242 406.228 146.122 434.7C145.005 442.392 143.539 450.368 138.903 456.612C130.302 468.196 113.983 470.18 99.5492 470.816C88.0126 471.329 76.426 471.609 64.9431 470.379C59.2822 469.774 53.4986 468.747 48.6398 465.782C47.7375 465.232 46.878 464.615 46.0684 463.936L47.1469 472.16C47.3714 473.87 48.2114 475.44 49.51 476.576C50.8087 477.713 52.4773 478.34 54.2047 478.339H140.76C142.488 478.341 144.158 477.715 145.457 476.578C146.757 475.441 147.597 473.871 147.822 472.16L169.963 303.549H97.9565Z" fill="#D62C1A"/>
<path opacity="0.12" d="M34.1671 320.172C32.8546 322.999 33.4418 326.301 34.0405 329.366C40.0788 360.216 44.7111 391.295 47.9374 422.605C48.3212 426.217 50.0751 430.994 53.6597 430.385C56.9756 429.818 57.4132 425.275 56.9948 421.957C53.3949 393.262 48.1984 364.497 50.0866 335.629C50.3361 331.821 50.7007 327.922 49.6491 324.252C47.9528 318.287 37.9475 312.017 34.1671 320.172Z" fill="white"/>
<path opacity="0.12" d="M16.7356 282.502C16.8392 284.241 18.4242 285.601 20.1168 286.034C21.8093 286.467 23.5708 286.187 25.3132 285.931C42.8408 283.341 60.6447 283.632 78.3642 283.494C79.0974 283.544 79.8316 283.412 80.5019 283.111C81.1428 282.759 81.6033 281.962 81.3117 281.284C81.02 280.606 80.1258 280.388 79.3659 280.3C75.8158 279.894 72.2312 279.916 68.6543 279.916L39.5556 279.955C36.1399 279.959 16.4516 277.626 16.7356 282.502Z" fill="white"/>
<path d="M133.856 227.49C133.341 225.017 131.988 222.797 130.025 221.204C128.062 219.61 125.609 218.74 123.079 218.74H69.3682C66.8383 218.741 64.3857 219.611 62.4231 221.205C60.4604 222.798 59.1073 225.017 58.5915 227.49L52.6619 255.955C52.3282 257.554 52.3558 259.207 52.7425 260.794C53.1293 262.38 53.8656 263.861 54.8978 265.128C55.93 266.395 57.2322 267.416 58.7097 268.118C60.1871 268.819 61.8027 269.183 63.4387 269.183H77.7348C75.7294 265.835 74.8623 261.93 75.2632 258.051C76.2917 249.363 83.0925 242.15 91.0561 238.491C99.0196 234.833 108.023 234.186 116.793 234.209C123.21 234.209 130.225 234.917 135.948 237.518L133.856 227.49Z" fill="#770F0A"/>
<path d="M126.268 378.798C126.019 378.27 124.733 377.768 122.987 377.343C123.179 374.543 122.765 370.191 120.727 363.525C118.808 357.293 107.793 347.471 105.026 345.077C105.042 344.785 104.999 344.493 104.899 344.219C103.947 341.92 93.5199 339.902 92.4683 341.415C92.1306 341.897 92.3455 343.273 92.8521 345C90.2999 346.042 86.4505 348.536 81.089 354.271C75.9847 359.733 72.78 377.883 72.78 377.883C72.78 377.883 72.8837 377.688 73.0832 377.339C71.9894 379.806 75.2516 389.072 77.017 389.214C77.6081 389.264 78.6904 388.39 79.9377 387.088C82.1176 388.774 86.2049 390.854 93.8615 392.62C101.153 394.301 118.504 388 118.504 388H118.47C121.387 386.942 126.978 380.304 126.268 378.798ZM97.3424 385.855C91.6393 384.169 87.8859 381.779 85.5909 379.871C86.4928 378.488 87.0991 377.37 87.126 376.918C87.2642 375.232 75.0175 374.757 73.2291 377.086C74.7642 374.405 79.9722 365.667 85.2416 360.675C89.5554 356.588 93.5045 354.546 96.3062 353.512C97.0738 354.983 97.7224 356.063 98.0985 356.324C99.3151 357.167 104.485 349.325 104.987 345.548C106.668 348.444 111.443 357.04 113.097 363.935C114.337 369.091 114.314 373.186 113.93 376.094C112.241 376.002 110.94 376.036 110.522 376.232C109.067 376.921 114.168 386.759 117.177 388.034C113.684 388.011 104.024 387.812 97.3424 385.855Z" fill="white"/>
<path d="M69.2146 401.943H74.9714V404.625H72.6687V407.145H74.8294V409.674H72.6764V412.597H75.217V415.255H69.2146V401.943Z" fill="white"/>
<path d="M80.1833 408.627V410.925H75.8158V408.627H80.1833Z" fill="white"/>
<path d="M94.207 401.943L92.6718 415.236H88.335C87.941 413.193 87.5918 410.87 87.2873 408.268C87.1491 409.384 86.8267 411.706 86.3201 415.236H82.0217L80.4866 401.943H83.8486L84.2132 406.582L84.5701 411.064C84.6954 408.748 85.014 405.708 85.5257 401.943H89.1026C89.1487 402.334 89.2766 403.796 89.4864 406.329L89.8702 411.386C90.0646 408.168 90.387 405.021 90.8373 401.943H94.207Z" fill="white"/>
<path d="M100.712 401.943L102.693 415.236H99.154L98.966 412.845H97.7263L97.5191 415.236H93.9384L95.7076 401.943H100.712ZM98.8777 410.49C98.7012 408.985 98.5246 407.125 98.3481 404.908C97.995 407.462 97.7737 409.323 97.6841 410.49H98.8777Z" fill="white"/>
<path d="M110.614 405.954H107.398V404.966C107.426 404.668 107.384 404.367 107.275 404.089C107.229 404.024 107.167 403.972 107.095 403.94C107.023 403.907 106.943 403.893 106.864 403.901C106.77 403.897 106.677 403.918 106.594 403.963C106.51 404.007 106.441 404.073 106.392 404.154C106.271 404.39 106.215 404.655 106.231 404.92C106.212 405.264 106.274 405.608 106.411 405.924C106.667 406.27 107.003 406.548 107.39 406.736C108.925 407.647 109.896 408.396 110.303 408.98C110.71 409.565 110.909 410.51 110.902 411.815C110.942 412.528 110.829 413.241 110.572 413.907C110.285 414.425 109.83 414.83 109.282 415.056C108.586 415.372 107.828 415.528 107.064 415.512C106.241 415.535 105.425 415.355 104.688 414.987C104.108 414.714 103.65 414.236 103.402 413.646C103.171 412.903 103.069 412.126 103.099 411.348V410.478H106.315V412.095C106.285 412.421 106.331 412.751 106.45 413.056C106.504 413.131 106.576 413.191 106.661 413.228C106.745 413.266 106.838 413.281 106.929 413.271C107.032 413.276 107.134 413.254 107.224 413.206C107.315 413.158 107.391 413.087 107.444 412.999C107.572 412.751 107.631 412.473 107.613 412.194C107.613 411.428 107.505 410.9 107.294 410.662C106.794 410.207 106.25 409.803 105.671 409.455C105.074 409.081 104.504 408.668 103.963 408.218C103.654 407.918 103.417 407.553 103.268 407.149C103.067 406.592 102.973 406.002 102.992 405.41C102.94 404.646 103.072 403.88 103.376 403.177C103.662 402.68 104.107 402.292 104.638 402.074C105.303 401.796 106.021 401.665 106.741 401.691C107.531 401.667 108.317 401.815 109.044 402.123C109.581 402.328 110.027 402.716 110.303 403.219C110.553 403.94 110.657 404.703 110.61 405.464L110.614 405.954Z" fill="white"/>
<path d="M118.961 401.943V404.625H116.908V415.255H113.454V404.625H111.404V401.943H118.961Z" fill="white"/>
<path d="M119.752 401.943H125.528V404.625H123.225V407.145H125.39V409.674H123.225V412.597H125.77V415.255H119.752V401.943Z" fill="white"/>
</g>
<path d="M99.1716 87.4739L78.8199 95.3833C77.4349 95.9186 75.8942 95.8831 74.5353 95.2845C73.1765 94.6859 72.1103 93.5731 71.5705 92.1899L55.381 50.5497C55.1142 49.8632 54.9852 49.1308 55.0014 48.3945C55.0175 47.6581 55.1786 46.9322 55.4754 46.2581C55.7722 45.584 56.1988 44.9749 56.731 44.4657C57.2631 43.9565 57.8904 43.5571 58.5769 43.2904L78.9286 35.381C79.6151 35.1142 80.3474 34.9852 81.0838 35.0014C81.8202 35.0175 82.5461 35.1786 83.2202 35.4754C83.8943 35.7722 84.5033 36.1988 85.0125 36.731C85.5217 37.2631 85.9211 37.8904 86.1879 38.5769L102.367 80.2122C102.906 81.599 102.873 83.1431 102.273 84.5049C101.674 85.8667 100.558 86.9346 99.1716 87.4739Z" fill="#8E8D8B"/>
<path d="M97.3228 83.1775L77.196 91.0052C76.2107 91.3877 75.1139 91.3633 74.1466 90.9373C73.1793 90.5114 72.4207 89.7188 72.0376 88.7338L56.864 49.7086C56.6742 49.2209 56.5824 48.7006 56.5937 48.1774C56.605 47.6542 56.7193 47.1384 56.93 46.6594C57.1407 46.1804 57.4437 45.7475 57.8217 45.3856C58.1997 45.0238 58.6453 44.7399 59.133 44.5502L79.2623 36.7249C79.7503 36.5348 80.2709 36.4428 80.7945 36.4541C81.3181 36.4653 81.8343 36.5798 82.3136 36.7907C82.7929 37.0017 83.226 37.3051 83.5879 37.6835C83.9499 38.062 84.2337 38.5081 84.4231 38.9963L99.5967 78.0191C99.7864 78.5071 99.878 79.0276 99.8663 79.5511C99.8547 80.0745 99.74 80.5905 99.5288 81.0695C99.3176 81.5486 99.0141 81.9813 98.6356 82.343C98.257 82.7047 97.811 82.9883 97.3228 83.1775Z" fill="#3A4551"/>
<path d="M65.275 52.6183L70.7127 60.2977L67.3512 64.7962L71.8991 63.3503L72.3934 76.6725L77.2873 65.9949L87.221 69.0969L77.8756 58.4687L82.5446 51.8619L74.2892 56.6669C74.2892 56.6669 72.1166 50.8065 72.2056 51.3033C72.2946 51.8001 70.9302 55.4187 70.9302 55.4187L65.275 52.6183Z" fill="#303942"/>
<path d="M72.3934 76.7766H72.3737C72.3509 76.7722 72.3303 76.7604 72.3151 76.7429C72.2998 76.7254 72.2909 76.7034 72.2896 76.6802L71.7953 63.4914L67.3784 64.8978C67.3577 64.905 67.3351 64.9054 67.3141 64.8987C67.2932 64.892 67.275 64.8787 67.2623 64.8607C67.2497 64.8425 67.243 64.821 67.243 64.7989C67.243 64.7768 67.2497 64.7553 67.2623 64.7371L70.5817 60.298L65.191 52.6803C65.1773 52.6617 65.17 52.6392 65.17 52.6161C65.17 52.5929 65.1773 52.5704 65.191 52.5518C65.2062 52.5341 65.2269 52.5221 65.2497 52.5176C65.2726 52.5131 65.2963 52.5164 65.3171 52.5271L70.8783 55.2756C71.4196 53.8296 72.1661 51.6595 72.1142 51.3209C72.0944 51.2072 72.1685 51.1775 72.1908 51.1726C72.3094 51.1405 72.3588 51.1281 74.356 56.5139L82.4952 51.7732C82.5155 51.7609 82.5395 51.7562 82.563 51.7598C82.5865 51.7634 82.608 51.7751 82.6237 51.793C82.6381 51.8113 82.646 51.8339 82.646 51.8573C82.646 51.8806 82.6381 51.9032 82.6237 51.9215L77.9967 58.464L87.2902 69.0304C87.3065 69.0469 87.3165 69.0685 87.3188 69.0916C87.3211 69.1146 87.3154 69.1378 87.3027 69.1571C87.29 69.1765 87.271 69.1909 87.2489 69.198C87.2269 69.2051 87.2031 69.2044 87.1815 69.196L77.3343 66.1213L72.4874 76.7074C72.4804 76.727 72.4678 76.7441 72.451 76.7565C72.4343 76.7688 72.4142 76.7758 72.3934 76.7766ZM71.8991 63.2467C71.9201 63.2466 71.9408 63.2526 71.9584 63.264C71.9711 63.2736 71.9814 63.2859 71.9887 63.3C71.996 63.3141 72 63.3297 72.0004 63.3456L72.4824 76.2353L77.1959 65.9532C77.2067 65.9302 77.2253 65.9119 77.2484 65.9015C77.2715 65.891 77.2976 65.8892 77.322 65.8963L86.8947 68.8895L77.7916 58.5382C77.7771 58.5199 77.7693 58.4972 77.7693 58.4739C77.7693 58.4506 77.7771 58.428 77.7916 58.4096L82.1862 52.1959L74.3535 56.7561C74.3403 56.7635 74.3254 56.7673 74.3102 56.7673C74.2951 56.7673 74.2802 56.7635 74.267 56.7561C74.2529 56.7515 74.24 56.7437 74.2293 56.7335C74.2186 56.7232 74.2104 56.7107 74.2052 56.6968C73.57 54.979 72.6431 52.5197 72.2822 51.6496C72.0795 52.6729 71.1601 55.1297 71.0464 55.4486C71.0419 55.4621 71.0344 55.4744 71.0246 55.4846C71.0148 55.4949 71.0028 55.5028 70.9895 55.5079C70.9762 55.5135 70.962 55.5163 70.9475 55.5163C70.9331 55.5163 70.9188 55.5135 70.9055 55.5079L65.6062 52.8879L70.7967 60.2337C70.8094 60.2514 70.8162 60.2726 70.8162 60.2943C70.8162 60.316 70.8094 60.3372 70.7967 60.3549L67.6157 64.5962L71.8546 63.2467C71.8683 63.2422 71.883 63.2422 71.8966 63.2467H71.8991Z" fill="#4F5E6D"/>
<path d="M74.0767 91.2363H74.0421C74.0161 91.2268 73.9949 91.2075 73.9829 91.1826C73.9709 91.1577 73.969 91.1291 73.9778 91.1028L74.5191 89.5358L73.1028 84.2662C73.0967 84.2461 73.0967 84.2246 73.1028 84.2044L74.6575 79.8147L72.3119 76.7375C72.2957 76.7153 72.2888 76.6878 72.2925 76.6606C72.2962 76.6334 72.3102 76.6087 72.3317 76.5917C72.3425 76.5834 72.3549 76.5773 72.3682 76.5738C72.3814 76.5703 72.3952 76.5694 72.4087 76.5713C72.4223 76.5731 72.4353 76.5776 72.4471 76.5845C72.4589 76.5914 72.4693 76.6005 72.4775 76.6114L74.8602 79.7282C74.871 79.742 74.8781 79.7584 74.8807 79.7757C74.8833 79.793 74.8813 79.8107 74.875 79.8271L73.3154 84.239L74.7292 89.5086C74.7354 89.5279 74.7354 89.5487 74.7292 89.5679L74.1805 91.1671C74.1727 91.1881 74.1585 91.2061 74.1398 91.2185C74.1212 91.231 74.0991 91.2372 74.0767 91.2363Z" fill="#4F5E6D"/>
<path d="M72.2155 51.4073C72.1904 51.4075 72.166 51.3986 72.1469 51.3823C72.1278 51.3659 72.1153 51.3432 72.1117 51.3183L71.5556 46.852C71.5519 46.8259 71.5583 46.7993 71.5734 46.7778C71.5886 46.7562 71.6113 46.7412 71.6372 46.7358L75.6833 45.893L75.8662 40.1562C75.865 40.148 75.865 40.1397 75.8662 40.1315L76.5236 37.7216C76.5317 37.6954 76.5495 37.6733 76.5735 37.6599C76.5975 37.6466 76.6256 37.643 76.6522 37.6499C76.6782 37.6574 76.7003 37.6748 76.7137 37.6984C76.7271 37.7219 76.7307 37.7498 76.7239 37.776L76.0689 40.1735L75.8835 45.9819C75.8825 46.0051 75.874 46.0272 75.8593 46.0451C75.8446 46.0629 75.8244 46.0755 75.8019 46.0808L71.7682 46.9212L72.3119 51.2911C72.3154 51.3183 72.3081 51.3458 72.2914 51.3675C72.2747 51.3893 72.2501 51.4036 72.2229 51.4073H72.2155Z" fill="#4F5E6D"/>
<path d="M82.5447 51.9681C82.5236 51.9683 82.5031 51.962 82.4858 51.9501C82.4686 51.9381 82.4554 51.9211 82.4483 51.9014L79.895 45.3391C79.8877 45.3206 79.8859 45.3004 79.8898 45.2808C79.8937 45.2613 79.9031 45.2434 79.9169 45.229C79.9307 45.2147 79.9483 45.2047 79.9677 45.2001C79.987 45.1955 80.0073 45.1965 80.026 45.2031L84.0474 46.5922L86.9813 45.4528C86.9939 45.4476 87.0075 45.4451 87.0211 45.4453C87.0347 45.4455 87.0482 45.4485 87.0607 45.454C87.0731 45.4596 87.0843 45.4676 87.0936 45.4775C87.1029 45.4875 87.1101 45.4993 87.1148 45.5121C87.1245 45.5377 87.1237 45.566 87.1126 45.591C87.1014 45.616 87.0809 45.6356 87.0554 45.6456L84.0894 46.7998C84.0663 46.8086 84.0409 46.8086 84.0178 46.7998L80.1718 45.4725L82.6435 51.8272C82.6532 51.8528 82.6524 51.8811 82.6413 51.9061C82.6302 51.9311 82.6097 51.9507 82.5842 51.9607C82.5717 51.9658 82.5582 51.9684 82.5447 51.9681Z" fill="#4F5E6D"/>
<path d="M65.2752 52.7317L62.062 52.3881C62.0448 52.386 62.0284 52.3797 62.0141 52.3698C61.9999 52.3599 61.9884 52.3467 61.9804 52.3313L59.5409 47.425C59.5329 47.4102 59.5287 47.3936 59.5287 47.3768C59.5287 47.36 59.5329 47.3434 59.5409 47.3286L61.669 43.4951C61.6836 43.4734 61.7057 43.4581 61.7311 43.452C61.7565 43.446 61.7832 43.4497 61.8059 43.4625C61.8287 43.4753 61.8458 43.4962 61.8538 43.521C61.8619 43.5458 61.8603 43.5727 61.8494 43.5964L59.7485 47.3805L62.1361 52.1879L65.3023 52.5265C65.3295 52.5296 65.3543 52.5433 65.3714 52.5646C65.3885 52.5859 65.3966 52.6131 65.3938 52.6402C65.3923 52.6541 65.388 52.6676 65.3811 52.6798C65.3743 52.692 65.3651 52.7027 65.354 52.7112C65.3429 52.7198 65.3302 52.726 65.3167 52.7295C65.3031 52.733 65.289 52.7338 65.2752 52.7317Z" fill="#4F5E6D"/>
<path d="M75.7995 91.5614C74.9333 91.5608 74.0876 91.2985 73.3731 90.809C72.6586 90.3194 72.1087 89.6254 71.7954 88.8179L56.6243 49.8026C56.4201 49.2777 56.3213 48.7178 56.3335 48.1548C56.3458 47.5917 56.4688 47.0366 56.6955 46.5211C56.9223 46.0056 57.2484 45.5398 57.6551 45.1504C58.0619 44.7609 58.5414 44.4554 59.0663 44.2512L79.1956 36.4185C80.2557 36.0082 81.4352 36.0348 82.4758 36.4925C83.5163 36.9503 84.333 37.8018 84.7469 38.8605L99.9205 77.8931C100.125 78.4181 100.224 78.9782 100.212 79.5415C100.199 80.1047 100.076 80.66 99.8492 81.1756C99.6222 81.6912 99.2957 82.157 98.8885 82.5463C98.4813 82.9356 98.0013 83.2408 97.476 83.4445L77.3492 91.2698C76.8552 91.4624 76.3297 91.5613 75.7995 91.5614ZM80.7428 36.7398C80.2881 36.7388 79.8371 36.8226 79.4131 36.987L59.2863 44.8222C58.8353 44.9968 58.4232 45.2587 58.0736 45.593C57.724 45.9272 57.4438 46.3271 57.2491 46.7698C57.0544 47.2125 56.949 47.6893 56.9389 48.1728C56.9288 48.6563 57.0142 49.1371 57.1903 49.5875L72.3614 88.6078C72.7158 89.518 73.417 90.2503 74.311 90.6438C75.205 91.0373 76.2187 91.0597 77.1292 90.7063L97.2561 82.8859C97.7069 82.7109 98.1188 82.4489 98.4683 82.1146C98.8177 81.7804 99.0979 81.3806 99.2928 80.9381C99.4877 80.4955 99.5935 80.0189 99.604 79.5354C99.6146 79.052 99.5298 78.5712 99.3545 78.1205L84.176 39.0879C83.9066 38.3969 83.4351 37.8032 82.8231 37.3843C82.211 36.9655 81.4869 36.7408 80.7453 36.7398H80.7428Z" fill="#2C353D"/>
<path d="M130.456 151.559C130.733 152.601 131.135 153.605 131.655 154.55C135.325 161.426 151.804 164.615 158.72 156.732C159.414 155.905 159.974 154.974 160.381 153.974C162.358 149.409 162.057 143.766 159.046 139.814C157.363 137.607 154.884 135.894 154.019 133.259C153.191 130.735 154.019 127.821 152.845 125.434C152.373 124.534 151.649 123.791 150.762 123.295C149.875 122.8 148.863 122.573 147.849 122.643C146.86 122.412 145.824 122.474 144.868 122.821C143.913 123.168 143.079 123.786 142.469 124.598C140.929 126.758 141.28 129.776 140.059 132.132C138.781 134.604 136.06 135.889 134.045 137.797C130.439 141.218 129.248 146.73 130.456 151.559Z" fill="#9DDDF4"/>
<path d="M130.511 151.438C130.787 152.48 131.19 153.484 131.709 154.429C132.896 156.653 135.417 158.482 138.516 159.686C137.38 158.876 136.433 157.828 135.741 156.616C135.221 155.672 134.818 154.667 134.542 153.625C133.333 148.806 134.525 143.281 138.131 139.863C140.145 137.955 142.867 136.65 144.144 134.198C145.365 131.84 145.012 128.825 146.554 126.662C147.165 125.849 147.999 125.232 148.954 124.885C149.91 124.538 150.946 124.477 151.935 124.709C152.134 124.698 152.332 124.698 152.531 124.709C152.006 123.986 151.307 123.407 150.497 123.027C149.688 122.647 148.796 122.478 147.904 122.537C146.914 122.305 145.878 122.366 144.923 122.712C143.967 123.059 143.134 123.677 142.523 124.489C140.981 126.652 141.334 129.667 140.113 132.025C138.835 134.497 136.114 135.782 134.1 137.691C130.493 141.094 129.302 146.618 130.511 151.438Z" fill="#92CFE0"/>
<path d="M148.574 138.512C148.499 139.367 148.383 140.312 147.738 140.878C147.658 140.961 147.561 141.026 147.453 141.068C147.346 141.111 147.231 141.13 147.115 141.125C146.641 141.063 146.488 140.462 146.445 139.985C146.235 137.599 146.023 135.215 145.81 132.832C145.763 132.289 145.748 131.656 146.159 131.295C146.409 131.112 146.707 131.004 147.016 130.983C147.632 130.897 148.304 130.875 148.821 131.231C149.562 131.725 148.981 133.744 148.917 134.508C148.802 135.835 148.687 137.169 148.574 138.512Z" fill="#7C7C7B"/>
<path d="M148.63 138.435C148.294 138.025 147.857 137.565 147.335 137.659C146.96 137.723 146.7 138.057 146.483 138.368C145.06 140.403 143.819 142.559 142.775 144.812H143.044C143.957 143.037 145.049 141.361 146.305 139.809C146.581 139.468 146.9 139.112 147.333 139.031C147.802 138.944 148.26 139.211 148.643 139.495C150.148 140.605 151.488 142.708 153.287 143.321C152.773 142.548 151.861 141.935 151.208 141.275C150.3 140.37 149.441 139.424 148.63 138.435Z" fill="#7C7C7B"/>
<path d="M154.496 140.93C154.6 141.473 154.778 141.992 154.909 142.529C155.017 142.981 155.593 144.321 154.629 144.259C153.888 144.219 152.19 141.817 152.748 141.155H152.407C153.045 141.896 153.515 143.364 153.337 144.368C153.035 146.078 151.75 145.957 150.937 145.156C150.689 144.909 149.688 143.7 150.052 143.268L149.557 143.204C149.789 143.687 149.905 144.217 149.896 144.753C149.904 144.937 149.88 145.12 149.824 145.295C149.805 145.853 149.44 146.166 148.729 146.234C148.418 145.942 147.946 146.422 148.262 146.698C148.897 147.25 149.651 147.057 150.101 146.372C150.781 145.342 150.561 143.948 150.101 142.892C150.078 142.85 150.044 142.814 150.004 142.786C149.964 142.759 149.918 142.742 149.87 142.736C149.821 142.73 149.773 142.735 149.727 142.752C149.681 142.768 149.64 142.795 149.607 142.83C148.939 143.634 149.649 144.538 150.21 145.23C150.771 145.922 151.651 146.521 152.578 146.261C154.79 145.641 153.801 141.992 152.741 140.808C152.695 140.765 152.634 140.74 152.57 140.74C152.507 140.74 152.446 140.765 152.4 140.808C151.451 141.965 153.468 144.343 154.624 144.612C156.389 145.025 154.817 141.461 154.503 140.905H154.491L154.496 140.93Z" fill="#7C7C7B"/>
<path d="M140.046 132.043C142.118 132.679 144.535 132.785 146.75 133.059H146.853L147.236 133.109V133.074C149.461 133.166 151.868 133.44 154.014 133.146C155.363 132.958 154.906 132.473 154.651 131.344C154.397 130.214 154.392 129.001 154.392 127.832C154.392 125.914 154.392 123.995 154.392 122.075C154.431 121.379 154.354 120.68 154.165 120.009C153.717 118.714 152.454 117.836 151.129 117.488C150.954 117.441 150.778 117.406 150.603 117.374C150.563 117.077 150.501 116.771 150.44 116.46C150.404 116.138 150.271 115.836 150.059 115.592C149.81 115.391 149.509 115.265 149.192 115.226C148.408 115.061 147.595 114.907 146.806 115.068C146.582 115.101 146.371 115.196 146.198 115.342C146.01 115.56 145.891 115.83 145.857 116.116C145.795 116.415 145.741 116.714 145.697 117.018C145.598 117.018 145.499 117.018 145.4 117.038C144.036 117.171 142.647 117.834 141.999 119.04C141.705 119.673 141.517 120.35 141.443 121.044L140.523 126.729C140.336 127.884 140.143 129.063 139.705 130.153C139.268 131.243 138.744 131.653 140.046 132.043Z" fill="#8E8D8B"/>
<path d="M140.046 132.043C140.772 132.257 141.511 132.422 142.258 132.537C142.162 132.282 142.118 132.01 142.132 131.738C142.145 131.466 142.214 131.199 142.335 130.955C142.508 130.644 142.787 130.404 142.948 130.088C143.116 129.688 143.178 129.253 143.131 128.822C143.087 127.485 142.926 126.15 142.983 124.813C143.04 123.476 143.339 122.094 144.117 121.019C144.896 119.944 146.057 119.232 147.286 118.765C149.112 118.068 151.174 117.88 153.035 118.451C152.475 118.003 151.826 117.679 151.132 117.499C150.956 117.452 150.781 117.418 150.605 117.386C150.566 117.089 150.504 116.783 150.442 116.471C150.406 116.15 150.273 115.848 150.062 115.604C149.812 115.403 149.512 115.276 149.194 115.238C148.41 115.072 147.597 114.919 146.809 115.08C146.584 115.112 146.374 115.207 146.201 115.354C146.012 115.572 145.893 115.841 145.86 116.128C145.798 116.427 145.744 116.726 145.699 117.03C145.6 117.03 145.501 117.03 145.402 117.05C144.038 117.183 142.649 117.845 142.001 119.052C141.707 119.685 141.519 120.362 141.445 121.056L140.526 126.741C140.338 127.895 140.145 129.074 139.708 130.164C139.27 131.254 138.744 131.652 140.046 132.043Z" fill="#7C7C7B"/>
<path d="M145.813 146.062C145.385 146.351 144.537 146.87 143.979 146.761C143.259 146.62 142.743 146.02 142.955 145.306C143 145.155 143.895 143.983 144.087 144.317C144.152 144.428 143.556 145.058 143.497 145.105C143.236 145.33 142.918 145.479 142.578 145.534C142.238 145.589 141.89 145.548 141.571 145.417C140.543 144.977 140.499 143.415 140.709 142.54C140.84 142.001 141.084 141.274 141.505 140.889C141.599 140.599 141.769 140.543 142.019 140.721C142.382 140.721 142.434 140.819 142.177 141.03C141.979 141.451 141.65 141.415 141.188 140.921C140.595 140.955 140.302 140.748 140.308 140.298C139.881 139.045 140.879 137.51 141.767 136.741C142.051 136.494 141.626 136.059 141.351 136.326C140.195 137.446 138.759 140.58 140.756 141.665C142.051 142.369 143.559 140.226 142.342 139.949C141.601 139.781 140.998 140.938 140.748 141.432C140.271 142.386 140.007 143.627 140.479 144.646C141.445 146.749 143.675 145.832 144.434 144.151C144.468 144.075 144.434 143.961 144.327 143.968C143.2 144.042 142.157 145.355 142.787 146.47C143.457 147.656 145.155 146.835 145.919 146.222C146.001 146.158 145.894 146.02 145.81 146.079L145.813 146.062Z" fill="#7C7C7B"/>
<path d="M142.246 155.771L149.414 156.243C147.694 155.317 145.945 154.441 144.169 153.616C144.869 151.944 145.695 150.327 146.641 148.781C145.5 149.894 144.256 150.895 142.926 151.772C142.687 150.209 142.335 148.665 141.873 147.152C141.408 148.625 140.944 150.099 140.481 151.572L134.127 147.288L138.603 152.167C137.455 152.687 136.239 153.042 134.992 153.223L139.236 153.935C138.638 154.624 137.894 155.17 137.058 155.534L139.713 155.227C139.873 155.208 140.207 158.156 140.627 158.305C141.361 158.564 142.031 156.241 142.246 155.771Z" fill="#C4E8F2"/>
<path d="M135.237 35.5414L138.522 36.588C138.866 36.6975 139.152 36.9389 139.317 37.2592C139.483 37.5795 139.514 37.9524 139.405 38.2959L138.713 40.4673L132.825 38.5917L133.517 36.4203C133.572 36.2492 133.659 36.0906 133.776 35.9537C133.892 35.8167 134.034 35.7041 134.194 35.6224C134.354 35.5407 134.528 35.4915 134.707 35.4776C134.886 35.4637 135.066 35.4854 135.237 35.5414Z" fill="#8E8D8B"/>
<path d="M129.965 76.8404L118.942 73.3281C118.626 73.2275 118.333 73.0657 118.079 72.8519C117.826 72.6381 117.617 72.3765 117.465 72.082C117.313 71.7875 117.22 71.466 117.193 71.1356C117.165 70.8053 117.202 70.4728 117.303 70.157L127.437 38.3268C127.537 38.0102 127.699 37.7166 127.913 37.4628C128.127 37.209 128.389 37.0001 128.684 36.848C128.98 36.6959 129.302 36.6037 129.633 36.5767C129.964 36.5497 130.297 36.5884 130.613 36.6905L141.639 40.2003C141.955 40.3009 142.248 40.4627 142.501 40.6765C142.754 40.8904 142.963 41.1521 143.115 41.4466C143.267 41.7411 143.359 42.0628 143.387 42.393C143.414 42.7233 143.376 43.0558 143.275 43.3715L133.141 75.2016C133.04 75.5179 132.878 75.8111 132.664 76.0647C132.45 76.3182 132.188 76.527 131.893 76.6792C131.598 76.8314 131.276 76.924 130.945 76.9516C130.614 76.9793 130.281 76.9415 129.965 76.8404Z" fill="#8E8D8B"/>
<path d="M141.982 40.3184C142.17 40.8209 142.183 41.3721 142.02 41.8829L131.814 73.943C131.62 74.5501 131.193 75.0554 130.627 75.3478C130.06 75.6403 129.401 75.6959 128.794 75.5026L117.54 71.9187C117.461 71.8915 117.382 71.8618 117.305 71.8297C117.432 72.172 117.635 72.4809 117.899 72.7332C118.162 72.9854 118.48 73.1743 118.828 73.2855L130.081 76.8694C130.689 77.0627 131.349 77.0067 131.915 76.7137C132.481 76.4208 132.908 75.9149 133.102 75.3073L143.312 43.2498C143.493 42.6832 143.456 42.0699 143.211 41.5284C142.965 40.987 142.528 40.5558 141.982 40.3184Z" fill="#7C7C7B"/>
<path d="M142.768 44.9579L126.935 39.9141L118.281 67.0797L134.114 72.1235L142.768 44.9579Z" fill="#EA381B"/>
<path d="M128.408 54.8579C129.449 55.2225 130.461 55.6645 131.436 56.1802C129.655 58.3866 127.97 60.6688 126.381 63.0267C129.046 60.6045 131.713 58.1798 134.562 55.9775L131.503 54.7219L136.569 50.8859C135.334 50.5745 132.901 49.7168 132.901 49.7168C132.901 49.7168 130.983 51.9537 130.343 52.6828C130.143 52.9003 128.588 54.9172 128.408 54.8579Z" fill="white"/>
<path opacity="0.37" d="M127.321 44.5173C126.402 48.9345 125.02 53.2426 123.198 57.37C122.954 57.829 122.809 58.3343 122.773 58.853C122.773 59.3695 123.077 59.9257 123.578 60.0517C123.809 60.0875 124.045 60.0562 124.258 59.9615C124.471 59.8668 124.652 59.7128 124.78 59.5179C125.024 59.1235 125.192 58.6866 125.274 58.2301C126.545 53.2371 128.369 48.4014 130.712 43.8129C131.11 43.0417 131.53 42.231 131.505 41.361C131.475 40.3402 130.022 38.5952 128.93 39.4306C127.761 40.3501 127.605 43.1554 127.321 44.5173Z" fill="white"/>
<path opacity="0.37" d="M121.996 62.2961C121.663 62.6676 121.432 63.1188 121.324 63.606C121.166 64.1865 121.078 64.7841 121.062 65.3856C121.041 65.6435 121.075 65.9029 121.161 66.1469C121.204 66.2697 121.277 66.3796 121.374 66.4661C121.47 66.5527 121.588 66.6129 121.715 66.6413C121.868 66.6473 122.022 66.6179 122.162 66.5553C122.303 66.4927 122.427 66.3987 122.525 66.2804C123.089 65.682 123.511 64.965 123.761 64.1819C123.918 63.8238 123.994 63.4357 123.984 63.045C123.892 61.9278 122.785 61.5125 121.996 62.2961Z" fill="white"/>
<path d="M142.765 44.9571L141.201 44.459L132.547 71.6246L134.111 72.1227L142.765 44.9571Z" fill="#D82C1A"/>
<path d="M106.589 22.9272L112.749 31.863C113.491 32.9397 114.966 33.2108 116.042 32.4686L141.846 14.6809C142.923 13.9387 143.194 12.4642 142.452 11.3875L136.292 2.45177C135.55 1.37507 134.076 1.10391 132.999 1.84613L107.195 19.6338C106.118 20.376 105.847 21.8505 106.589 22.9272Z" fill="#8E8D8B"/>
<path d="M106.391 22.6389C106.54 22.1581 106.846 21.7412 107.261 21.455L133.25 3.53782C133.494 3.36965 133.768 3.25114 134.057 3.18906C134.347 3.12699 134.646 3.12257 134.937 3.17605C135.228 3.22954 135.505 3.33989 135.754 3.50078C136.002 3.66167 136.216 3.86996 136.384 4.11372L142.675 13.2367C142.72 13.301 142.761 13.3678 142.798 13.4369C142.902 13.1105 142.929 12.7649 142.878 12.4264C142.827 12.088 142.699 11.7657 142.504 11.4842L136.216 2.36131C135.877 1.87024 135.357 1.53382 134.77 1.42586C134.182 1.31789 133.577 1.4472 133.085 1.78541L107.085 19.7025C106.628 20.0203 106.304 20.4958 106.176 21.0378C106.048 21.5797 106.124 22.1499 106.391 22.6389Z" fill="#7C7C7B"/>
<path d="M108.209 30.2354L106.365 27.5824C106.172 27.305 106.097 26.9624 106.157 26.63C106.217 26.2975 106.406 26.0024 106.684 25.8096L108.437 24.591L111.735 29.3356L109.982 30.5543C109.704 30.7471 109.362 30.8218 109.029 30.762C108.697 30.7022 108.402 30.5128 108.209 30.2354Z" fill="#8E8D8B"/>
<path d="M108.479 18.7492L117.326 31.584L139.349 16.4028L130.502 3.56794L108.479 18.7492Z" fill="#F98715"/>
<path d="M124.81 19.6517C124.249 18.7832 123.753 17.8744 123.327 16.9329C125.917 16.3166 128.478 15.5916 131.011 14.7578C127.642 15.0248 124.271 15.2917 120.892 15.2867C121.409 16.1848 121.925 17.0812 122.439 17.9759L116.48 17.9117C117.222 18.8534 118.529 20.8777 118.529 20.8777C118.529 20.8777 121.233 20.3215 122.123 20.1535C122.397 20.1189 124.708 19.5059 124.81 19.6517Z" fill="white"/>
<path opacity="0.37" d="M119.678 27.9464C122.898 25.1967 126.398 22.7942 130.121 20.7786C130.566 20.5782 130.964 20.2859 131.288 19.9209C131.582 19.5353 131.681 18.952 131.379 18.5689C131.229 18.4101 131.037 18.2979 130.824 18.2458C130.612 18.1936 130.39 18.2037 130.183 18.2748C129.773 18.4247 129.396 18.6512 129.071 18.9421C125.259 21.9157 121.126 24.4534 116.749 26.5079C116.008 26.8539 115.234 27.2148 114.752 27.8723C114.189 28.6484 114.258 30.7789 115.556 30.7839C116.957 30.7864 118.685 28.7942 119.678 27.9464Z" fill="white"/>
<path opacity="0.37" d="M133.839 17.8141C134.299 17.7309 134.73 17.529 135.089 17.2283C135.541 16.8899 135.949 16.4972 136.305 16.0592C136.469 15.8799 136.593 15.6686 136.671 15.4388C136.708 15.3233 136.716 15.2002 136.693 15.081C136.67 14.9618 136.617 14.8503 136.54 14.7567C136.429 14.6643 136.299 14.5985 136.159 14.5642C136.019 14.53 135.873 14.5281 135.732 14.5589C134.969 14.6791 134.243 14.9679 133.606 15.4042C133.286 15.5805 133.008 15.8242 132.791 16.1185C132.222 16.9985 132.805 17.9426 133.839 17.8141Z" fill="white"/>
<path d="M108.476 18.7478L109.35 20.0156L131.373 4.83439L130.499 3.56659L108.476 18.7478Z" fill="#F76C0D"/>
<path d="M114.296 181.262C114.256 181.262 114.216 181.253 114.18 181.234C114.145 181.216 114.114 181.189 114.091 181.156C113.922 180.896 113.826 180.595 113.816 180.284C113.805 179.974 113.879 179.667 114.029 179.396C114.101 179.257 114.198 179.133 114.316 179.03C114.63 178.817 115.009 178.724 115.386 178.766C115.446 178.762 115.505 178.778 115.555 178.81C115.606 178.843 115.644 178.89 115.666 178.946C115.683 178.995 115.686 179.048 115.674 179.099C115.662 179.15 115.636 179.196 115.599 179.233C115.56 179.269 115.51 179.293 115.458 179.301C115.405 179.31 115.351 179.302 115.302 179.28L115.27 179.262C115.047 179.243 114.824 179.298 114.635 179.418C114.566 179.48 114.51 179.555 114.469 179.638C114.361 179.827 114.306 180.042 114.311 180.26C114.316 180.478 114.381 180.69 114.499 180.874C114.518 180.901 114.532 180.931 114.54 180.963C114.547 180.995 114.548 181.028 114.543 181.061C114.537 181.093 114.525 181.124 114.507 181.152C114.49 181.18 114.467 181.204 114.44 181.222C114.397 181.25 114.347 181.264 114.296 181.262Z" fill="#ED1C24"/>
<path d="M112.569 180.919C112.523 180.919 112.477 180.91 112.435 180.892C112.379 180.871 112.332 180.83 112.304 180.777C112.276 180.723 112.268 180.662 112.282 180.603C112.296 180.545 112.331 180.493 112.38 180.459C112.429 180.424 112.489 180.408 112.549 180.415C112.891 180.161 113.137 179.8 113.248 179.389C113.359 178.975 113.423 178.55 113.439 178.121C113.419 178.083 113.409 178.041 113.409 177.998C113.409 177.955 113.419 177.912 113.439 177.874C113.464 177.819 113.508 177.774 113.564 177.75C113.62 177.725 113.682 177.722 113.74 177.741C113.805 177.76 113.86 177.802 113.897 177.858C113.934 177.915 113.95 177.982 113.943 178.05C113.926 178.55 113.853 179.048 113.725 179.533C113.581 180.056 113.262 180.514 112.821 180.83C112.747 180.884 112.66 180.915 112.569 180.919Z" fill="#ED1C24"/>
<path d="M89.624 183.495C89.0633 183.513 88.5049 183.416 87.983 183.21C87.4611 183.004 86.9867 182.694 86.5887 182.299L87.7826 181.145C88.6526 182.044 90.2295 181.978 91.3344 181.446C92.6196 180.831 93.6503 179.659 94.6489 178.527L94.6909 178.478C95.6425 177.395 96.945 175.917 98.6752 175.183C100.519 174.399 102.791 174.476 105.069 175.4C105.811 175.704 106.896 176.226 107.568 177.225C107.835 177.647 108.049 178.1 108.206 178.574C108.305 178.866 108.427 179.149 108.569 179.422C108.785 179.748 109.066 180.025 109.395 180.236C109.724 180.446 110.094 180.585 110.481 180.643C110.867 180.702 111.261 180.678 111.638 180.574C112.015 180.47 112.366 180.288 112.667 180.04L113.814 181.241C113.328 181.663 112.756 181.975 112.138 182.154C111.52 182.334 110.87 182.377 110.233 182.281C109.596 182.185 108.988 181.952 108.45 181.598C107.913 181.244 107.458 180.777 107.118 180.23C106.933 179.885 106.776 179.525 106.649 179.155C106.535 178.804 106.382 178.467 106.192 178.151C105.873 177.679 105.319 177.294 104.444 176.94C103.364 176.503 101.261 175.89 99.3228 176.71C98.0474 177.254 97.034 178.329 95.9366 179.575L95.8946 179.625C94.7873 180.88 93.6429 182.18 92.0561 182.944C91.2957 183.304 90.4653 183.492 89.624 183.495Z" fill="#14181C"/>
<path d="M84.3519 117.249L75.3872 113C75.3872 113 73.5952 117.793 73.4519 121.367C73.3085 124.941 74.1464 130.816 74.1464 130.816L83.3237 122.563L84.3519 117.249Z" fill="#2D353F"/>
<path d="M83.692 122.56L84.6807 117.426L78.9316 114.707C78.9316 114.707 77.1396 119.5 76.9938 123.074C76.9608 124.846 77.0351 126.619 77.2163 128.383L83.692 122.56Z" fill="#14181C"/>
<path d="M111.96 132.052C112.808 132.484 113.668 132.927 114.358 133.584C115.666 134.832 116.187 136.731 116.152 138.54C116.118 140.349 115.581 142.104 115.055 143.834C114.215 146.586 113.375 149.337 112.536 152.087C111.432 155.708 110.312 159.361 108.463 162.666C108.11 163.294 107.707 163.934 107.079 164.29C106.451 164.646 105.542 164.599 105.129 164.008C104.716 163.417 104.943 162.656 105.171 161.996C106.222 158.939 107.272 155.881 108.32 152.821C108.935 151.027 109.556 149.203 109.635 147.309C109.714 145.416 109.761 142.309 108.367 141.024C107.195 139.949 105.522 139.363 104.036 138.799C102.551 138.236 100.502 138.646 99.874 137.188C99.3154 135.893 99.6021 134.407 99.9605 133.045C100.455 131.145 101.659 127.65 104.219 128.203C105.322 128.45 106.429 129.227 107.418 129.733L111.96 132.052Z" fill="#2D353F"/>
<path d="M107.892 138.387C106.723 137.311 105.05 136.726 103.564 136.162C102.207 135.646 100.378 135.945 99.5948 134.887C99.4889 135.663 99.5851 136.453 99.8741 137.18C100.502 138.639 102.551 138.228 104.036 138.792C105.522 139.355 107.195 139.944 108.367 141.016C108.729 141.372 109.003 141.807 109.168 142.287C109.086 140.772 108.784 139.22 107.892 138.387Z" fill="#14181C"/>
<path d="M112.536 152.071C113.374 149.321 114.213 146.57 115.055 143.818C115.582 142.088 116.115 140.331 116.153 138.524C116.18 137.534 116.02 136.548 115.68 135.617C115.68 135.709 115.68 135.8 115.68 135.894C115.643 137.701 115.112 139.458 114.585 141.188L112.064 149.441C110.96 153.062 109.84 156.715 107.991 160.02C107.64 160.648 107.235 161.288 106.609 161.644C106.403 161.76 106.175 161.832 105.939 161.856C105.704 161.881 105.466 161.856 105.24 161.785L105.173 161.98C104.946 162.64 104.733 163.419 105.131 163.992C105.529 164.565 106.454 164.627 107.081 164.274C107.709 163.92 108.112 163.285 108.466 162.65C110.312 159.353 111.432 155.7 112.536 152.071Z" fill="#14181C"/>
<path d="M99.832 159.284C102.464 152.506 108.957 130.425 108.957 130.425L96.6559 123.838L84.3519 117.248C84.3519 117.248 69.5713 134.888 65.3868 140.835C61.2022 146.782 54.7957 160.609 54.7957 160.609L72.0182 169.833L89.2408 179.057C89.2408 179.057 97.2021 166.064 99.832 159.284Z" fill="#2D353F"/>
<path d="M99.8913 159.317C102.521 152.538 109.014 130.458 109.014 130.458L103.633 127.576C103.633 127.576 97.1403 149.656 94.508 156.435C91.8756 163.215 83.9169 176.209 83.9169 176.209L89.3002 179.093C89.3002 179.093 97.2589 166.095 99.8913 159.317Z" fill="#14181C"/>
<path d="M88.0816 187.293C88.6316 186.194 89.0465 185.032 89.3175 183.833C89.7722 181.816 89.2408 179.07 89.2408 179.07L72.0182 169.845L54.8055 160.611C54.8055 160.611 52.2251 161.691 50.799 163.187C49.9474 164.078 49.2071 165.069 48.5942 166.138L47.7415 165.681L47 167.087L88.0544 189.085L88.7959 187.679L88.0816 187.293Z" fill="#72716F"/>
<path d="M88.0051 187.254C88.5545 186.155 88.9694 184.993 89.2409 183.794C89.6982 181.777 89.1668 179.031 89.1668 179.031L71.9417 169.807L80.6222 174.456C80.6222 174.456 81.1536 177.202 80.6988 179.216C80.4284 180.419 80.0134 181.585 79.463 182.689L80.165 183.065L79.4235 184.469L87.9656 189.044L88.7194 187.64L88.0051 187.254Z" fill="#686766"/>
<path d="M84.3518 117.248C84.3518 117.248 90.573 116.798 97.8372 120.689C106.3 125.222 108.96 130.425 108.96 130.425L84.3518 117.248Z" fill="#14181C"/>
<path d="M69.5095 164.819C69.1937 164.65 68.9145 164.421 68.6877 164.144C68.4609 163.867 68.2911 163.548 68.1879 163.205C68.0848 162.862 68.0505 162.502 68.0868 162.146C68.1231 161.79 68.2295 161.444 68.3997 161.129L83.3434 133.214C83.5116 132.898 83.7407 132.618 84.0175 132.39C84.2943 132.163 84.6133 131.992 84.9562 131.888C85.2992 131.784 85.6592 131.749 86.0158 131.785C86.3723 131.821 86.7182 131.927 87.0336 132.097C87.35 132.265 87.63 132.494 87.8575 132.771C88.0851 133.048 88.2557 133.367 88.3595 133.71C88.4633 134.053 88.4983 134.413 88.4625 134.769C88.4267 135.126 88.3208 135.472 88.1508 135.787L73.1997 163.702C73.0315 164.018 72.8024 164.298 72.5256 164.526C72.2488 164.753 71.9298 164.924 71.5869 165.028C71.2439 165.132 70.8839 165.167 70.5273 165.131C70.1708 165.095 69.8249 164.989 69.5095 164.819Z" fill="#6B7287"/>
<path d="M85.2618 134.317L84.8674 134.105L69.4767 162.845L69.8711 163.056L85.2618 134.317Z" fill="#2D353F"/>
<path d="M74.4138 159.539L71.165 157.799L70.9538 158.193L74.2026 159.933L74.4138 159.539Z" fill="#2D353F"/>
<path d="M79.4563 150.128L76.2075 148.389L75.9963 148.783L79.2451 150.523L79.4563 150.128Z" fill="#2D353F"/>
<path d="M85.51 138.82L82.2612 137.08L82.05 137.474L85.2988 139.214L85.51 138.82Z" fill="#2D353F"/>
<path d="M83.4695 118.895L107.188 131.596L105.969 133.87L83.4695 118.895Z" fill="#14181C"/>
<path d="M48.5843 166.139L79.4629 182.679L83.0517 181.077L81.4872 179.585L48.5843 166.139Z" fill="#686766"/>
<path opacity="0.17" d="M82.0409 122.852C78.8277 126.651 75.5923 130.46 72.829 134.602C72.5274 135.055 72.2209 135.539 72.2012 136.085C72.1814 136.632 72.5694 137.225 73.1132 137.227C73.5186 137.227 73.8547 136.918 74.1266 136.622C77.409 133.105 79.5 128.49 83.299 125.539C84.169 124.864 85.7088 123.599 84.824 122.313C84.033 121.161 82.6959 122.081 82.0409 122.852Z" fill="white"/>
<path opacity="0.17" d="M70.2386 138.658C69.4364 139.526 68.7953 140.531 68.3453 141.624C68.155 142.086 68.0166 142.662 68.3453 143.043C68.6741 143.423 69.1882 143.389 69.5812 143.171C69.9571 142.923 70.2715 142.592 70.5006 142.205L72.3544 139.538C73.4073 138.015 71.1185 137.699 70.2386 138.658Z" fill="white"/>
<path opacity="0.17" d="M109.123 133.125C109.123 133.319 109.166 133.511 109.249 133.687C109.332 133.862 109.453 134.017 109.602 134.141C109.905 134.384 110.232 134.593 110.579 134.766C111.22 135.102 111.774 135.584 112.195 136.173C112.605 136.804 112.769 137.564 112.657 138.308C112.586 138.589 112.554 138.879 112.563 139.168C112.572 139.313 112.631 139.45 112.729 139.557C112.827 139.664 112.959 139.734 113.102 139.754C113.379 139.754 113.597 139.507 113.745 139.282C114.368 138.373 114.892 137.253 114.58 136.198C114.467 135.859 114.3 135.54 114.086 135.253C113.614 134.566 109.276 130.817 109.123 133.125Z" fill="white"/>
<path d="M115.522 198.017C115.129 197.344 114.676 196.708 114.168 196.117C113.822 195.687 113.466 195.244 113.139 194.77C112.371 193.645 111.565 191.937 112.096 190.19C112.42 189.129 113.167 188.338 113.827 187.639C114.032 187.419 114.227 187.214 114.407 187.001C115.287 185.973 115.614 185.152 115.564 184.075C115.515 182.997 114.788 182.268 113.587 181.131L114.731 179.93C115.913 181.054 117.134 182.216 117.203 184.001C117.289 185.896 116.461 187.127 115.648 188.081C115.443 188.328 115.226 188.553 115.015 188.776C114.432 189.399 113.879 189.987 113.668 190.674C113.31 191.848 114.032 193.146 114.494 193.833C114.781 194.253 115.104 194.651 115.443 195.069C116.016 195.739 116.526 196.46 116.966 197.224L115.522 198.017Z" fill="#14181C"/>
<path d="M117.134 205.597L117.945 205.269L119.14 208.222C119.181 208.323 119.18 208.436 119.138 208.536C119.095 208.636 119.015 208.715 118.914 208.756L118.861 208.777C118.76 208.818 118.648 208.817 118.547 208.775C118.447 208.732 118.368 208.652 118.327 208.551L117.132 205.598L117.134 205.597Z" fill="#72716F"/>
<path d="M121.275 203.923L122.086 203.595L123.282 206.548C123.319 206.648 123.317 206.759 123.274 206.857C123.231 206.955 123.151 207.033 123.052 207.073L122.999 207.094C122.898 207.135 122.785 207.134 122.685 207.092C122.585 207.049 122.506 206.969 122.465 206.868L121.273 203.924L121.275 203.923Z" fill="#72716F"/>
<path d="M122.693 202.284L115.814 205.071C115.58 205.165 115.467 205.432 115.562 205.666L115.584 205.721C115.679 205.955 115.945 206.068 116.18 205.973L123.059 203.187C123.293 203.092 123.406 202.825 123.311 202.591L123.289 202.536C123.194 202.302 122.928 202.189 122.693 202.284Z" fill="#14181C"/>
<path d="M115.869 196.879L116.948 196.442C117.677 196.146 118.494 196.153 119.218 196.459C119.943 196.766 120.515 197.348 120.811 198.077L122.541 202.35L115.969 205.012L114.236 200.735C113.943 200.007 113.95 199.192 114.256 198.469C114.562 197.746 115.142 197.174 115.869 196.879Z" fill="#14181C"/>
<path d="M116.048 200.04C116.085 200.223 116.094 200.424 116.074 200.618C116.053 200.811 116.005 200.988 115.934 201.126C115.864 201.265 115.774 201.358 115.677 201.395C115.58 201.431 115.479 201.41 115.388 201.332C115.297 201.255 115.22 201.125 115.166 200.96C115.112 200.794 115.083 200.601 115.084 200.403C115.085 200.206 115.116 200.013 115.171 199.85C115.227 199.687 115.306 199.56 115.398 199.486C115.458 199.436 115.524 199.411 115.589 199.412C115.655 199.413 115.72 199.44 115.781 199.492C115.841 199.543 115.896 199.618 115.942 199.712C115.988 199.806 116.024 199.918 116.048 200.04Z" fill="#72716F"/>
<path d="M120.01 198.722C120.085 198.814 120.104 198.915 120.064 199.012C120.025 199.109 119.928 199.198 119.788 199.267C119.647 199.337 119.468 199.384 119.274 199.403C119.08 199.422 118.878 199.411 118.696 199.373C118.514 199.334 118.358 199.27 118.249 199.187C118.14 199.104 118.083 199.007 118.084 198.908C118.086 198.809 118.146 198.713 118.257 198.631C118.368 198.549 118.525 198.485 118.709 198.448C118.954 198.399 119.228 198.4 119.472 198.452C119.715 198.503 119.908 198.6 120.01 198.722Z" fill="#72716F"/>
<defs>
<clipPath id="clip0_130_17134">
<rect width="192" height="176" fill="white" transform="translate(233 233)"/>
</clipPath>
<clipPath id="clip1_130_17134">
<rect width="193" height="205" fill="white" transform="translate(0 204)"/>
</clipPath>
</defs>
</svg>
