<svg width="16" height="16" viewBox="0 0 16 16" fill="none" xmlns="http://www.w3.org/2000/svg">
<path d="M7.99994 13C9.6382 12.9794 11.2409 12.5195 12.6408 11.6683C14.0407 10.817 15.1865 9.60571 15.9586 8.16067C15.9857 8.11145 15.9999 8.05618 15.9999 8C15.9999 7.94382 15.9857 7.88856 15.9586 7.83933C15.1865 6.39429 14.0407 5.18295 12.6408 4.33173C11.2409 3.48051 9.6382 3.0206 7.99994 3C6.36169 3.0206 4.75898 3.48051 3.35908 4.33173C1.95918 5.18295 0.813387 6.39429 0.0412763 7.83933C0.0141984 7.88856 0 7.94382 0 8C0 8.05618 0.0141984 8.11145 0.0412763 8.16067C0.813387 9.60571 1.95918 10.817 3.35908 11.6683C4.75898 12.5195 6.36169 12.9794 7.99994 13ZM7.99994 3.66667C9.48761 3.68596 10.944 4.09659 12.2226 4.85726C13.5013 5.61794 14.5571 6.70184 15.2839 8C14.5571 9.29816 13.5013 10.3821 12.2226 11.1427C10.944 11.9034 9.48761 12.314 7.99994 12.3333C6.51227 12.314 5.0559 11.9034 3.77727 11.1427C2.49863 10.3821 1.4428 9.29816 0.715943 8C1.4428 6.70184 2.49863 5.61794 3.77727 4.85726C5.0559 4.09659 6.51227 3.68596 7.99994 3.66667ZM7.99994 10.6667C8.52736 10.6667 9.04293 10.5103 9.48146 10.2173C9.91999 9.92424 10.2618 9.50776 10.4636 9.02049C10.6655 8.53322 10.7183 7.99704 10.6154 7.47976C10.5125 6.96248 10.2585 6.48732 9.88556 6.11438C9.51262 5.74144 9.03747 5.48747 8.52018 5.38457C8.0029 5.28168 7.46672 5.33449 6.97945 5.53632C6.49218 5.73815 6.07571 6.07995 5.78269 6.51848C5.48967 6.95701 5.33328 7.47258 5.33328 8C5.33328 8.70724 5.61423 9.38552 6.11432 9.88562C6.61442 10.3857 7.2927 10.6667 7.99994 10.6667ZM7.99994 6C8.39551 6 8.78219 6.1173 9.11108 6.33706C9.43998 6.55682 9.69633 6.86918 9.8477 7.23463C9.99908 7.60009 10.0387 8.00222 9.96151 8.39018C9.88434 8.77814 9.69386 9.13451 9.41416 9.41421C9.13445 9.69392 8.77809 9.8844 8.39012 9.96157C8.00216 10.0387 7.60003 9.99913 7.23458 9.84776C6.86912 9.69638 6.55677 9.44004 6.337 9.11114C6.11724 8.78224 5.99994 8.39556 5.99994 8C5.99994 7.46957 6.21066 6.96086 6.58573 6.58579C6.9608 6.21071 7.46951 6 7.99994 6Z" fill="#07170D"/>
</svg>
