<svg width="18" height="18" viewBox="0 0 18 18" fill="none" xmlns="http://www.w3.org/2000/svg">
<path d="M6.1875 11.25C8.20679 11.25 9.84375 9.61304 9.84375 7.59375C9.84375 5.57446 8.20679 3.9375 6.1875 3.9375C4.16821 3.9375 2.53125 5.57446 2.53125 7.59375C2.53125 9.61304 4.16821 11.25 6.1875 11.25Z" stroke="#79B6D8" stroke-miterlimit="10"/>
<path d="M10.9277 4.07356C11.4306 3.93187 11.958 3.89959 12.4745 3.9789C12.9909 4.0582 13.4843 4.24725 13.9215 4.53332C14.3587 4.81938 14.7295 5.19581 15.009 5.63725C15.2884 6.07869 15.4701 6.5749 15.5416 7.09244C15.6132 7.60999 15.573 8.13686 15.4237 8.63756C15.2745 9.13827 15.0197 9.60119 14.6766 9.99513C14.3334 10.3891 13.9097 10.7049 13.4342 10.9213C12.9587 11.1378 12.4423 11.2498 11.9198 11.2499" stroke="#79B6D8" stroke-linecap="round" stroke-linejoin="round"/>
<path d="M1.125 13.8795C1.69603 13.0672 2.45411 12.4043 3.33524 11.9466C4.21636 11.489 5.19467 11.25 6.18756 11.25C7.18045 11.25 8.15877 11.4888 9.03993 11.9464C9.92109 12.404 10.6792 13.0669 11.2503 13.8791" stroke="#79B6D8" stroke-linecap="round" stroke-linejoin="round"/>
<path d="M11.9199 11.25C12.9129 11.2493 13.8914 11.4878 14.7727 11.9455C15.6539 12.4031 16.4119 13.0664 16.9824 13.8791" stroke="#79B6D8" stroke-linecap="round" stroke-linejoin="round"/>
</svg>
