<svg width="60" height="60" viewBox="0 0 60 60" fill="none" xmlns="http://www.w3.org/2000/svg">
<g clip-path="url(#clip0_1_5402)">
<path d="M31.707 12.2943C31.6142 12.2013 31.504 12.1275 31.3827 12.0772C31.2614 12.0269 31.1313 12.001 31 12.001C30.8687 12.001 30.7386 12.0269 30.6173 12.0772C30.496 12.1275 30.3858 12.2013 30.293 12.2943C30.2001 12.387 30.1263 12.4973 30.076 12.6186C30.0257 12.7399 29.9998 12.8699 29.9998 13.0012C29.9998 13.1326 30.0257 13.2626 30.076 13.3839C30.1263 13.5052 30.2001 13.6155 30.293 13.7082L34.293 17.7082C34.3857 17.8012 34.4959 17.8749 34.6172 17.9252C34.7386 17.9755 34.8686 18.0013 35 18.0012C35.1313 18.0013 35.2613 17.9755 35.3827 17.9252C35.504 17.8749 35.6142 17.8012 35.7069 17.7082C35.7999 17.6154 35.8736 17.5052 35.9239 17.3839C35.9742 17.2626 36.0001 17.1325 36.0001 17.0012C36.0001 16.8699 35.9742 16.7398 35.9239 16.6185C35.8736 16.4972 35.7999 16.387 35.7069 16.2942L31.707 12.2943ZM25.707 14.2942C25.316 13.9031 24.6839 13.9031 24.293 14.2942C23.9021 14.6852 23.9019 15.3172 24.293 15.7082L32.293 23.7082C32.3858 23.8012 32.496 23.8749 32.6173 23.9252C32.7386 23.9755 32.8687 24.0013 33 24.0012C33.1314 24.0013 33.2614 23.9755 33.3828 23.9252C33.5041 23.8749 33.6143 23.8012 33.707 23.7082C33.8 23.6154 33.8737 23.5052 33.924 23.3839C33.9743 23.2626 34.0002 23.1325 34.0002 23.0012C34.0002 22.8699 33.9743 22.7398 33.924 22.6185C33.8737 22.4972 33.8 22.387 33.707 22.2942L25.707 14.2942Z" fill="url(#paint0_linear_1_5402)"/>
<path d="M42.947 38.706L47.393 43.152C47.4856 43.2452 47.5957 43.319 47.7171 43.3693C47.8385 43.4196 47.9686 43.4453 48.1 43.445C48.2313 43.4451 48.3614 43.4193 48.4827 43.369C48.604 43.3188 48.7142 43.245 48.8069 43.152C49.1969 42.762 49.1969 42.1289 48.8069 41.738L44.1239 37.055C46.5709 33.2939 47.9999 28.8129 47.9999 24.001C47.9999 10.7679 37.2329 0.000976562 23.9999 0.000976562C10.7668 0.000976562 0 10.768 0 24.0011C0 37.2341 10.767 48.0011 24 48.0011C31.695 48.0011 38.552 44.3561 42.947 38.706ZM24 46.0011C11.869 46.0011 2.00004 36.1321 2.00004 24.0011C2.00004 11.8701 11.869 2.00102 24 2.00102C36.131 2.00102 46 11.87 46 24.001C46 36.132 36.131 46.0011 24 46.0011Z" fill="#07170D"/>
<path d="M24 4.00098C12.972 4.00098 4 12.973 4 24.001C4 35.0291 12.972 44.0009 24 44.0009C35.0281 44.0009 44.0001 35.0289 44.0001 24.0009C44.0001 12.9729 35.0281 4.00098 24 4.00098ZM24 42.001C14.0751 42.001 6.00004 33.926 6.00004 24.001C6.00004 14.0761 14.0751 6.00102 24 6.00102C33.925 6.00102 42 14.0761 42 24.001C42 33.926 33.925 42.001 24 42.001ZM58.5351 51.466L51.527 44.459C51.4343 44.366 51.3241 44.2922 51.2028 44.2419C51.0815 44.1916 50.9514 44.1658 50.82 44.1661H50.8191C50.6875 44.1662 50.5572 44.1923 50.4357 44.2429C50.3142 44.2936 50.2038 44.3677 50.1111 44.461L47.291 47.296C47.1984 47.3891 47.1249 47.4995 47.0749 47.6209C47.025 47.7424 46.9994 47.8725 46.9998 48.0038C47.0002 48.1352 47.0264 48.2651 47.0771 48.3863C47.1278 48.5075 47.2018 48.6175 47.295 48.71C47.687 49.1 48.3201 49.0989 48.709 48.706L50.822 46.582L57.121 52.88C57.687 53.447 58 54.2 58 55.002C58 55.8021 57.687 56.556 57.121 57.1221C55.952 58.291 54.05 58.293 52.879 57.1231L41.029 45.2731C40.639 44.8831 40.006 44.8831 39.615 45.2731C39.4277 45.4609 39.3225 45.7154 39.3225 45.9806C39.3225 46.2459 39.4277 46.5003 39.615 46.6882L51.465 58.5371C52.439 59.5121 53.719 59.9991 54.9991 59.9991C56.2791 59.9991 57.561 59.5112 58.5351 58.5371C59.479 57.592 60 56.3369 60 55.0019C60 53.666 59.479 52.41 58.5351 51.466Z" fill="#07170D"/>
</g>
<defs>
<linearGradient id="paint0_linear_1_5402" x1="26.5965" y1="3.53655" x2="37.3139" y2="6.91906" gradientUnits="userSpaceOnUse">
<stop stop-color="#0DBA48"/>
<stop offset="1" stop-color="#009B51"/>
</linearGradient>
<clipPath id="clip0_1_5402">
<rect width="60" height="60" fill="white"/>
</clipPath>
</defs>
</svg>
