<svg width="60" height="60" viewBox="0 0 60 60" fill="none" xmlns="http://www.w3.org/2000/svg">
<g clip-path="url(#clip0_1_5394)">
<path d="M48.957 21.2308V19.1589C48.957 18.9258 48.8644 18.7023 48.6996 18.5375C48.5348 18.3726 48.3112 18.28 48.0781 18.28C47.845 18.28 47.6215 18.3726 47.4566 18.5375C47.2918 18.7023 47.1992 18.9258 47.1992 19.1589V21.2308C47.1992 21.716 47.5928 22.1097 48.0781 22.1097C48.5634 22.1097 48.957 21.716 48.957 21.2308ZM30.5983 8.34792C29.9612 8.07558 29.2425 8.28429 28.8502 8.85745L17.4944 25.4775C16.686 26.6608 17.5635 28.3137 18.9918 28.3137H25.8133C25.8133 28.3137 23.8784 38.651 23.8729 38.6813C23.5937 40.1722 25.5959 41.0415 26.4639 39.7748L31.1943 32.8511C31.2595 32.7559 31.3052 32.6487 31.3289 32.5357C31.3526 32.4228 31.3538 32.3063 31.3325 32.1929C31.3112 32.0795 31.2677 31.9714 31.2046 31.8747C31.1415 31.7781 31.0599 31.6949 30.9646 31.6298C30.8693 31.5646 30.7621 31.5188 30.6491 31.4951C30.5362 31.4714 30.4196 31.4701 30.3061 31.4915C30.1926 31.5128 30.0845 31.5563 29.9878 31.6195C29.8912 31.6826 29.8079 31.7642 29.7428 31.8596L25.8798 37.5139C25.8798 37.5139 27.7327 27.6148 27.736 27.5964C27.8362 27.0628 27.4142 26.5559 26.8722 26.5559H18.9918C18.9817 26.5559 18.9718 26.5532 18.9631 26.548C18.9544 26.5428 18.9473 26.5353 18.9426 26.5264C18.9378 26.5174 18.9356 26.5074 18.9361 26.4973C18.9366 26.4871 18.9399 26.4774 18.9455 26.469L29.4343 11.1184C29.4343 11.1184 27.5812 21.018 27.5776 21.0358C27.4778 21.5701 27.8998 22.0763 28.4418 22.0763H36.3218C36.3675 22.0763 36.3932 22.1262 36.368 22.1633L31.7043 28.989C31.5728 29.1815 31.5232 29.4183 31.5664 29.6474C31.6095 29.8765 31.7419 30.0791 31.9344 30.2105C32.1269 30.342 32.3637 30.3917 32.5928 30.3485C32.8219 30.3054 33.0244 30.173 33.1559 29.9805C33.1559 29.9805 37.8127 23.1644 37.8196 23.1548C38.6271 21.9733 37.7491 20.3185 36.3222 20.3185H29.5007L31.4411 9.95151C31.5775 9.27722 31.2324 8.61898 30.5983 8.34792Z" fill="url(#paint0_linear_1_5394)"/>
<path d="M59.382 20.4551C58.8605 18.4502 56.6834 17.2618 54.7133 17.9063L53.8737 18.1811C52.543 14.5225 50.1392 11.3269 47.0145 8.82486C47.5913 6.69345 47.6357 4.24857 47.5603 2.504C47.4998 1.09189 46.2084 -0.0108441 44.8087 0.129195C41.2376 0.489429 38.9163 3.0392 38.0392 4.18998C35.4752 3.43189 32.7406 3.02314 29.9207 3.02314C25.9235 3.02314 22.1021 3.80947 18.5632 5.36045C18.4574 5.4067 18.3617 5.47335 18.2818 5.5566C18.2018 5.63984 18.139 5.73804 18.0969 5.84557C18.0549 5.95311 18.0345 6.06787 18.0369 6.18329C18.0393 6.29872 18.0644 6.41255 18.1108 6.51826C18.3055 6.96263 18.8241 7.16501 19.2686 6.97037C22.5842 5.51748 26.168 4.78095 29.9207 4.78095C35.4482 4.78095 41.0518 6.47513 45.4687 9.84146C45.4696 9.84193 45.471 9.8424 45.4714 9.84334C48.7889 12.366 51.2786 15.7013 52.4821 19.5516C52.6313 20.0286 53.1774 20.2886 53.6416 20.1064C53.6416 20.1064 55.258 19.5776 55.2598 19.5773C56.2843 19.2417 57.4099 19.8569 57.6805 20.8974C58.184 22.8333 58.7996 26.3759 57.2698 28.354C56.4519 29.4118 55.0511 29.952 53.106 29.9588C52.919 29.9508 52.7342 30.0027 52.5788 30.1071C52.4233 30.2114 52.3052 30.3627 52.2418 30.5389C50.8103 34.508 47.8674 38.0783 43.9549 40.5923C37.3342 44.8462 28.7342 45.6909 21.3208 43.1915C10.0034 39.3759 2.4173 26.6968 9.1639 15.5681C10.8141 12.8458 13.2221 10.4463 16.1274 8.62845C16.3218 8.50339 16.4592 8.30676 16.5097 8.08116C16.5602 7.85556 16.5198 7.61914 16.3972 7.42313C16.2746 7.22711 16.0798 7.08727 15.8548 7.03389C15.6299 6.98051 15.393 7.0179 15.1954 7.13794C12.058 9.1013 9.4523 11.701 7.66062 14.6567C6.4114 16.7171 5.55991 18.9561 5.13288 21.2604C4.49386 21.0535 3.61308 20.6906 2.88253 20.105C1.7362 19.1872 -0.0216101 20.0552 -4.76345e-05 21.5177C0.0219836 22.9669 0.397218 24.2845 1.1164 25.4329C2.00538 26.8533 3.39523 27.9593 5.24913 28.7266C6.06897 32.5012 8.03468 36.0045 10.9995 38.9282C10.9995 41.1965 11.4692 45.9417 15.0655 48.952C15.5681 49.3722 16.2131 49.6042 16.8814 49.6042H21.3999C23.2117 49.6042 24.5832 47.8625 24.1768 46.1015C24.1507 45.9902 24.1273 45.878 24.104 45.7663C25.9882 46.15 27.9369 46.3486 29.9203 46.3486C31.1055 46.3486 32.2782 46.2786 33.4327 46.1403C34.2723 47.6194 35.6763 49.6043 37.5713 49.6043H42.0904C43.9027 49.6043 45.2737 47.8638 44.8667 46.1014C44.8068 45.8424 44.1892 43.4944 43.9911 42.6311C44.2994 42.4508 44.6041 42.2641 44.9048 42.0713C48.955 39.4689 52.0518 35.8035 53.681 31.7011C55.9099 31.5852 57.5833 30.8222 58.6605 29.4292C60.5497 26.9866 60.0956 23.2007 59.382 20.4551ZM44.9847 1.87834C45.4127 1.83533 45.7858 2.15853 45.8041 2.57912C45.8549 3.76341 45.8641 5.81795 45.4805 7.68322C43.7473 6.49904 41.855 5.52533 39.8303 4.77556C40.7385 3.73412 42.5146 2.12736 44.9847 1.87834ZM1.75776 21.4917C1.75776 21.4764 1.76831 21.4651 1.78343 21.4774C2.83437 22.3192 4.0905 22.7889 4.8889 23.0242C4.88069 23.1172 4.87425 23.2101 4.86733 23.303C4.7853 24.4058 4.8023 25.5149 4.91409 26.6153C2.38577 25.1895 1.78202 23.1016 1.75776 21.4917ZM22.4637 46.4969C22.6203 47.174 22.0975 47.8464 21.3999 47.8464H16.8814C16.625 47.8464 16.3805 47.7604 16.1937 47.6038C13.8418 45.635 13.0714 42.7117 12.8439 40.5676C12.8517 40.5739 13.3557 40.9662 13.3579 40.9681C15.97 42.9511 18.9853 44.4215 22.2363 45.3192C22.2976 45.7128 22.3741 46.1069 22.4637 46.4969ZM43.1542 46.4969C43.3108 47.1758 42.7898 47.846 42.0904 47.846H37.5718C36.6507 47.846 35.7806 46.5432 35.3159 45.8501C37.7975 45.3837 40.1751 44.5935 42.3889 43.4963C42.5628 44.2201 43.1002 46.2635 43.1542 46.4969Z" fill="#07170D"/>
</g>
<defs>
<linearGradient id="paint0_linear_1_5394" x1="24.0607" y1="-14.4521" x2="52.4966" y2="-5.585" gradientUnits="userSpaceOnUse">
<stop stop-color="#0DBA48"/>
<stop offset="1" stop-color="#009B51"/>
</linearGradient>
<clipPath id="clip0_1_5394">
<rect width="60" height="60" fill="white"/>
</clipPath>
</defs>
</svg>
