<svg width="60" height="60" viewBox="0 0 60 60" fill="none" xmlns="http://www.w3.org/2000/svg">
<path d="M34.6375 16.8776C33.3406 16.9413 33.4363 18.8158 34.6871 18.752H38.436C38.9746 18.752 39.3715 19.1489 39.3715 19.6839V44.0588C39.3715 45.3096 41.2495 45.3096 41.2495 44.0588V26.2533H52.4997C53.1375 26.2533 53.3182 26.9337 53.4776 27.4581L56.2521 36.7063V46.8758H52.3898C51.1682 45.6731 49.5226 44.9989 47.8082 44.9989C46.0939 44.9989 44.4483 45.6731 43.2267 46.8758H26.2007C24.9038 46.9431 24.9995 48.8176 26.2503 48.7538H41.8908C41.4833 49.6042 41.2459 50.5574 41.2459 51.5637C41.2459 55.1779 44.194 58.1189 47.8082 58.1189C51.1 58.1189 53.8391 55.674 54.2997 52.5027H57.1876C57.4366 52.5027 57.6754 52.4037 57.8515 52.2277C58.0276 52.0516 58.1266 51.8127 58.1266 51.5637V36.5646C58.1261 36.4732 58.1118 36.3824 58.084 36.2953L55.1785 26.5864C54.7037 25.0025 53.6087 24.3754 52.4997 24.3754H41.2459V19.6839C41.2422 18.9398 40.9449 18.2273 40.4188 17.7011C39.8926 17.175 39.1801 16.8777 38.436 16.874L34.6375 16.8776ZM44.0629 28.1207C43.8145 28.1207 43.5762 28.2191 43.4002 28.3945C43.2242 28.5698 43.1248 28.8077 43.1239 29.0562V34.6901C43.1239 35.2075 43.5491 35.6256 44.0629 35.622H46.4866L48.0846 37.2201C48.2618 37.3973 48.4992 37.4965 48.7508 37.4965H53.2686C53.4142 37.496 53.5577 37.4616 53.6877 37.3959C53.8177 37.3302 53.9305 37.235 54.0172 37.118C54.1039 37.0011 54.1621 36.8654 54.1872 36.722C54.2122 36.5785 54.2034 36.4312 54.1615 36.2917L51.9115 28.7939C51.8545 28.6008 51.7369 28.4311 51.5762 28.3099C51.4154 28.1887 51.2199 28.1223 51.0185 28.1207H44.0629ZM44.9983 29.9987H50.3205L52.0107 35.622H49.137L47.5389 34.0275C47.4519 33.9392 47.3482 33.8689 47.2339 33.8209C47.1195 33.7729 46.9968 33.7479 46.8728 33.7476H45.0019L44.9983 29.9987ZM6.54561 30.9235C6.4223 30.9249 6.30047 30.9506 6.18707 30.999C6.07368 31.0475 5.97095 31.1179 5.88474 31.206C5.79853 31.2942 5.73054 31.3985 5.68464 31.513C5.63874 31.6274 5.61584 31.7498 5.61725 31.8731V51.5637C5.61725 52.0846 6.04245 52.5062 6.56333 52.5027H11.3221C11.7827 55.674 14.5111 58.1225 17.8065 58.1225C21.1018 58.1225 23.8373 55.674 24.2979 52.5027H38.436C39.6868 52.5027 39.6868 50.6247 38.436 50.6247H24.2979C24.0688 49.0653 23.2875 47.6399 22.0961 46.6079C20.9048 45.5759 19.3826 45.0058 17.8065 45.0013C16.0277 45.0013 14.4119 45.7206 13.2284 46.8793H7.49524V31.8696C7.49666 31.7445 7.47307 31.6204 7.42585 31.5045C7.37864 31.3887 7.30874 31.2834 7.22027 31.1949C7.13181 31.1065 7.02655 31.0366 6.9107 30.9894C6.79484 30.9421 6.67071 30.9185 6.54561 30.92V30.9235ZM44.0629 39.3745C42.844 39.4028 42.844 41.2206 44.0629 41.2525H45.9338C47.1527 41.2206 47.1527 39.4028 45.9338 39.3745H44.0629ZM17.8065 46.8758C18.4228 46.8739 19.0334 46.9939 19.6032 47.2288C20.173 47.4636 20.6908 47.8088 21.1267 48.2445C21.5627 48.6801 21.9083 49.1976 22.1436 49.7672C22.3789 50.3369 22.4993 50.9474 22.4979 51.5637C22.4988 52.1797 22.3781 52.7898 22.1426 53.359C21.907 53.9283 21.5614 54.4453 21.1255 54.8806C20.6895 55.3159 20.1719 55.6607 19.6024 55.8954C19.0328 56.1301 18.4225 56.2499 17.8065 56.248C17.1908 56.2499 16.5808 56.13 16.0116 55.8953C15.4425 55.6605 14.9253 55.3155 14.49 54.8802C14.0546 54.4448 13.7096 53.9277 13.4749 53.3585C13.2401 52.7893 13.1203 52.1794 13.1221 51.5637C13.1221 48.9628 15.2056 46.8758 17.8065 46.8758ZM47.8082 46.8758C48.4246 46.8739 49.0352 46.9939 49.605 47.2288C50.1748 47.4636 50.6925 47.8088 51.1285 48.2445C51.5645 48.6801 51.91 49.1976 52.1453 49.7672C52.3807 50.3369 52.5011 50.9474 52.4997 51.5637C52.5006 52.1797 52.3799 52.7898 52.1443 53.359C51.9088 53.9283 51.5632 54.4453 51.1272 54.8806C50.6913 55.3159 50.1737 55.6607 49.6041 55.8954C49.0346 56.1301 48.4243 56.2499 47.8082 56.248C47.1924 56.2504 46.5822 56.1308 46.0129 55.8962C45.4435 55.6616 44.9261 55.3167 44.4907 54.8812C44.0552 54.4458 43.7103 53.9285 43.4757 53.3591C43.2411 52.7897 43.1216 52.1795 43.1239 51.5637C43.1239 48.9628 45.2074 46.8758 47.8082 46.8758ZM7.49524 48.7538H11.889C11.6063 49.3463 11.4152 49.9783 11.3221 50.6282H7.49524V48.7538ZM17.8065 48.7538C17.0621 48.7566 16.349 49.0535 15.8227 49.5799C15.2963 50.1062 14.9994 50.8193 14.9966 51.5637C14.9966 53.1051 16.2651 54.3807 17.8065 54.3807C18.5521 54.376 19.266 54.0777 19.7932 53.5505C20.3205 53.0232 20.6188 52.3094 20.6235 51.5637C20.6179 50.819 20.3191 50.1064 19.7918 49.5805C19.2645 49.0545 18.5512 48.7575 17.8065 48.7538ZM47.8082 48.7538C47.0639 48.7566 46.3508 49.0535 45.8244 49.5799C45.2981 50.1062 45.0011 50.8193 44.9983 51.5637C44.9983 53.1051 46.2633 54.3807 47.8082 54.3807C48.5539 54.376 49.2677 54.0777 49.795 53.5505C50.3223 53.0232 50.6206 52.3094 50.6252 51.5637C50.6196 50.819 50.3208 50.1064 49.7936 49.5805C49.2663 49.0545 48.553 48.7575 47.8082 48.7538ZM53.7292 48.7538H56.2521V50.6282H54.3033C54.2084 49.9767 54.0148 49.347 53.7292 48.7538ZM17.8065 50.6282C18.338 50.6282 18.749 51.0322 18.749 51.5637C18.749 52.0916 18.3344 52.5027 17.8065 52.5027C17.6828 52.5046 17.56 52.4816 17.4454 52.4351C17.3308 52.3885 17.2267 52.3193 17.1394 52.2317C17.0521 52.1441 16.9834 52.0398 16.9373 51.925C16.8912 51.8102 16.8686 51.6874 16.871 51.5637C16.8691 51.4403 16.892 51.3178 16.9383 51.2034C16.9847 51.0891 17.0535 50.9852 17.1407 50.898C17.228 50.8107 17.3319 50.7419 17.4462 50.6955C17.5606 50.6492 17.6831 50.6263 17.8065 50.6282ZM47.8082 50.6282C48.3362 50.6282 48.7508 51.0322 48.7508 51.5637C48.7508 52.0952 48.3362 52.5027 47.8082 52.5027C47.6846 52.5046 47.5618 52.4816 47.4472 52.4351C47.3326 52.3885 47.2285 52.3193 47.1412 52.2317C47.0539 52.1441 46.9852 52.0398 46.939 51.925C46.8929 51.8102 46.8704 51.6874 46.8728 51.5637C46.8709 51.4403 46.8938 51.3178 46.9401 51.2034C46.9864 51.0891 47.0553 50.9852 47.1425 50.898C47.2298 50.8107 47.3337 50.7419 47.448 50.6955C47.5624 50.6492 47.6849 50.6263 47.8082 50.6282Z" fill="#07170D"/>
<path d="M16.8709 1.87109C8.60069 1.87109 1.87891 8.60351 1.87891 16.8738C1.87891 25.144 8.60424 31.8729 16.8745 31.8729C19.1845 31.8707 21.4629 31.3355 23.5322 30.3087C25.6015 29.282 27.4059 27.7915 28.8049 25.9532C30.2039 24.115 31.1597 21.9787 31.5979 19.7106C32.0361 17.4425 31.945 15.1039 31.3315 12.8768C31.0374 11.6083 29.1346 12.1327 29.5243 13.3729C30.0661 15.3219 30.1496 17.3698 29.7682 19.3564C29.3868 21.343 28.5508 23.2144 27.3257 24.8242C26.1007 26.4339 24.5197 27.7383 22.7066 28.6354C20.8935 29.5324 18.8974 29.9977 16.8745 29.9949C15.1504 29.9972 13.4428 29.6595 11.8494 29.001C10.256 28.3425 8.80818 27.3762 7.58874 26.1574C6.3693 24.9386 5.40223 23.4913 4.74288 21.8983C4.08353 20.3053 3.74487 18.5978 3.74627 16.8738C3.7444 15.1492 4.0827 13.4412 4.74179 11.8476C5.40089 10.254 6.36783 8.80598 7.58727 7.58655C8.80671 6.36711 10.2547 5.40016 11.8483 4.74107C13.442 4.08197 15.1499 3.74368 16.8745 3.74554C20.7864 3.74554 24.4573 5.48888 26.9306 8.43697H24.3794C23.1285 8.43697 23.1285 10.315 24.3794 10.315H29.0566C29.1805 10.3154 29.3033 10.2914 29.4179 10.2442C29.5324 10.197 29.6365 10.1276 29.7241 10.0399C29.8117 9.95233 29.8812 9.84824 29.9284 9.73367C29.9756 9.6191 29.9996 9.49633 29.9991 9.37242V4.68808C29.9991 4.43904 29.9002 4.2002 29.7241 4.02411C29.548 3.84801 29.3092 3.74908 29.0602 3.74908C28.8111 3.74908 28.5723 3.84801 28.3962 4.02411C28.2201 4.2002 28.1212 4.43904 28.1212 4.68808V6.97001C26.7159 5.36929 24.9857 4.0863 23.0459 3.20649C21.106 2.32668 19.001 1.87378 16.8709 1.87109ZM16.8745 8.44406C16.4068 8.46532 15.9355 8.7984 15.9355 9.37242V16.8738C15.9355 17.1218 16.0382 17.3627 16.2119 17.5399L19.9643 21.2923C20.8501 22.1782 22.1789 20.8459 21.2931 19.96L17.8135 16.4875V9.37242C17.8135 8.7169 17.3422 8.42634 16.8745 8.44406Z" fill="url(#paint0_linear_1_23598)"/>
<defs>
<linearGradient id="paint0_linear_1_23598" x1="8.36868" y1="-19.2909" x2="35.1555" y2="-10.8397" gradientUnits="userSpaceOnUse">
<stop stop-color="#0DBA48"/>
<stop offset="1" stop-color="#009B51"/>
</linearGradient>
</defs>
</svg>
