<svg width="60" height="60" viewBox="0 0 60 60" fill="none" xmlns="http://www.w3.org/2000/svg">
<g clip-path="url(#clip0_1_29704)">
<path d="M30 47.8123C30.5625 47.8123 30.9375 47.4373 30.9375 46.8748C30.9375 46.3123 30.5625 45.9373 30 45.9373C27.75 45.9373 25.5 45.5623 23.4375 44.9061V41.9061C23.4375 41.3436 23.3438 40.7811 23.0625 40.2186L22.125 38.3436C21.8438 37.7811 21.8438 37.2186 22.125 36.6561L23.0625 34.7811C23.3438 34.2186 23.4375 33.6561 23.4375 33.0936V29.8123C23.4375 28.4061 22.6875 27.0936 21.375 26.4373L20.25 25.8748C19.7812 25.6873 19.5 25.2186 19.3125 24.7498L18.1875 21.3748C17.9062 20.4373 17.1562 19.6873 16.3125 19.2186L15.1875 18.6561C14.5313 18.3748 14.1563 17.7186 14.1563 16.9686C14.1563 16.4061 13.7813 16.0311 13.2188 16.0311C12.6563 16.0311 12.2813 16.4061 12.2813 16.9686C12.2813 18.3748 13.125 19.6873 14.3438 20.3436L15.4688 20.9061C15.9375 21.0936 16.2188 21.4686 16.4062 21.9373L17.5313 25.3123C17.8125 26.2498 18.4688 26.9998 19.4063 27.4686L20.5312 28.0311C21.1875 28.3123 21.5625 28.9686 21.5625 29.7186V32.9998C21.5625 33.2811 21.4687 33.5623 21.375 33.8436L20.4375 35.7186C19.875 36.7498 19.875 37.9686 20.4375 39.0936L21.375 40.9686C21.4687 41.2498 21.5625 41.5311 21.5625 41.8123V44.1561C13.875 40.9686 8.4375 33.2811 8.4375 24.3748C8.4375 17.9061 11.3438 11.9998 15.9375 7.96856V8.71856C15.9375 9.28106 16.0312 9.84356 16.3125 10.4061C16.3125 10.4061 16.9688 11.1561 16.5 12.2811C16.3125 12.7498 15.8438 13.1248 15.375 13.3123C14.9062 13.4998 14.625 14.0623 14.8125 14.5311C15.0938 15.2811 15.9375 15.1873 16.0312 15.0936C17.0625 14.7186 17.9062 13.9686 18.2812 13.0311C18.6562 11.9998 18.6562 10.8748 18.1875 9.93731C18.1875 9.93731 17.7188 9.37481 17.8125 8.81231V6.56231C20.3438 4.87481 23.25 3.65606 26.4375 3.09356C26.9062 2.99981 27.2812 2.53106 27.1875 1.96856C27.0938 1.49981 26.625 1.12481 26.0625 1.21856C14.8125 3.18731 6.5625 12.8436 6.5625 24.3748C6.5625 37.3123 17.0625 47.8123 30 47.8123ZM48.5625 7.12481C57.75 17.0623 57.5625 32.6248 47.9062 42.2811C47.5312 42.6561 47.5312 43.3123 47.9062 43.5936C48.4688 43.9686 49.0312 43.7811 49.2188 43.5936C59.625 33.1873 59.8125 16.4998 49.875 5.81231L51.2812 4.40606C51.6562 4.03106 51.6562 3.46856 51.2812 3.09356C50.9062 2.71856 50.3438 2.71856 49.9688 3.09356L47.25 5.81231C46.875 6.18731 46.875 6.74981 47.25 7.12481C47.7188 7.49981 48.375 7.31231 48.5625 7.12481ZM58.125 57.1873H56.25C55.6875 57.1873 55.3125 57.5623 55.3125 58.1248C55.3125 58.6873 55.6875 59.0623 56.25 59.0623H58.125C58.6875 59.0623 59.0625 58.6873 59.0625 58.1248C59.0625 57.5623 58.6875 57.1873 58.125 57.1873Z" fill="#07170D"/>
<path d="M52.5 57.1875H38.3438C37.875 55.0312 36 53.4375 33.75 53.4375H30.9375V51.5625C36 51.375 41.0625 49.875 45.4688 46.7813C45.9375 46.5 46.0312 45.9375 45.75 45.4688C45.4688 45 44.9062 44.9063 44.4375 45.1875C40.0312 48.1875 34.9688 49.6875 30 49.6875C23.8125 49.6875 17.625 47.3438 12.8438 42.8438C13.125 42.4688 13.0312 42 12.75 41.7188C12.375 41.3438 11.8125 41.3438 11.4375 41.7188L10.875 42.2812L8.8125 44.3437C8.4375 44.7187 8.4375 45.2813 8.8125 45.6563C9.28125 46.0313 9.9375 45.8438 10.125 45.6563L11.5312 44.25C16.5 48.8438 22.7812 51.375 29.1562 51.5625V53.4375H26.3438C24.0938 53.4375 22.2188 55.0312 21.75 57.1875H16.875C16.3125 57.1875 15.9375 57.5625 15.9375 58.125C15.9375 58.6875 16.3125 59.0625 16.875 59.0625H30.9375C31.5 59.0625 31.875 58.6875 31.875 58.125C31.875 57.5625 31.5 57.1875 30.9375 57.1875H23.625C24 56.0625 25.0312 55.3125 26.25 55.3125H33.75C34.9688 55.3125 36 56.0625 36.375 57.1875H34.6875C34.125 57.1875 33.75 57.5625 33.75 58.125C33.75 58.6875 34.125 59.0625 34.6875 59.0625H52.5C53.0625 59.0625 53.4375 58.6875 53.4375 58.125C53.4375 57.5625 53.0625 57.1875 52.5 57.1875ZM13.125 57.1875H1.875C1.3125 57.1875 0.9375 57.5625 0.9375 58.125C0.9375 58.6875 1.3125 59.0625 1.875 59.0625H13.125C13.6875 59.0625 14.0625 58.6875 14.0625 58.125C14.0625 57.5625 13.6875 57.1875 13.125 57.1875Z" fill="#07170D"/>
<path d="M32.25 33.5625C32.4375 33.75 33.1875 34.0312 33.5625 33.5625C33.9375 33.1875 33.9375 32.625 33.5625 32.25L31.5 30.1875C31.125 29.8125 30.9375 29.3438 30.9375 28.7812V23.625C30.9375 23.0625 31.125 22.5938 31.5 22.2188L33.5625 20.1562C33.9375 19.7812 34.4062 19.5938 34.9687 19.5938H38.25C38.8125 19.5938 39.2812 19.7812 39.6562 20.1562L41.7188 22.2188C42.375 22.9688 43.4063 23.3438 44.4375 23.3438H46.5C46.6875 23.3438 46.875 23.3438 47.1562 23.4375L51.6562 24.9375C51.4687 31.5938 48.2813 37.5 43.3125 41.3438L40.7812 37.5938C40.5938 37.3125 40.5 36.9375 40.5 36.5625C40.5 34.5 38.8125 32.7188 36.6562 32.7188C36.0937 32.7188 35.7187 33.0938 35.7187 33.6562C35.7187 34.2188 36.0937 34.5938 36.6562 34.5938C37.6875 34.5938 38.625 35.4375 38.625 36.5625C38.625 37.3125 38.8125 38.0625 39.2813 38.7188L41.8125 42.4688C39.4687 43.9688 36.8437 45 34.0312 45.5625C33.5625 45.6562 33.1875 46.125 33.2813 46.6875C33.4688 47.625 34.3125 47.4375 34.4063 47.4375C45.375 45.4688 53.4375 35.7188 53.4375 24.375C53.4375 21.0938 52.7813 18 51.4688 15C51.2813 14.5312 50.7187 14.3438 50.25 14.5312C49.7812 14.7188 49.5937 15.2812 49.7812 15.75C50.0625 16.4062 50.3438 17.1562 50.5313 17.8125H47.8125C47.8125 16.7812 46.9688 15.9375 45.9375 15.9375H44.25C43.875 15.9375 43.5938 15.75 43.5 15.4688L42.6562 13.6875C42.1875 12.75 41.25 12.1875 40.2188 12.1875C39.4688 12.1875 38.8125 12.4688 38.25 13.0312L37.4063 13.875C37.2188 14.0625 37.0313 14.1562 36.75 14.1562H34.5C34.3125 14.1562 34.0312 14.0625 33.8437 13.875C33.4687 13.5 33.4687 12.9375 33.8437 12.5625C34.4062 12.0938 34.6875 11.3438 34.6875 10.5938V8.25C34.6875 8.0625 34.7812 7.78125 34.9687 7.59375L38.1563 4.40625C41.8125 5.90625 45.0938 8.4375 47.5313 11.8125C47.7188 12.0938 48.1875 12.375 48.8437 12C49.3125 11.7188 49.4062 11.1562 49.0312 10.6875C44.625 4.59375 37.5 0.9375 30 0.9375C29.4375 0.9375 29.0625 1.3125 29.0625 1.875C29.0625 2.4375 29.4375 2.8125 30 2.8125C32.1563 2.8125 34.2187 3.09375 36.1875 3.75L33.6563 6.28125C33.0938 6.84375 32.8125 7.5 32.8125 8.25V10.5C32.8125 10.7812 32.7188 10.9688 32.5313 11.1562C31.5 12.1875 31.5 13.9688 32.625 15.0938C33.1875 15.6562 33.8438 15.9375 34.5938 15.9375H36.8437C37.5938 15.9375 38.25 15.6562 38.8125 15.0938L39.6562 14.25C40.0312 13.875 40.7812 13.9688 41.0625 14.4375L41.9063 16.2187C42.375 17.1562 43.3125 17.7188 44.3438 17.7188H45.9375C45.9375 18.75 46.7812 19.5938 47.8125 19.5938H51.0938C51.375 20.7188 51.4688 21.8438 51.5625 22.9688L47.7188 21.6562C47.25 21.6562 46.875 21.5625 46.4062 21.5625H44.3438C43.7812 21.5625 43.3125 21.375 42.9375 21L40.875 18.9375C40.125 18.1875 39.1875 17.8125 38.1563 17.8125H34.875C33.8438 17.8125 32.9062 18.1875 32.1562 18.9375L30.0937 21C29.3437 21.75 28.9688 22.6875 28.9688 23.7188V28.875C28.9688 29.9062 29.3437 30.8438 30.0937 31.5938L32.25 33.5625Z" fill="url(#paint0_linear_1_29704)"/>
</g>
<defs>
<linearGradient id="paint0_linear_1_29704" x1="34.2635" y1="-31.8724" x2="57.6484" y2="-27.9901" gradientUnits="userSpaceOnUse">
<stop stop-color="#0DBA48"/>
<stop offset="1" stop-color="#009B51"/>
</linearGradient>
<clipPath id="clip0_1_29704">
<rect width="60" height="60" fill="white"/>
</clipPath>
</defs>
</svg>
