<svg width="60" height="60" viewBox="0 0 60 60" fill="none" xmlns="http://www.w3.org/2000/svg">
<g clip-path="url(#clip0_1_23585)">
<path d="M51.4027 56.9975L51.1346 57.1259C50.8962 57.2344 50.6248 57.245 50.3786 57.1555C50.1324 57.0661 49.9312 56.8836 49.8181 56.6474C49.705 56.4112 49.6891 56.14 49.7737 55.8922C49.8584 55.6443 50.0368 55.4396 50.2708 55.3219L50.5391 55.1935C53.0804 53.977 54.4432 51.1064 53.7794 48.368L51.8963 40.5996C51.6664 39.6499 51.2079 38.7707 50.5607 38.0386C49.9134 37.3065 49.097 36.7437 48.1826 36.3991L41.5408 33.8941C41.2927 33.8005 41.0918 33.6122 40.9826 33.3705C40.8733 33.1288 40.8645 32.8537 40.9581 32.6055C41.0517 32.3573 41.24 32.1565 41.4817 32.0472C41.7233 31.938 41.9985 31.9291 42.2467 32.0228L48.8884 34.5278C50.1077 34.9871 51.1962 35.7375 52.0591 36.7137C52.9221 37.6898 53.5335 38.862 53.8399 40.1284L55.7231 47.8968C56.6081 51.5481 54.7912 55.3754 51.4027 56.9975ZM8.10219 40.5998C8.33206 39.65 8.79058 38.7708 9.43784 38.0387C10.0851 37.3066 10.9015 36.7438 11.8159 36.3993L24.2168 31.7221C32.3088 35.7489 41.7558 29.7438 41.7558 20.7009L41.7492 18.1224C41.7485 17.8572 41.6425 17.6031 41.4544 17.416C41.2664 17.229 41.0118 17.1243 40.7466 17.125C40.4813 17.1257 40.2273 17.2317 40.0402 17.4198C39.8532 17.6078 39.7485 17.8624 39.7492 18.1276L39.7558 20.7034C39.7558 26.33 35.2421 30.9409 29.6937 30.982C24.0904 31.033 19.4774 26.4998 19.4774 20.8435L19.4783 18.0935C19.4784 17.8283 19.3732 17.5739 19.1857 17.3863C18.9982 17.1987 18.7439 17.0932 18.4787 17.0931C18.2135 17.093 17.9591 17.1983 17.7715 17.3858C17.5839 17.5732 17.4784 17.8275 17.4783 18.0928L17.4774 20.8431C17.4774 24.5889 19.1647 28.0549 22.1057 30.3808L11.1103 34.5279C9.89108 34.9873 8.8026 35.7377 7.93961 36.7138C7.07662 37.6899 6.46529 38.8622 6.15881 40.1285L4.27544 47.897C3.39031 51.5481 5.20719 55.3754 8.59569 56.9976L8.86394 57.126C8.98239 57.1827 9.11085 57.2155 9.24199 57.2226C9.37313 57.2297 9.50438 57.2109 9.62824 57.1672C9.7521 57.1235 9.86615 57.0559 9.96388 56.9682C10.0616 56.8805 10.1411 56.7743 10.1978 56.6559C10.2545 56.5374 10.2874 56.409 10.2944 56.2778C10.3015 56.1467 10.2827 56.0154 10.239 55.8916C10.1953 55.7677 10.1277 55.6537 10.04 55.5559C9.95226 55.4582 9.84614 55.3787 9.72769 55.322L9.45944 55.1936C6.91819 53.9771 5.55544 51.1065 6.21919 48.3681L8.10219 40.5998ZM25.1069 18.0931V19.7718C25.1069 20.037 25.2123 20.2913 25.3998 20.4789C25.5874 20.6664 25.8417 20.7718 26.1069 20.7718C26.3722 20.7718 26.6265 20.6664 26.814 20.4789C27.0016 20.2913 27.1069 20.037 27.1069 19.7718V18.0931C27.1069 17.8279 27.0016 17.5736 26.814 17.386C26.6265 17.1985 26.3722 17.0931 26.1069 17.0931C25.8417 17.0931 25.5874 17.1985 25.3998 17.386C25.2123 17.5736 25.1069 17.8279 25.1069 18.0931ZM32.1262 18.0931V19.7718C32.1262 20.037 32.2315 20.2913 32.4191 20.4789C32.6066 20.6664 32.861 20.7718 33.1262 20.7718C33.3914 20.7718 33.6458 20.6664 33.8333 20.4789C34.0208 20.2913 34.1262 20.037 34.1262 19.7718V18.0931C34.1262 17.8279 34.0208 17.5736 33.8333 17.386C33.6458 17.1985 33.3914 17.0931 33.1262 17.0931C32.861 17.0931 32.6066 17.1985 32.4191 17.386C32.2315 17.5736 32.1262 17.8279 32.1262 18.0931ZM39.3149 36H31.1043C30.8391 36 30.5847 36.1054 30.3972 36.2929C30.2097 36.4804 30.1043 36.7348 30.1043 37C30.1043 37.2652 30.2097 37.5196 30.3972 37.7071C30.5847 37.8946 30.8391 38 31.1043 38H39.3149C39.4964 38.0002 39.6703 38.0724 39.7986 38.2006C39.9268 38.3289 39.999 38.5028 39.9992 38.6843V57.3159C39.999 57.4973 39.9268 57.6712 39.7986 57.7995C39.6703 57.9278 39.4964 57.9999 39.3149 58.0001H20.6834C20.502 57.9999 20.3281 57.9278 20.1998 57.7995C20.0715 57.6712 19.9994 57.4973 19.9992 57.3159V38.6843C19.9994 38.5028 20.0715 38.3289 20.1998 38.2006C20.3281 38.0724 20.502 38.0002 20.6834 38H25.2624V42.8234C25.2624 44.5609 27.1384 45.651 28.6486 44.7884L29.8159 44.1211C29.8558 44.0985 29.9008 44.0866 29.9466 44.0866C29.9924 44.0866 30.0374 44.0985 30.0772 44.1211L31.2449 44.7884C32.7534 45.6504 34.6309 44.5625 34.6309 42.8234V40.921C34.6309 40.6558 34.5256 40.4014 34.338 40.2139C34.1505 40.0264 33.8962 39.921 33.6309 39.921C33.3657 39.921 33.1114 40.0264 32.9238 40.2139C32.7363 40.4014 32.6309 40.6558 32.6309 40.921V42.8234C32.6309 42.9486 32.5597 43.0163 32.4999 43.0509C32.3263 43.1516 32.3346 43.1074 31.0694 42.3845C30.3771 41.9888 29.5167 41.9889 28.8238 42.3845L27.6563 43.0518C27.6164 43.075 27.571 43.0872 27.5248 43.0872C27.4785 43.0872 27.4331 43.075 27.3932 43.0518C27.3532 43.0286 27.3201 42.9953 27.2971 42.9552C27.2742 42.9151 27.2623 42.8696 27.2626 42.8234V37C27.2626 36.7348 27.1572 36.4804 26.9697 36.2929C26.7821 36.1054 26.5278 36 26.2626 36H20.6836C19.2033 36 17.9992 37.2041 17.9992 38.6843V57.3159C17.9992 58.796 19.2033 60.0001 20.6834 60.0001H39.3151C40.7952 60.0001 41.9993 58.796 41.9993 57.3159V38.6843C41.9992 37.2041 40.7951 36 39.3149 36ZM17.4819 6.001C17.4819 2.69213 20.1741 0 23.4832 0H35.7546C39.0637 0 41.7558 2.69213 41.7558 6.00113C41.7558 7.81675 41.7492 10.3854 41.7492 10.7291C41.7492 13.4976 39.4968 15.75 36.7283 15.75H22.5201C19.7516 15.75 17.4992 13.4976 17.4992 10.7291C17.4992 9.765 17.4812 8.6925 17.4819 6.001ZM39.7492 10H19.4992V10.7291C19.4992 12.3949 20.8543 13.75 22.5201 13.75H36.7283C38.3941 13.75 39.7492 12.3949 39.7492 10.7291V10ZM19.4813 8H39.7557V6.00113C39.7557 3.795 37.9608 2 35.7544 2H23.4831C21.2768 2 19.4818 3.79488 19.4818 6.00113L19.4813 8Z" fill="white"/>
<path d="M39.3158 36H31.1051C30.8399 36 30.5856 36.1054 30.398 36.2929C30.2105 36.4804 30.1051 36.7348 30.1051 37C30.1051 37.2652 30.2105 37.5196 30.398 37.7071C30.5856 37.8946 30.8399 38 31.1051 38H39.3158C39.4972 38.0002 39.6711 38.0724 39.7994 38.2006C39.9276 38.3289 39.9998 38.5028 40 38.6842V57.3159C39.9998 57.4973 39.9276 57.6712 39.7994 57.7995C39.6711 57.9278 39.4972 57.9999 39.3158 58.0001H20.6843C20.5028 57.9999 20.3289 57.9278 20.2006 57.7995C20.0724 57.6712 20.0002 57.4973 20 57.3159V38.6842C20.0002 38.5028 20.0724 38.3289 20.2006 38.2006C20.3289 38.0724 20.5028 38.0002 20.6843 38H25.2633V42.8234C25.2633 44.5609 27.1393 45.651 28.6494 44.7884L29.8168 44.1211C29.8566 44.0985 29.9016 44.0866 29.9474 44.0866C29.9932 44.0866 30.0382 44.0985 30.078 44.1211L31.2458 44.7884C32.7543 45.6504 34.6317 44.5625 34.6317 42.8234V40.921C34.6317 40.6558 34.5264 40.4014 34.3389 40.2139C34.1513 40.0264 33.897 39.921 33.6317 39.921C33.3665 39.921 33.1122 40.0264 32.9246 40.2139C32.7371 40.4014 32.6317 40.6558 32.6317 40.921V42.8234C32.6317 42.9486 32.5605 43.0163 32.5008 43.0509C32.3271 43.1516 32.3354 43.1074 31.0703 42.3845C30.3779 41.9887 29.5175 41.9889 28.8246 42.3845L27.6571 43.0517C27.6172 43.075 27.5718 43.0872 27.5256 43.0872C27.4794 43.0872 27.434 43.075 27.394 43.0518C27.354 43.0286 27.3209 42.9953 27.2979 42.9552C27.275 42.9151 27.2631 42.8696 27.2634 42.8234V37C27.2634 36.7348 27.158 36.4804 26.9705 36.2929C26.7829 36.1054 26.5286 36 26.2634 36H20.6844C19.2041 36 18 37.2041 18 38.6842V57.3159C18 58.796 19.2041 60.0001 20.6843 60.0001H39.3159C40.796 60.0001 42.0001 58.796 42.0001 57.3159V38.6842C42 37.2041 40.7959 36 39.3158 36Z" fill="white"/>
</g>
<defs>
<clipPath id="clip0_1_23585">
<rect width="60" height="60" fill="white"/>
</clipPath>
</defs>
</svg>
