<svg width="60" height="60" viewBox="0 0 60 60" fill="none" xmlns="http://www.w3.org/2000/svg">
<g clip-path="url(#clip0_1_29690)">
<path d="M50.8779 10.9639L48.7696 9.43925C48.5857 9.30684 48.3567 9.25291 48.133 9.28931C47.9094 9.32571 47.7093 9.44947 47.5769 9.63335L45.9898 11.8308L39.924 7.43591C39.3709 7.03585 38.5982 7.1594 38.1978 7.71205L36.9278 9.45878L36.8853 9.42826C36.7438 9.32624 36.5823 9.25529 36.4114 9.22005C36.2405 9.18481 36.0641 9.18608 35.8937 9.22377C35.7234 9.26146 35.5629 9.33472 35.4228 9.43876C35.2828 9.5428 35.1663 9.67526 35.081 9.82746L33.9454 11.8613C33.7979 12.1258 33.7526 12.4351 33.8179 12.7307C33.8832 13.0263 34.0547 13.2878 34.2998 13.4655L34.4667 13.5875L32.8796 16.1512L32.8992 1.66383C32.9001 0.751526 32.1614 0.0104989 31.2486 0.00854562H28.5143C27.6015 0.00903394 26.8624 0.749206 26.8624 1.66151V6.44694H22.9033V1.66139C22.9053 1.22227 22.7322 0.800236 22.4227 0.488321C22.1132 0.176406 21.6921 0.000976642 21.2529 0H18.5171C17.6052 0.00146496 16.8666 0.741027 16.8666 1.65297L16.8518 17.0082L16.279 16.4369C15.49 15.6444 14.4663 15.1276 13.3601 14.9634L8.47688 14.2309L7.42821 13.1737L7.84219 12.7598C7.92157 12.6805 7.98455 12.5863 8.02752 12.4826C8.07049 12.379 8.0926 12.2678 8.0926 12.1556C8.0926 12.0434 8.07049 11.9322 8.02752 11.8286C7.98455 11.7249 7.92157 11.6307 7.84219 11.5514L6.32864 10.0374C6.16954 9.87814 5.98055 9.75181 5.77253 9.66571C5.5645 9.57961 5.34152 9.53543 5.11638 9.53569C4.89105 9.53495 4.66782 9.57905 4.4597 9.66542C4.25157 9.75179 4.06272 9.87871 3.90412 10.0388L0.560344 13.3837C-0.108656 14.0541 -0.108656 15.1395 0.560344 15.8095L2.07292 17.3245C2.15303 17.4046 2.24824 17.4679 2.35303 17.5109C2.45781 17.5538 2.57008 17.5756 2.68332 17.5748C2.79656 17.5755 2.90881 17.5538 3.01359 17.5108C3.11836 17.4678 3.21358 17.4045 3.29372 17.3245L3.64531 16.9717L4.79543 18.1205L5.4554 22.8501C5.4554 22.8669 5.46162 22.8839 5.46394 22.9012H3.63274C3.40428 22.9 3.17786 22.9441 2.96648 23.0308C2.7551 23.1174 2.56295 23.2451 2.40106 23.4063C2.23918 23.5675 2.11076 23.7591 2.02318 23.9701C1.93561 24.1811 1.89061 24.4073 1.89077 24.6358V27.6255C1.89175 28.5811 2.66623 29.356 3.62187 29.3565H5.64377L9.55033 57.7097C9.73492 59.0201 10.8542 59.9957 12.1775 60H37.3575C38.6837 59.9963 39.8047 59.0163 39.9859 57.7025L43.8073 29.3565H45.8177C46.7733 29.356 47.5483 28.5811 47.5488 27.6254V24.6359C47.5483 23.6803 46.7733 22.9053 45.8177 22.9048H42.9832L44.6338 20.9454L44.9851 21.199C45.2301 21.3772 45.5321 21.459 45.8336 21.4289C46.1351 21.3987 46.4149 21.2587 46.6198 21.0354L48.1983 19.3263C48.3164 19.1978 48.4059 19.0457 48.4611 18.8801C48.5162 18.7146 48.5357 18.5392 48.5182 18.3655C48.5006 18.1919 48.4465 18.0239 48.3594 17.8727C48.2723 17.7215 48.1542 17.5904 48.0128 17.488L47.7539 17.3L49.0199 15.5505C49.1153 15.4191 49.1839 15.2701 49.2216 15.1122C49.2594 14.9542 49.2656 14.7903 49.2398 14.63C49.2142 14.4697 49.1573 14.3161 49.0723 14.1778C48.9872 14.0395 48.8758 13.9194 48.7443 13.8242L47.3734 12.8317L48.4611 11.3292L49.876 12.3534C50.2579 12.6296 50.7916 12.5437 51.0681 12.1618C51.3446 11.7798 51.2598 11.2457 50.8779 10.969V10.9639ZM22.8961 8.15032H26.8562V9.23037C26.8577 9.31502 26.8423 9.39913 26.8108 9.47774C26.7794 9.55636 26.7325 9.6279 26.6731 9.68817C26.6143 9.74855 26.5439 9.79645 26.4661 9.82899C26.3883 9.86152 26.3048 9.87803 26.2205 9.87751H23.5347C23.3653 9.87622 23.2032 9.80777 23.0841 9.68716C22.9651 9.56655 22.8987 9.40363 22.8996 9.23415L22.8961 8.15032ZM18.5743 1.70668H21.1929L21.187 9.22561C21.1814 10.5245 22.2304 11.5819 23.5295 11.5866H26.2153C27.5114 11.5852 28.5604 10.5337 28.5592 9.23806L28.5653 1.71767H31.1839L31.1648 22.9048H22.7547L18.5585 18.7126L18.5743 1.70668ZM3.02856 15.1624L2.68185 15.5103L1.76869 14.5971L5.12102 11.2509L6.03198 12.1604L4.99674 13.1957L3.02856 15.1624ZM5.29474 16.2257L4.8417 15.7728L6.2212 14.393L6.67388 14.8461L7.05868 15.231L5.67526 16.6044L5.29474 16.2257ZM7.14022 22.6168L6.5203 18.1852L8.71775 15.9878L13.1126 16.6515C13.8574 16.7616 14.5467 17.1094 15.0779 17.643L20.3444 22.9048H7.19028C7.1683 22.8095 7.15024 22.7133 7.14022 22.6168ZM38.2927 57.474C38.2616 57.7001 38.1498 57.9073 37.9779 58.0574C37.8061 58.2075 37.5857 58.2905 37.3575 58.2909H12.1736C11.946 58.2904 11.7261 58.2078 11.5546 58.0582C11.383 57.9085 11.2713 57.702 11.2399 57.4765L7.36876 29.3565H42.0823L38.2927 57.474ZM45.8397 24.6345V27.6244C45.8397 27.6303 45.8373 27.6359 45.8332 27.64C45.8291 27.6441 45.8235 27.6464 45.8177 27.6464H3.62187C3.61606 27.6464 3.61051 27.644 3.6064 27.6399C3.6023 27.6358 3.59996 27.6303 3.5999 27.6244V24.6359C3.5999 24.6301 3.60221 24.6245 3.60633 24.6204C3.61045 24.6163 3.61604 24.6139 3.62187 24.6139H45.8177C45.8301 24.6139 45.8397 24.6235 45.8397 24.6359V24.6345ZM40.7489 22.9034H32.8786V19.407L35.8548 14.5901L43.2431 19.9381L40.7489 22.9034ZM45.647 19.5671L35.645 12.3263L36.3164 11.1241L46.5797 18.5539L45.647 19.5671ZM46.3695 16.2915L44.5273 14.9572L38.3146 10.4612L39.3035 9.09498L47.3608 14.9268L46.3695 16.2915Z" fill="#07170D"/>
<path d="M18.0552 46.3799H18.1415L18.978 46.2783C19.3678 47.3832 20.0641 48.3544 20.9855 49.0782C21.9069 49.802 23.0153 50.2485 24.1812 50.3655C24.384 50.3864 24.5877 50.3966 24.7916 50.396C25.9163 50.3979 27.0196 50.0889 27.9797 49.5032C28.9399 48.9175 29.7196 48.0779 30.2327 47.0771C30.434 46.6603 30.2666 46.159 29.8555 45.9463C29.4443 45.7337 28.939 45.8868 28.7152 46.2921C28.3319 47.032 27.7477 47.6489 27.0297 48.0719C26.3117 48.4949 25.489 48.7069 24.656 48.6836C23.8229 48.6602 23.0134 48.4025 22.3202 47.9399C21.627 47.4773 21.0783 46.8287 20.737 46.0684L21.6308 45.9611C21.7762 45.9439 21.913 45.8835 22.0237 45.7877C22.1344 45.6919 22.2138 45.5651 22.2517 45.4237C22.2897 45.2823 22.2844 45.1328 22.2367 44.9944C22.1889 44.8561 22.1008 44.7351 21.9837 44.6473L20.0365 43.1933C19.8855 43.0806 19.6968 43.0305 19.5097 43.0532C19.3227 43.0759 19.1515 43.1698 19.0318 43.3154L17.4897 45.1881C17.4034 45.2954 17.3492 45.4248 17.3331 45.5616C17.3171 45.6983 17.3399 45.8368 17.399 45.9611C17.4579 46.0856 17.5508 46.1909 17.6668 46.2649C17.7829 46.339 17.9175 46.3788 18.0552 46.3799ZM19.5507 41.1304C19.7457 41.2454 19.9784 41.2782 20.1977 41.2217C20.4169 41.1652 20.6048 41.0239 20.7199 40.829C21.1429 40.1089 21.7608 39.523 22.5024 39.1389C23.2439 38.7547 24.0789 38.5879 24.9111 38.6577C25.7433 38.7275 26.5388 39.031 27.206 39.5334C27.8732 40.0357 28.3849 40.7163 28.682 41.4968L27.8655 41.5944C27.7202 41.6117 27.5834 41.6722 27.4728 41.768C27.3622 41.8639 27.2828 41.9907 27.245 42.1321C27.2071 42.2734 27.2126 42.4229 27.2605 42.5612C27.3085 42.6995 27.3968 42.8202 27.5141 42.9078L29.3978 44.3193C29.5488 44.432 29.7375 44.4823 29.9246 44.4595C30.1117 44.4368 30.2829 44.3428 30.4025 44.1972L31.899 42.3794C31.992 42.2664 32.0491 42.1282 32.0627 41.9825C32.0764 41.8367 32.0461 41.6903 31.9757 41.562C31.9055 41.4336 31.7984 41.3292 31.6683 41.2623C31.5382 41.1954 31.391 41.1691 31.2457 41.1867L30.4158 41.2868C30.0711 40.1442 29.4009 39.1269 28.4871 38.3591C27.5734 37.5914 26.4557 37.1066 25.2708 36.9639C22.8498 36.673 20.4853 37.8424 19.2479 39.9439C19.1882 40.0413 19.1487 40.1496 19.1317 40.2625C19.1146 40.3754 19.1204 40.4905 19.1486 40.6012C19.1768 40.7118 19.2269 40.8157 19.296 40.9066C19.3651 40.9975 19.4517 41.0737 19.5507 41.1305V41.1304Z" fill="url(#paint0_linear_1_29690)"/>
</g>
<defs>
<linearGradient id="paint0_linear_1_29690" x1="20.5172" y1="27.4144" x2="33.4498" y2="31.8781" gradientUnits="userSpaceOnUse">
<stop stop-color="#0DBA48"/>
<stop offset="1" stop-color="#009B51"/>
</linearGradient>
<clipPath id="clip0_1_29690">
<rect width="60" height="60" fill="white"/>
</clipPath>
</defs>
</svg>
