<svg width="60" height="60" viewBox="0 0 60 60" fill="none" xmlns="http://www.w3.org/2000/svg">
<g clip-path="url(#clip0_1_23569)">
<mask id="mask0_1_23569" style="mask-type:luminance" maskUnits="userSpaceOnUse" x="0" y="0" width="60" height="60">
<path d="M59.1498 59.15V0.850174H0.85V59.15H59.1498Z" fill="white" stroke="white" stroke-width="1.7"/>
</mask>
<g mask="url(#mask0_1_23569)">
<path d="M30.2408 18.9636V13.8131H28.8416C26.8358 13.8131 25.9042 11.3244 27.4177 10.0089L37.2958 1.41215C38.1119 0.700705 39.3275 0.700705 40.1437 1.41215L50.0219 10.0089C51.5342 11.3256 50.6037 13.8131 48.598 13.8131H47.1987V41.0049" stroke="#07170D" stroke-width="1.7" stroke-miterlimit="10" stroke-linecap="round" stroke-linejoin="round"/>
<path d="M12.6855 22.6299L16.8715 18.9865C17.6883 18.2764 18.9035 18.2764 19.7191 18.9865L23.8136 22.549" stroke="#07170D" stroke-width="1.7" stroke-miterlimit="10" stroke-linecap="round" stroke-linejoin="round"/>
<path d="M26.7754 40.8786V54.8215C26.7754 57.1957 24.8489 59.1211 22.4735 59.1211H14.1169C11.7427 59.1211 9.81727 57.1957 9.81727 54.8215V31.3888H8.41806C6.41182 31.3888 5.48018 28.8997 6.99424 27.5837L10.0352 24.9364" stroke="#07170D" stroke-width="1.7" stroke-miterlimit="10" stroke-linecap="round" stroke-linejoin="round"/>
<path d="M42.3523 37.0279C43.5772 35.1693 44.2897 32.9421 44.2897 30.55C44.2897 24.032 39.0049 18.7484 32.487 18.7484C25.9692 18.7484 20.6855 24.032 20.6855 30.55C20.6855 37.0679 25.9692 42.3516 32.487 42.3516C33.3351 42.3516 34.163 42.262 34.9603 42.09" stroke="url(#paint0_linear_1_23569)" stroke-width="1.7" stroke-miterlimit="10" stroke-linecap="round" stroke-linejoin="round"/>
<path d="M33.4372 25H30.9444C30.8413 25 30.7424 25.0446 30.6695 25.1239C30.5965 25.2033 30.5556 25.3109 30.5556 25.4231V30.0769H29.3889C29.2857 30.0769 29.1868 30.1215 29.1139 30.2008C29.041 30.2802 29 30.3878 29 30.5C29 30.6122 29.041 30.7198 29.1139 30.7992C29.1868 30.8785 29.2857 30.9231 29.3889 30.9231H30.5556V31.7692H29.3889C29.2857 31.7692 29.1868 31.8138 29.1139 31.8931C29.041 31.9725 29 32.0801 29 32.1923C29 32.3045 29.041 32.4121 29.1139 32.4915C29.1868 32.5708 29.2857 32.6154 29.3889 32.6154H30.5556V35.5769C30.5556 35.6891 30.5965 35.7967 30.6695 35.8761C30.7424 35.9554 30.8413 36 30.9444 36C31.0476 36 31.1465 35.9554 31.2194 35.8761C31.2924 35.7967 31.3333 35.6891 31.3333 35.5769V32.6154H33.6667C33.7698 32.6154 33.8687 32.5708 33.9417 32.4915C34.0146 32.4121 34.0556 32.3045 34.0556 32.1923C34.0556 32.0801 34.0146 31.9725 33.9417 31.8931C33.8687 31.8138 33.7698 31.7692 33.6667 31.7692H31.3333V30.9231H33.4372C34.8503 30.9231 36 29.6723 36 28.1349V27.7881C36 26.2508 34.8503 25 33.4372 25ZM35.2222 28.1349C35.2222 29.2058 34.4215 30.0769 33.4372 30.0769H31.3333V25.8462H33.4372C34.4215 25.8462 35.2222 26.7173 35.2222 27.7881V28.1349Z" fill="url(#paint1_linear_1_23569)" stroke="url(#paint2_linear_1_23569)" stroke-width="0.3"/>
<path d="M50.1819 53.0625V49.8633H51.5823C53.5874 49.8633 54.519 47.3754 53.0061 46.0582L43.1273 37.4614C42.3116 36.7512 41.0964 36.7512 40.2796 37.4614L30.4019 46.0582C28.889 47.3754 29.8195 49.8633 31.8257 49.8633H33.225V54.8203C33.225 57.1957 35.1503 59.1211 37.5257 59.1211H45.8823C47.6448 59.1211 49.1601 58.0606 49.8233 56.5418" stroke="#07170D" stroke-width="1.7" stroke-miterlimit="10" stroke-linecap="round" stroke-linejoin="round"/>
</g>
</g>
<defs>
<linearGradient id="paint0_linear_1_23569" x1="25.7932" y1="59.0002" x2="46.8737" y2="52.3468" gradientUnits="userSpaceOnUse">
<stop stop-color="#0DBA48"/>
<stop offset="1" stop-color="#009B51"/>
</linearGradient>
<linearGradient id="paint1_linear_1_23569" x1="30.5147" y1="17.2411" x2="37.1225" y2="18.5682" gradientUnits="userSpaceOnUse">
<stop stop-color="#0DBA48"/>
<stop offset="1" stop-color="#009B51"/>
</linearGradient>
<linearGradient id="paint2_linear_1_23569" x1="30.5147" y1="17.2411" x2="37.1225" y2="18.5682" gradientUnits="userSpaceOnUse">
<stop stop-color="#0DBA48"/>
<stop offset="1" stop-color="#009B51"/>
</linearGradient>
<clipPath id="clip0_1_23569">
<rect width="60" height="60" fill="white"/>
</clipPath>
</defs>
</svg>
