<svg width="189" height="44" viewBox="0 0 189 44" fill="none" xmlns="http://www.w3.org/2000/svg">
<path d="M54.9819 30.7729V14.1885H66.8446V16.1456H57.153V21.225H66.2291V23.1708H57.153V28.8158H67.2251V30.7729H54.9819Z" fill="#07170D"/>
<path d="M81.9303 24.9588L84.1014 25.5131C83.6463 27.3156 82.8275 28.6901 81.6449 29.6366C80.4624 30.5831 79.0169 31.0563 77.3084 31.0563C75.5402 31.0563 74.1021 30.6924 72.9942 29.9646C71.8863 29.2368 71.0432 28.1829 70.465 26.8027C69.8868 25.4226 69.5977 23.9406 69.5977 22.3568C69.5977 20.6298 69.9241 19.1233 70.5769 17.8374C71.2297 16.5515 72.1586 15.5749 73.3635 14.9074C74.5684 14.24 75.8946 13.9062 77.3419 13.9062C78.9833 13.9062 80.3636 14.3286 81.4827 15.1733C82.6018 16.018 83.3814 17.2058 83.8216 18.7368L81.6841 19.2458C81.3036 18.0392 80.7515 17.1605 80.0278 16.61C79.3041 16.0594 78.3939 15.7842 77.2972 15.7842C76.0363 15.7842 74.9825 16.0896 74.1357 16.7005C73.2889 17.3114 72.6939 18.1315 72.3507 19.161C72.0075 20.1905 71.8359 21.252 71.8359 22.3455C71.8359 23.7558 72.0392 24.987 72.4458 26.0391C72.8524 27.0912 73.4847 27.8774 74.3427 28.3978C75.2007 28.9182 76.1296 29.1784 77.1293 29.1784C78.3454 29.1784 79.375 28.8239 80.2181 28.115C81.0611 27.4061 81.6319 26.354 81.9303 24.9588Z" fill="#07170D"/>
<path d="M86.1157 22.6958C86.1157 19.9431 86.8469 17.788 88.3092 16.2306C89.7715 14.6732 91.6591 13.8945 93.9719 13.8945C95.4865 13.8945 96.8518 14.2603 98.0679 14.9919C99.284 15.7234 100.211 16.7434 100.849 18.0519C101.487 19.3604 101.806 20.8443 101.806 22.5035C101.806 24.1853 101.47 25.6899 100.799 27.0173C100.127 28.3446 99.1758 29.3496 97.9448 30.0321C96.7138 30.7146 95.3857 31.0559 93.9607 31.0559C92.4163 31.0559 91.0361 30.6788 89.82 29.9246C88.6039 29.1705 87.6825 28.141 87.0558 26.8363C86.4291 25.5315 86.1157 24.1514 86.1157 22.6958ZM88.354 22.7298C88.354 24.7283 88.8855 26.3027 89.9487 27.4528C91.0119 28.6029 92.3455 29.178 93.9495 29.178C95.5834 29.178 96.9283 28.5973 97.984 27.4358C99.0397 26.2744 99.5675 24.6265 99.5675 22.4922C99.5675 21.1422 99.3418 19.9638 98.8904 18.957C98.4391 17.9501 97.7788 17.1696 96.9096 16.6152C96.0404 16.0609 95.0649 15.7837 93.9831 15.7837C92.4462 15.7837 91.1238 16.3173 90.0158 17.3845C88.9079 18.4517 88.354 20.2334 88.354 22.7298Z" fill="#07170D"/>
<path d="M104.536 30.7729V14.1885H107.804L111.688 25.9311C112.046 27.0246 112.307 27.8429 112.471 28.3859C112.657 27.7826 112.948 26.8964 113.344 25.7274L117.272 14.1885H120.193V30.7729H118.1V16.8922L113.333 30.7729H111.374L106.629 16.6547V30.7729H104.536Z" fill="#07170D"/>
<path d="M134.462 14.1885H136.633V23.7703C136.633 25.4371 136.446 26.7607 136.073 27.7411C135.7 28.7215 135.027 29.5191 134.053 30.1337C133.08 30.7484 131.802 31.0557 130.22 31.0557C128.683 31.0557 127.426 30.788 126.449 30.2525C125.471 29.7171 124.774 28.9421 124.356 27.9278C123.938 26.9134 123.729 25.5276 123.729 23.7703V14.1885H125.9V23.759C125.9 25.1995 126.033 26.261 126.298 26.9436C126.563 27.6261 127.018 28.1521 127.663 28.5217C128.308 28.8912 129.097 29.076 130.03 29.076C131.627 29.076 132.764 28.7102 133.443 27.9787C134.122 27.2471 134.462 25.8406 134.462 23.759L134.462 14.1885Z" fill="#07170D"/>
<path d="M139.509 25.4452L141.557 25.2642C141.654 26.0938 141.88 26.7744 142.234 27.3061C142.588 27.8378 143.139 28.2677 143.885 28.5958C144.631 28.9239 145.47 29.0879 146.403 29.0879C147.231 29.0879 147.962 28.9635 148.596 28.7146C149.23 28.4657 149.702 28.1244 150.012 27.6908C150.321 27.2571 150.476 26.7839 150.476 26.271C150.476 25.7507 150.327 25.2963 150.029 24.9079C149.73 24.5195 149.238 24.1933 148.551 23.9293C148.111 23.7558 147.138 23.4862 145.63 23.1204C144.123 22.7547 143.068 22.4096 142.463 22.0853C141.68 21.6705 141.096 21.1558 140.712 20.5412C140.328 19.9265 140.136 19.2383 140.136 18.4766C140.136 17.6394 140.371 16.857 140.841 16.1292C141.311 15.4014 141.997 14.849 142.9 14.4719C143.803 14.0948 144.806 13.9062 145.91 13.9062C147.126 13.9062 148.199 14.1042 149.128 14.5002C150.057 14.8961 150.771 15.4787 151.271 16.248C151.771 17.0172 152.039 17.8883 152.077 18.8612L149.995 19.0196C149.883 17.9713 149.504 17.1794 148.859 16.6439C148.214 16.1084 147.261 15.8407 146 15.8407C144.687 15.8407 143.73 16.0839 143.129 16.5704C142.529 17.0568 142.228 17.6432 142.228 18.3295C142.228 18.9253 142.441 19.4155 142.866 19.8002C143.284 20.1848 144.375 20.5789 146.14 20.9823C147.904 21.3858 149.115 21.7384 149.771 22.0401C150.726 22.4851 151.431 23.0488 151.886 23.7313C152.341 24.4139 152.569 25.2001 152.569 26.09C152.569 26.9724 152.319 27.8039 151.819 28.5845C151.319 29.3651 150.601 29.9722 149.665 30.4058C148.729 30.8395 147.675 31.0563 146.503 31.0563C145.019 31.0563 143.775 30.8376 142.771 30.4002C141.768 29.9627 140.981 29.3047 140.41 28.4261C139.839 27.5475 139.539 26.5538 139.509 25.4452Z" fill="#07170D"/>
<path d="M154.874 22.6958C154.874 19.9431 155.605 17.788 157.068 16.2306C158.53 14.6732 160.418 13.8945 162.73 13.8945C164.245 13.8945 165.61 14.2603 166.826 14.9919C168.043 15.7234 168.97 16.7434 169.607 18.0519C170.245 19.3604 170.564 20.8443 170.564 22.5035C170.564 24.1853 170.229 25.6899 169.557 27.0173C168.886 28.3446 167.934 29.3496 166.703 30.0321C165.472 30.7146 164.144 31.0559 162.719 31.0559C161.175 31.0559 159.795 30.6788 158.579 29.9246C157.362 29.1705 156.441 28.141 155.814 26.8363C155.188 25.5315 154.874 24.1514 154.874 22.6958ZM157.112 22.7298C157.112 24.7283 157.644 26.3027 158.707 27.4528C159.77 28.6029 161.104 29.178 162.708 29.178C164.342 29.178 165.687 28.5973 166.742 27.4358C167.798 26.2744 168.326 24.6265 168.326 22.4922C168.326 21.1422 168.1 19.9638 167.649 18.957C167.198 17.9501 166.537 17.1696 165.668 16.6152C164.799 16.0609 163.823 15.7837 162.742 15.7837C161.205 15.7837 159.882 16.3173 158.774 17.3845C157.666 18.4517 157.112 20.2334 157.112 22.7298Z" fill="#07170D"/>
<path d="M173.396 30.7729V14.1885H180.67C182.132 14.1885 183.244 14.3374 184.005 14.6353C184.766 14.9332 185.374 15.4593 185.829 16.2135C186.284 16.9676 186.512 17.801 186.512 18.7136C186.512 19.8901 186.135 20.8818 185.381 21.6888C184.628 22.4958 183.464 23.0086 181.89 23.2273C182.464 23.5064 182.901 23.7817 183.199 24.0532C183.833 24.6414 184.434 25.3767 185.001 26.2591L187.855 30.7729H185.124L182.953 27.3225C182.319 26.327 181.797 25.5653 181.386 25.0374C180.976 24.5094 180.608 24.1399 180.284 23.9287C179.959 23.7176 179.629 23.5705 179.293 23.4875C179.047 23.4347 178.644 23.4083 178.085 23.4083H175.567V30.7729H173.396ZM175.567 21.5078H180.234C181.226 21.5078 182.002 21.4041 182.561 21.1967C183.121 20.9893 183.546 20.6575 183.837 20.2012C184.128 19.7449 184.274 19.249 184.274 18.7136C184.274 17.9292 183.992 17.2844 183.429 16.7791C182.865 16.2738 181.976 16.0211 180.76 16.0211H175.567V21.5078Z" fill="#07170D"/>
<path fill-rule="evenodd" clip-rule="evenodd" d="M4.45844 29.577C1.85816 24.1004 1.8513 17.4166 5.01395 11.7332C8.20915 5.99169 13.8773 2.60097 19.8177 2.31776C21.0943 2.25705 22.1245 3.39017 22.1245 4.71607C22.1245 6.04198 21.0808 7.22335 19.8067 7.12074C16.6987 6.87079 13.4832 7.407 10.5766 9.14795C8.07964 10.6438 6.13304 12.7508 4.84208 15.1958C2.55493 19.5268 2.28685 24.8767 4.45844 29.577Z" fill="url(#paint0_linear_1_5194)"/>
<path fill-rule="evenodd" clip-rule="evenodd" d="M34.0434 33.0201C31.2057 37.3212 26.6059 39.7553 21.847 39.8658C19.1608 39.9283 16.4288 39.2331 13.9316 37.7373C11.0253 35.9963 8.96973 33.3752 7.62442 30.4577C7.07308 29.2616 5.56496 28.9144 4.45835 29.5774C3.3515 30.2403 2.92061 31.7326 3.60979 32.8492C6.81626 38.0451 12.4805 41.4427 18.8709 41.4427C25.1962 41.4427 30.7721 38.0946 34.0434 33.0201Z" fill="url(#paint1_linear_1_5194)"/>
<path fill-rule="evenodd" clip-rule="evenodd" d="M34.0435 33.0196C35.1502 33.6823 36.6113 33.3234 37.1988 32.146C39.9328 26.6669 39.9367 19.8789 36.7415 14.1371C33.5789 8.45375 27.9961 5.11791 22.1245 4.71582C27.1339 5.11486 31.4653 8.03084 33.937 12.2514C35.3325 14.6339 36.1179 17.4361 36.1179 20.4278C36.1179 23.9097 34.958 27.067 33.1952 29.7345C32.4728 30.828 32.9369 32.3566 34.0435 33.0196Z" fill="url(#paint2_linear_1_5194)"/>
<defs>
<linearGradient id="paint0_linear_1_5194" x1="6.80148" y1="-16.9137" x2="25.0686" y2="-12.7785" gradientUnits="userSpaceOnUse">
<stop stop-color="#0DBA48"/>
<stop offset="1" stop-color="#009B51"/>
</linearGradient>
<linearGradient id="paint1_linear_1_5194" x1="9.93481" y1="20.6415" x2="28.4289" y2="35.3637" gradientUnits="userSpaceOnUse">
<stop stop-color="#0DBA48"/>
<stop offset="1" stop-color="#009B51"/>
</linearGradient>
<linearGradient id="paint2_linear_1_5194" x1="25.8187" y1="-15.481" x2="42.0113" y2="-12.434" gradientUnits="userSpaceOnUse">
<stop stop-color="#0DBA48"/>
<stop offset="1" stop-color="#009B51"/>
</linearGradient>
</defs>
</svg>
