<svg width="189" height="44" viewBox="0 0 189 44" fill="none" xmlns="http://www.w3.org/2000/svg">
<path d="M54.9819 30.7733V14.1889H66.8446V16.146H57.153V21.2254H66.2291V23.1712H57.153V28.8162H67.2251V30.7733H54.9819Z" fill="white"/>
<path d="M81.9303 24.9586L84.1014 25.5129C83.6463 27.3154 82.8275 28.6899 81.6449 29.6364C80.4624 30.5829 79.0169 31.0561 77.3084 31.0561C75.5402 31.0561 74.1021 30.6922 72.9942 29.9644C71.8863 29.2366 71.0432 28.1827 70.465 26.8025C69.8868 25.4224 69.5977 23.9404 69.5977 22.3566C69.5977 20.6296 69.9241 19.1231 70.5769 17.8372C71.2297 16.5513 72.1586 15.5747 73.3635 14.9072C74.5684 14.2398 75.8946 13.906 77.3419 13.906C78.9833 13.906 80.3636 14.3284 81.4827 15.1731C82.6018 16.0177 83.3814 17.2056 83.8216 18.7366L81.6841 19.2456C81.3036 18.0389 80.7515 17.1603 80.0278 16.6098C79.3041 16.0592 78.3939 15.7839 77.2972 15.7839C76.0363 15.7839 74.9825 16.0894 74.1357 16.7003C73.2889 17.3112 72.6939 18.1313 72.3507 19.1608C72.0075 20.1903 71.8359 21.2518 71.8359 22.3453C71.8359 23.7556 72.0392 24.9868 72.4458 26.0389C72.8524 27.091 73.4847 27.8772 74.3427 28.3976C75.2007 28.918 76.1296 29.1782 77.1293 29.1782C78.3454 29.1782 79.375 28.8237 80.2181 28.1148C81.0611 27.4059 81.6319 26.3538 81.9303 24.9586Z" fill="white"/>
<path d="M86.1157 22.696C86.1157 19.9433 86.8469 17.7882 88.3092 16.2308C89.7715 14.6734 91.6591 13.8947 93.9719 13.8947C95.4865 13.8947 96.8518 14.2605 98.0679 14.9921C99.284 15.7236 100.211 16.7436 100.849 18.0521C101.487 19.3607 101.806 20.8445 101.806 22.5037C101.806 24.1855 101.47 25.6901 100.799 27.0175C100.127 28.3448 99.1758 29.3498 97.9448 30.0323C96.7138 30.7148 95.3857 31.0561 93.9607 31.0561C92.4163 31.0561 91.0361 30.679 89.82 29.9248C88.6039 29.1707 87.6825 28.1412 87.0558 26.8365C86.4291 25.5317 86.1157 24.1516 86.1157 22.696ZM88.354 22.73C88.354 24.7285 88.8855 26.3029 89.9487 27.453C91.0119 28.6031 92.3455 29.1782 93.9495 29.1782C95.5834 29.1782 96.9283 28.5975 97.984 27.436C99.0397 26.2746 99.5675 24.6267 99.5675 22.4924C99.5675 21.1424 99.3418 19.964 98.8904 18.9572C98.4391 17.9503 97.7788 17.1698 96.9096 16.6154C96.0404 16.0611 95.0649 15.784 93.9831 15.784C92.4462 15.784 91.1238 16.3175 90.0158 17.3847C88.9079 18.4519 88.354 20.2336 88.354 22.73Z" fill="white"/>
<path d="M104.537 30.7733V14.1889H107.804L111.688 25.9315C112.046 27.025 112.307 27.8433 112.471 28.3863C112.658 27.783 112.949 26.8968 113.344 25.7278L117.272 14.1889H120.193V30.7733H118.1V16.8926L113.333 30.7733H111.374L106.629 16.655V30.7733H104.537Z" fill="white"/>
<path d="M134.462 14.1889H136.633V23.7707C136.633 25.4375 136.446 26.761 136.073 27.7415C135.7 28.7219 135.027 29.5195 134.053 30.1341C133.08 30.7488 131.802 31.0561 130.22 31.0561C128.683 31.0561 127.426 30.7884 126.449 30.2529C125.472 29.7174 124.774 28.9425 124.356 27.9281C123.938 26.9138 123.729 25.528 123.729 23.7707V14.1889H125.901V23.7594C125.901 25.1999 126.033 26.2614 126.298 26.9439C126.563 27.6265 127.018 28.1525 127.663 28.5221C128.309 28.8916 129.098 29.0764 130.03 29.0764C131.627 29.0764 132.764 28.7106 133.443 27.9791C134.122 27.2475 134.462 25.841 134.462 23.7594L134.462 14.1889Z" fill="white"/>
<path d="M139.509 25.445L141.557 25.264C141.654 26.0936 141.879 26.7742 142.234 27.3059C142.588 27.8376 143.138 28.2675 143.885 28.5956C144.631 28.9237 145.47 29.0877 146.403 29.0877C147.231 29.0877 147.962 28.9633 148.596 28.7144C149.23 28.4655 149.702 28.1242 150.012 27.6906C150.321 27.2569 150.476 26.7837 150.476 26.2708C150.476 25.7505 150.327 25.2961 150.028 24.9077C149.73 24.5193 149.238 24.1931 148.551 23.9291C148.111 23.7556 147.137 23.486 145.63 23.1203C144.123 22.7545 143.068 22.4094 142.463 22.0851C141.68 21.6703 141.096 21.1556 140.712 20.541C140.328 19.9263 140.135 19.2381 140.135 18.4764C140.135 17.6392 140.371 16.8568 140.841 16.129C141.311 15.4012 141.997 14.8488 142.9 14.4717C143.802 14.0946 144.806 13.9061 145.91 13.9061C147.126 13.9061 148.199 14.104 149.128 14.5C150.056 14.8959 150.771 15.4785 151.271 16.2478C151.771 17.017 152.039 17.8881 152.076 18.861L149.995 19.0194C149.883 17.9711 149.504 17.1792 148.859 16.6437C148.214 16.1083 147.261 15.8405 146 15.8405C144.687 15.8405 143.73 16.0838 143.129 16.5702C142.529 17.0566 142.228 17.643 142.228 18.3293C142.228 18.9251 142.441 19.4153 142.866 19.8C143.284 20.1846 144.375 20.5787 146.14 20.9821C147.904 21.3856 149.115 21.7382 149.771 22.0399C150.726 22.4849 151.431 23.0486 151.886 23.7311C152.341 24.4137 152.569 25.1999 152.569 26.0898C152.569 26.9722 152.319 27.8037 151.819 28.5843C151.319 29.3649 150.601 29.972 149.665 30.4056C148.728 30.8393 147.675 31.0561 146.503 31.0561C145.019 31.0561 143.775 30.8374 142.771 30.4C141.768 29.9626 140.98 29.3045 140.41 28.4259C139.839 27.5473 139.539 26.5537 139.509 25.445Z" fill="white"/>
<path d="M154.875 22.696C154.875 19.9433 155.606 17.7882 157.068 16.2308C158.53 14.6734 160.418 13.8947 162.731 13.8947C164.245 13.8947 165.611 14.2605 166.827 14.9921C168.043 15.7236 168.97 16.7436 169.608 18.0521C170.246 19.3607 170.565 20.8445 170.565 22.5037C170.565 24.1855 170.229 25.6901 169.557 27.0175C168.886 28.3448 167.935 29.3498 166.704 30.0323C165.473 30.7148 164.145 31.0561 162.72 31.0561C161.175 31.0561 159.795 30.679 158.579 29.9248C157.363 29.1707 156.441 28.1412 155.815 26.8365C155.188 25.5317 154.875 24.1516 154.875 22.696ZM157.113 22.73C157.113 24.7285 157.644 26.3029 158.707 27.453C159.771 28.6031 161.104 29.1782 162.708 29.1782C164.342 29.1782 165.687 28.5975 166.743 27.436C167.798 26.2746 168.326 24.6267 168.326 22.4924C168.326 21.1424 168.101 19.964 167.649 18.9572C167.198 17.9503 166.538 17.1698 165.668 16.6154C164.799 16.0611 163.824 15.784 162.742 15.784C161.205 15.784 159.883 16.3175 158.775 17.3847C157.667 18.4519 157.113 20.2336 157.113 22.73Z" fill="white"/>
<path d="M173.396 30.7733V14.1889H180.67C182.132 14.1889 183.244 14.3378 184.005 14.6357C184.766 14.9336 185.374 15.4597 185.829 16.2138C186.284 16.968 186.512 17.8014 186.512 18.7139C186.512 19.8905 186.135 20.8822 185.381 21.6892C184.628 22.4962 183.464 23.009 181.89 23.2277C182.464 23.5068 182.901 23.782 183.199 24.0535C183.833 24.6418 184.434 25.3771 185.001 26.2595L187.854 30.7733H185.124L182.953 27.3229C182.319 26.3274 181.796 25.5657 181.386 25.0377C180.976 24.5098 180.608 24.1403 180.284 23.9291C179.959 23.7179 179.629 23.5709 179.293 23.4879C179.047 23.4351 178.644 23.4087 178.085 23.4087H175.567V30.7733H173.396ZM175.567 21.5082H180.233C181.226 21.5082 182.002 21.4045 182.561 21.1971C183.121 20.9897 183.546 20.6578 183.837 20.2016C184.128 19.7453 184.273 19.2494 184.273 18.7139C184.273 17.9296 183.992 17.2848 183.428 16.7795C182.865 16.2742 181.975 16.0215 180.759 16.0215H175.567V21.5082Z" fill="white"/>
<path fill-rule="evenodd" clip-rule="evenodd" d="M4.45856 29.5774C1.85828 24.1008 1.85142 17.4169 5.01407 11.7336C8.20927 5.99205 13.8774 2.60134 19.8179 2.31812C21.0944 2.25742 22.1246 3.39053 22.1246 4.71644C22.1246 6.04234 21.0809 7.22372 19.8069 7.1211C16.6988 6.87116 13.4833 7.40736 10.5767 9.14831C8.07976 10.6441 6.13317 12.7511 4.84221 15.1962C2.55506 19.5272 2.28697 24.877 4.45856 29.5774Z" fill="white"/>
<path fill-rule="evenodd" clip-rule="evenodd" d="M34.0438 33.0202C31.206 37.3212 26.6063 39.7554 21.8474 39.8659C19.1612 39.9283 16.4292 39.2331 13.932 37.7373C11.0256 35.9963 8.9701 33.3753 7.62479 30.4578C7.07344 29.2617 5.56532 28.9144 4.45872 29.5774C3.35187 30.2404 2.92097 31.7326 3.61016 32.8492C6.81662 38.0452 12.4809 41.4427 18.8713 41.4427C25.1966 41.4427 30.7724 38.0947 34.0438 33.0202Z" fill="white"/>
<path fill-rule="evenodd" clip-rule="evenodd" d="M34.0435 33.0202C35.1502 33.6829 36.6113 33.324 37.1988 32.1467C39.9328 26.6675 39.9367 19.8795 36.7415 14.1377C33.5789 8.45438 27.9961 5.11853 22.1245 4.71645C27.1339 5.11549 31.4653 8.03146 33.937 12.252C35.3325 14.6346 36.1179 17.4367 36.1179 20.4284C36.1179 23.9103 34.958 27.0676 33.1952 29.7351C32.4728 30.8286 32.9369 32.3572 34.0435 33.0202Z" fill="white"/>
</svg>
